<svg width="27" height="32" viewBox="0 0 27 32" fill="none" xmlns="http://www.w3.org/2000/svg">
<path fill-rule="evenodd" clip-rule="evenodd" d="M13.5 4.5C10.4367 4.49512 7.46362 5.5366 5.07301 7.452V7.4535L2.89351 5.274L0.772508 7.395L2.95201 9.573C1.36545 11.5592 0.371938 13.953 0.0858005 16.479C-0.200337 19.0049 0.232531 21.5603 1.33459 23.8511C2.43665 26.1419 4.16311 28.075 6.31529 29.4279C8.46748 30.7808 10.9579 31.4985 13.5 31.4985C16.0421 31.4985 18.5325 30.7808 20.6847 29.4279C22.8369 28.075 24.5634 26.1419 25.6654 23.8511C26.7675 21.5603 27.2004 19.0049 26.9142 16.479C26.6281 13.953 25.6346 11.5592 24.048 9.573L26.2275 7.3935L24.1065 5.2725L21.927 7.452C19.617 5.604 16.6875 4.5 13.5 4.5ZM19.5 0H7.50001V3H19.5V0ZM12 11V19V20.5H13.5H20V17.5H15V11H12Z" fill="#00B533"/>
</svg>
