<svg width="247" height="208" viewBox="0 0 247 208" fill="none" xmlns="http://www.w3.org/2000/svg">
<g opacity="0.08">
<path opacity="0.08" d="M15.3935 129.628C15.3935 129.628 22.8134 169.761 60.4469 191.509C98.074 213.257 144.85 208.069 182.872 204.866C220.893 201.662 246.548 175.855 245.995 142.869C245.442 109.883 215.247 104.797 194.056 70.3879C172.864 35.9851 172.419 23.6752 135.968 6.1005C99.5173 -11.4678 49.9878 10.3314 28.8027 53.2408C7.61758 96.1501 15.3935 129.628 15.3935 129.628Z" fill="#00B533"/>
<path opacity="0.7" d="M15.3935 129.628C15.3935 129.628 22.8134 169.761 60.4469 191.509C98.074 213.257 144.85 208.069 182.872 204.866C220.893 201.662 246.548 175.855 245.995 142.869C245.442 109.883 215.247 104.797 194.056 70.3879C172.864 35.9851 172.419 23.6752 135.968 6.1005C99.5173 -11.4678 49.9878 10.3314 28.8027 53.2408C7.61758 96.1501 15.3935 129.628 15.3935 129.628Z" fill="#00B533"/>
</g>
<g clip-path="url(#clip0)">
<path d="M207.869 152.115L204.418 205.297C204.341 205.839 203.881 206.303 203.344 206.303C202.73 206.303 202.27 205.839 202.27 205.219C202.27 205.219 202.27 205.219 202.27 205.142L203.727 152.037H207.869V152.115Z" fill="#263238" stroke="#263238" stroke-linecap="round" stroke-linejoin="round"/>
<path d="M216.844 152.115L220.295 205.297C220.295 205.839 220.756 206.303 221.369 206.303C221.983 206.303 222.443 205.839 222.443 205.219L220.986 152.192L216.844 152.115Z" fill="#263238" stroke="#263238" stroke-linecap="round" stroke-linejoin="round"/>
<path d="M181.867 152.115L185.318 205.297C185.318 205.839 185.779 206.303 186.392 206.303C187.006 206.303 187.466 205.839 187.466 205.219L186.009 152.192L181.867 152.115Z" fill="#263238" stroke="#263238" stroke-linecap="round" stroke-linejoin="round"/>
<path d="M167.599 152.115L164.148 205.297C164.071 205.839 163.611 206.303 163.074 206.303C162.46 206.303 162 205.839 162 205.219L163.457 152.192L167.599 152.115Z" fill="#263238" stroke="#263238" stroke-linecap="round" stroke-linejoin="round"/>
<path d="M228.35 98.4681C228.35 98.4681 193.526 97.1521 190.611 97.1521C187.696 97.1521 187.006 98.4681 187.006 98.4681L182.02 133.845C182.02 133.845 166.602 129.356 163.534 129.975C160.466 130.594 165.068 152.734 165.068 152.734H182.557L182.864 151.418H222.367L232.875 101.023C232.185 98.7003 228.35 98.4681 228.35 98.4681Z" fill="white" stroke="#263238" stroke-linecap="round" stroke-linejoin="round"/>
<path d="M215.156 120.608C215.156 120.608 218.685 143.832 214.619 146.541C214.006 146.928 210.554 148.941 207.409 148.631C204.878 148.399 186.776 148.631 186.776 148.631C186.776 148.631 184.244 143.832 183.784 140.271C183.324 136.71 187.236 121.46 187.236 121.46L215.156 120.608Z" fill="white" stroke="#263238" stroke-linecap="round" stroke-linejoin="round"/>
<path d="M185.472 132.994C185.472 132.994 159.239 135.704 158.011 136.478C156.784 137.252 151.108 142.206 152.105 145.457C153.102 148.709 150.648 148.941 152.872 149.483C155.097 150.025 187.006 149.947 187.006 149.947" fill="#00B533"/>
<path d="M185.472 132.994C185.472 132.994 159.239 135.704 158.011 136.478C156.784 137.252 151.108 142.206 152.105 145.457C153.102 148.709 150.648 148.941 152.872 149.483C155.097 150.025 187.006 149.947 187.006 149.947" stroke="#263238" stroke-linecap="round" stroke-linejoin="round"/>
<path d="M223.901 148.012H161.617V152.734H223.901V148.012Z" fill="white" stroke="#263238" stroke-linecap="round" stroke-linejoin="round"/>
<path d="M209.173 134H171.665C171.665 134 169.671 136.245 169.44 140.967C169.21 145.689 169.671 146.696 173.122 147.934C176.574 149.173 207.332 148.554 207.332 148.554" fill="#00B533"/>
<path d="M209.173 134H171.665C171.665 134 169.671 136.245 169.44 140.967C169.21 145.689 169.671 146.696 173.122 147.934C176.574 149.173 207.332 148.554 207.332 148.554" stroke="#263238" stroke-linecap="round" stroke-linejoin="round"/>
<path d="M179.642 194.072L175.73 184.705L169.287 185.944L174.196 194.304L171.358 200.033L165.222 204.058C165.222 204.058 164.531 204.755 167.6 204.523C170.668 204.29 177.034 204.523 177.034 204.523L181.023 199.8C181.023 199.8 182.48 197.401 179.642 194.072Z" fill="white" stroke="#263238" stroke-linecap="round" stroke-linejoin="round"/>
<path d="M181.407 198.175L181.56 204.291H180.563L179.259 201.272L181.407 198.175Z" fill="#263238" stroke="#263238" stroke-linecap="round" stroke-linejoin="round"/>
<path d="M177.034 204.6L181.023 199.878C181.023 199.878 182.097 198.098 180.639 195.543C177.801 200.497 173.966 201.968 173.966 201.968L169.977 201.039L165.145 204.213C165.145 204.213 164.455 204.91 167.523 204.678C170.591 204.445 177.034 204.6 177.034 204.6Z" fill="#263238" stroke="#263238" stroke-linecap="round" stroke-linejoin="round"/>
<path d="M164.224 146.232L177.341 186.408L167.983 188.112L149.574 146.309C149.574 146.309 148.116 140.039 152.028 138.103C155.94 136.168 167.599 135.084 167.599 135.084" fill="#00B533"/>
<path d="M164.224 146.232L177.341 186.408L167.983 188.112L149.574 146.309C149.574 146.309 148.116 140.039 152.028 138.103C155.94 136.168 167.599 135.084 167.599 135.084" stroke="#263238" stroke-linecap="round" stroke-linejoin="round"/>
<path d="M206.412 152.657C206.412 152.657 201.886 130.439 204.878 129.898C207.869 129.356 223.364 133.768 223.364 133.768L228.349 98.4683C228.349 98.4683 233.565 97.6167 234.179 102.339C234.716 107.061 223.901 152.657 223.901 152.657H206.412Z" fill="#263238" stroke="#263238" stroke-linecap="round" stroke-linejoin="round"/>
<path d="M153.026 87.2435L150.724 83.3728C150.264 82.5987 149.421 82.1342 148.577 82.2117L146.352 82.2891L142.594 81.1279C142.134 80.9731 141.597 81.1279 141.29 81.5924L141.136 81.7472L144.588 83.2954L141.136 84.6114L137.455 82.7535C137.148 82.5987 136.764 82.6761 136.611 82.9858C136.381 83.2954 136.457 83.7599 136.764 83.9921L141.903 88.0176C142.21 88.2498 142.671 88.4046 143.054 88.3272L148.73 87.166L150.341 88.9465L153.026 87.2435Z" fill="white" stroke="#263238" stroke-linecap="round" stroke-linejoin="round"/>
<path d="M192.682 79.27L171.588 101.565L151.492 85.1533L148.73 87.1661L170.821 112.48L189.998 102.029L192.682 79.27Z" fill="white" stroke="#263238" stroke-linecap="round" stroke-linejoin="round"/>
<path d="M224.208 84.9985L235.253 119.215L225.742 119.524L216.23 103.423C216.23 103.423 221.6 87.2435 224.208 84.9985Z" fill="white" stroke="#263238" stroke-linecap="round" stroke-linejoin="round"/>
<path d="M212.165 79.1152L224.207 84.9985L214.159 113.409L215.31 121.305L187.159 121.382L190.534 108.609L188.233 100.404C187.926 99.3198 187.926 98.236 188.156 97.1522L192.682 79.27L204.494 77.3347L212.165 79.1152Z" fill="white" stroke="#263238" stroke-linecap="round" stroke-linejoin="round"/>
<path d="M211.628 77.4122C211.628 77.4122 214.006 79.0378 214.083 80.4313C214.083 81.2828 214.083 82.7536 214.006 83.9148C213.929 84.7664 213.776 85.6953 213.392 86.4694L209.174 91.656L204.264 87.708L200.199 89.7981C200.199 89.7981 199.432 83.4503 201.196 79.0378C202.96 74.6254 210.708 76.3284 211.628 77.4122Z" fill="white" stroke="#263238" stroke-linecap="round" stroke-linejoin="round"/>
<path d="M215.003 65.181C215.003 65.181 214.006 68.6646 213.546 70.987C213.085 73.3093 212.165 77.954 212.242 79.6571C212.318 81.3602 205.031 88.7917 204.188 87.708C203.344 86.6242 202.347 80.199 202.347 80.199L203.267 69.8258C203.19 69.8258 212.702 59.2203 215.003 65.181Z" fill="white" stroke="#263238" stroke-linecap="round" stroke-linejoin="round"/>
<path d="M199.815 59.7622C199.815 59.7622 198.511 61.9297 198.511 62.8587C198.511 63.7876 198.972 65.6455 198.895 66.1874C198.818 66.7293 197.514 68.5098 197.361 69.1291C197.207 69.6709 197.438 70.2128 197.898 70.4451C198.205 70.5999 198.511 70.7547 198.818 70.9869C198.818 70.9869 199.202 75.7865 199.815 77.0251C200.429 78.2637 200.966 78.8056 202.807 78.9604C204.648 79.1152 208.943 77.1799 209.557 75.6317C210.171 74.0834 210.247 72.2255 210.324 70.058C210.401 67.8905 208.867 64.6392 207.716 61.6201C206.565 58.601 201.81 56.7431 199.815 59.7622Z" fill="white" stroke="#263238" stroke-linecap="round" stroke-linejoin="round"/>
<path d="M219.452 75.4768C222.671 75.4768 225.281 72.8428 225.281 69.5935C225.281 66.3443 222.671 63.7102 219.452 63.7102C216.232 63.7102 213.622 66.3443 213.622 69.5935C213.622 72.8428 216.232 75.4768 219.452 75.4768Z" fill="#263238" stroke="#263238" stroke-linecap="round" stroke-linejoin="round"/>
<path d="M199.739 59.4525C199.739 59.4525 202.117 57.4398 206.335 61.4652C210.554 65.4906 208.943 71.4513 211.781 72.6899C214.619 73.9285 219.835 67.813 220.449 64.7165C221.063 61.62 219.222 55.3496 213.546 54.111C207.869 52.8724 201.043 53.724 199.739 59.4525Z" fill="#263238" stroke="#263238" stroke-linecap="round" stroke-linejoin="round"/>
<path d="M199.739 59.4525C199.585 57.6721 200.812 56.1238 202.5 55.969C202.73 55.969 203.037 55.969 203.267 55.969C207.102 56.2012 207.486 62.3168 209.48 64.7166C211.474 67.1163 212.548 66.7293 212.548 66.7293C212.548 66.7293 209.097 67.7356 206.872 66.497C204.648 65.2584 203.65 58.3688 199.739 59.4525Z" fill="#263238" stroke="#263238" stroke-linecap="round" stroke-linejoin="round"/>
<path d="M208.636 70.3675C208.636 70.3675 212.702 65.026 213.622 68.974C214.543 72.9221 211.321 73.9284 209.787 73.464C208.253 72.9995 208.483 72.1479 208.483 72.1479" fill="white"/>
<path d="M208.636 70.3675C208.636 70.3675 212.702 65.026 213.622 68.974C214.543 72.9221 211.321 73.9284 209.787 73.464C208.253 72.9995 208.483 72.1479 208.483 72.1479" stroke="#263238" stroke-linecap="round" stroke-linejoin="round"/>
<path d="M199.586 116.196C199.586 116.196 191.838 117.279 190.534 117.279C189.23 117.279 186.009 121.382 186.009 121.382H200.199L199.586 116.196Z" fill="white" stroke="#263238" stroke-linecap="round" stroke-linejoin="round"/>
<path d="M232.491 110.932L235.253 117.279C235.713 118.595 235.023 119.989 233.719 120.453C233.488 120.531 233.258 120.608 232.952 120.608L199.432 120.763L199.662 116.196L225.665 112.015" fill="white"/>
<path d="M232.491 110.932L235.253 117.279C235.713 118.595 235.023 119.989 233.719 120.453C233.488 120.531 233.258 120.608 232.952 120.608L199.432 120.763L199.662 116.196L225.665 112.015" stroke="#263238" stroke-linecap="round" stroke-linejoin="round"/>
<path d="M187.619 198.175L187.773 204.291H186.776L185.548 201.272L187.619 198.175Z" fill="#263238" stroke="#263238" stroke-linecap="round" stroke-linejoin="round"/>
<path d="M185.855 194.072L184.628 185.17L178.185 185.557L180.409 194.382L177.571 200.11L171.435 204.136C171.435 204.136 170.744 204.832 173.812 204.6C176.881 204.368 183.247 204.6 183.247 204.6L187.236 199.878C187.312 199.878 188.693 197.401 185.855 194.072Z" fill="white" stroke="#263238" stroke-linecap="round" stroke-linejoin="round"/>
<path d="M183.247 204.6L187.236 199.878C187.236 199.878 188.31 198.098 186.852 195.543C184.014 200.497 180.179 201.968 180.179 201.968L176.267 201.039L171.435 204.213C171.435 204.213 170.744 204.91 173.812 204.678C176.881 204.445 183.247 204.6 183.247 204.6Z" fill="#263238" stroke="#263238" stroke-linecap="round" stroke-linejoin="round"/>
<path d="M182.941 139.342L185.702 186.796L176.958 187.028L168.443 143.909C168.443 143.909 168.597 135.704 171.205 134.775C173.813 133.846 180.716 134.852 180.716 134.852" fill="#00B533"/>
<path d="M182.941 139.342L185.702 186.796L176.958 187.028L168.443 143.909C168.443 143.909 168.597 135.704 171.205 134.775C173.813 133.846 180.716 134.852 180.716 134.852" stroke="#263238" stroke-linecap="round" stroke-linejoin="round"/>
<path d="M144.818 37.1577L155.634 67.8129C155.634 67.8129 154.176 74.7026 149.881 74.4704C145.585 74.2381 144.435 68.1226 143.284 67.271C142.134 66.4195 140.446 59.7621 140.446 59.7621L144.818 37.1577Z" fill="white" stroke="#263238" stroke-linecap="round" stroke-linejoin="round"/>
<path d="M116.821 31.0422L99.2559 37.39L106.006 86.6241H137.685L144.818 37.1578L125.796 31.1197L116.821 31.0422Z" fill="white" stroke="#263238" stroke-linecap="round" stroke-linejoin="round"/>
<path d="M118.509 39.4801L121.04 43.2733L118.816 76.0961L122.114 84.6114L125.412 76.3283L122.574 43.8152L124.875 38.2416L121.654 33.9839L118.509 39.4801Z" fill="#00B533" stroke="#263238" stroke-linecap="round" stroke-linejoin="round"/>
<path d="M122.037 37.8544L117.511 41.2605L114.52 32.3581L116.591 27.7908L125.872 27.5586L128.097 29.6487L127.636 41.0283L122.037 37.8544Z" fill="white" stroke="#263238" stroke-linecap="round" stroke-linejoin="round"/>
<path d="M126.793 25.4686L126.102 31.1971L121.04 37.7771L117.205 31.0422V20.3594C117.205 20.3594 123.878 22.0624 126.793 25.4686Z" fill="white" stroke="#263238" stroke-linecap="round" stroke-linejoin="round"/>
<path d="M114.597 13.5471C114.597 8.28304 118.355 4.10278 123.034 4.10278C127.713 4.10278 130.321 8.59269 130.321 13.7793C130.321 15.4824 129.938 18.3466 129.861 19.8949C129.631 22.5269 128.864 23.6106 127.253 26.0104C122.19 33.7516 118.048 22.372 115.901 18.5789C115.057 17.0306 114.597 15.3275 114.597 13.5471Z" fill="white" stroke="#263238" stroke-linecap="round" stroke-linejoin="round"/>
<path d="M126.716 15.1726L127.483 20.5915L124.952 20.514" fill="white"/>
<path d="M126.716 15.1726L127.483 20.5915L124.952 20.514" stroke="#263238" stroke-linecap="round" stroke-linejoin="round"/>
<path d="M132.316 14.2437L120.273 14.3211C119.966 15.25 120.196 16.3338 120.887 17.1079C121.654 17.882 124.799 17.5724 125.259 17.4176C125.719 17.2627 126.026 15.0178 126.026 15.0178H126.946C126.946 15.0178 127.023 17.3401 128.327 17.495C129.631 17.6498 131.318 17.6498 131.625 17.4176C133.006 16.4112 132.316 14.2437 132.316 14.2437Z" fill="white" stroke="#263238" stroke-linecap="round" stroke-linejoin="round"/>
<path d="M116.131 19.4304C116.131 19.4304 118.815 25.0041 119.506 27.0168C120.196 29.0295 123.341 30.5003 126.562 29.4165C129.784 28.3328 128.94 23.5332 128.94 23.5332C128.94 23.5332 125.489 20.5916 124.875 21.2109C124.261 21.8302 120.81 24.6944 120.579 23.9977C120.349 23.301 118.892 19.4304 118.892 19.4304L118.202 16.6435L119.659 15.7146C120.119 15.3275 120.196 14.7082 119.812 14.2438L119.122 13.2374C118.969 13.0052 118.892 12.6955 118.969 12.3859C119.122 11.5343 119.659 9.75387 120.733 9.2894C122.267 8.6701 124.108 9.59904 125.872 9.9861C127.636 10.3732 129.477 8.82492 129.477 8.82492L130.244 11.3795C131.932 9.75387 133.159 7.66374 133.696 5.41879C134.54 1.70301 125.795 0.232178 122.957 0.232178C120.119 0.232178 115.67 1.78042 114.366 5.88326C113.062 9.9861 115.363 18.7337 116.131 19.4304Z" fill="#263238" stroke="#263238" stroke-linecap="round" stroke-linejoin="round"/>
<path d="M116.515 17.7272C116.515 17.7272 114.137 15.0952 114.137 17.9594C114.137 20.8237 114.827 20.8237 116.284 21.83C117.742 22.8364 118.202 21.5978 118.202 21.5978" fill="white"/>
<path d="M116.515 17.7272C116.515 17.7272 114.137 15.0952 114.137 17.9594C114.137 20.8237 114.827 20.8237 116.284 21.83C117.742 22.8364 118.202 21.5978 118.202 21.5978" stroke="#263238" stroke-linecap="round" stroke-linejoin="round"/>
<path d="M148.193 196.162H148.27L148.04 195.078L137.685 86.7014H105.929L95.4971 196.24H95.5738L102.324 196.859C102.324 196.859 109.764 171.545 109.764 169.687C109.764 167.829 111.912 150.334 111.912 150.334L122.497 112.789L131.932 150.179C131.932 150.179 134.079 167.674 134.079 169.532C134.079 171.39 141.597 196.781 141.597 196.781L147.963 196.24L148.193 196.162Z" fill="#263238" stroke="#263238" stroke-linecap="round" stroke-linejoin="round"/>
<path d="M95.6506 196.162C95.6506 196.162 91.5853 199.336 89.2841 200.265C86.983 201.194 82.6108 203.516 82.6108 203.516C82.6108 203.516 82.6108 204.987 86.3694 204.987H101.173L100.943 196.162H95.6506V196.162Z" fill="#263238" stroke="#263238" stroke-linecap="round" stroke-linejoin="round"/>
<path d="M101.173 203.362C95.2671 203.671 89.2841 203.516 83.3779 203.052L82.6108 203.439C82.6108 203.439 82.6108 204.91 86.3694 204.91H101.25L101.173 203.362Z" fill="white" stroke="#263238" stroke-linecap="round" stroke-linejoin="round"/>
<path d="M147.58 196.162C147.58 196.162 151.645 199.336 153.946 200.265C156.247 201.194 160.62 203.516 160.62 203.516C160.62 203.516 160.62 204.987 156.861 204.987H142.057L142.364 196.162H147.58Z" fill="#263238" stroke="#263238" stroke-linecap="round" stroke-linejoin="round"/>
<path d="M142.057 203.362C147.963 203.671 153.946 203.516 159.853 203.052L160.62 203.439C160.62 203.439 160.62 204.91 156.861 204.91H142.057V203.362Z" fill="white" stroke="#263238" stroke-linecap="round" stroke-linejoin="round"/>
<path d="M99.2558 37.3901L87.52 68.8969H98.7189L102.938 60.3041L99.2558 37.3901Z" fill="white" stroke="#263238" stroke-linecap="round" stroke-linejoin="round"/>
<path d="M150.341 64.0198C145.662 62.0845 130.628 61.0782 129.861 61.0782C129.094 61.0782 104.702 59.0654 102.708 58.7558C100.713 58.4461 98.4121 63.0909 98.4121 63.0909L108.997 62.7812L121.884 65.4132C121.884 65.4132 147.963 74.9349 149.958 74.393C150.188 74.3156 150.495 74.1608 150.648 73.9286" fill="white"/>
<path d="M150.341 64.0198C145.662 62.0845 130.628 61.0782 129.861 61.0782C129.094 61.0782 104.702 59.0654 102.708 58.7558C100.713 58.4461 98.4121 63.0909 98.4121 63.0909L108.997 62.7812L121.884 65.4132C121.884 65.4132 147.963 74.9349 149.958 74.393C150.188 74.3156 150.495 74.1608 150.648 73.9286" stroke="#263238" stroke-linecap="round" stroke-linejoin="round"/>
<path d="M95.804 62.5489L136.151 58.5234L136.457 62.007L101.557 72.6899C101.557 72.6899 95.267 74.1607 90.3579 73.2317C85.4489 72.3028 87.75 67.4258 88.9006 64.5616" fill="white"/>
<path d="M95.804 62.5489L136.151 58.5234L136.457 62.007L101.557 72.6899C101.557 72.6899 95.267 74.1607 90.3579 73.2317C85.4489 72.3028 87.75 67.4258 88.9006 64.5616" stroke="#263238" stroke-linecap="round" stroke-linejoin="round"/>
<path d="M136.151 58.5233L143.898 58.2136L146.199 62.8584L136.458 62.0068L136.151 58.5233Z" fill="white" stroke="#263238" stroke-linecap="round" stroke-linejoin="round"/>
<path d="M187.62 126.414L194.216 205.607C194.293 206.071 194.753 206.381 195.213 206.381C195.213 206.381 195.213 206.381 195.29 206.381C195.674 206.303 195.98 205.916 195.904 205.452L191.378 126.491L187.62 126.414Z" fill="#263238" stroke="#263238" stroke-linecap="round" stroke-linejoin="round"/>
<path d="M231.878 126.414L238.551 205.916C238.628 206.381 239.088 206.69 239.548 206.69H239.625C240.009 206.613 240.315 206.226 240.239 205.761L235.713 126.491L231.878 126.414Z" fill="#263238" stroke="#263238" stroke-linecap="round" stroke-linejoin="round"/>
<path d="M49.1676 126.414L45.7159 204.91C45.6392 205.297 45.946 205.761 46.3296 205.839C46.7898 205.916 47.25 205.684 47.3267 205.22C47.3267 205.22 47.3267 205.142 47.3267 205.065L52.9262 126.414H49.1676V126.414Z" fill="#263238" stroke="#263238" stroke-linecap="round" stroke-linejoin="round"/>
<path d="M8.36088 126.414L4.90918 204.6C4.90918 205.065 5.13929 205.452 5.59952 205.529C6.05975 205.607 6.51998 205.374 6.59668 204.91V204.833L12.1194 126.414H8.36088Z" fill="#263238" stroke="#263238" stroke-linecap="round" stroke-linejoin="round"/>
<path d="M240.545 122.079H5.90625V128.891H240.545V122.079Z" fill="#00B533" stroke="#263238" stroke-linecap="round" stroke-linejoin="round"/>
<path d="M240.545 122.079H5.90625V124.401H240.545V122.079Z" fill="#263238" stroke="#263238" stroke-linecap="round" stroke-linejoin="round"/>
<path d="M240.469 122.079H181.79V128.891H240.469V122.079Z" fill="#263238" stroke="#263238" stroke-linecap="round" stroke-linejoin="round"/>
<path d="M242.617 119.834H3.83545V122.466H242.617V119.834Z" fill="#00B533" stroke="#263238" stroke-linecap="round" stroke-linejoin="round"/>
<path d="M242.617 119.834H184.245V122.466H242.617V119.834Z" fill="#263238" stroke="#263238" stroke-linecap="round" stroke-linejoin="round"/>
<path d="M56.9916 119.524H89.0541C89.2842 119.524 89.5143 119.369 89.6677 119.137L98.5655 98.7004C98.7189 98.3908 98.5655 98.0037 98.2587 97.8489C98.1819 97.8489 98.1052 97.7715 98.0285 97.7715H65.8893C65.6592 97.7715 65.4291 97.9263 65.3524 98.1585L56.5314 118.595C56.378 118.905 56.5314 119.292 56.8382 119.447C56.8382 119.524 56.9149 119.524 56.9916 119.524Z" fill="white" stroke="#263238" stroke-linecap="round" stroke-linejoin="round"/>
<path d="M59.9833 117.976H87.2901C87.5202 117.976 87.6736 117.821 87.7503 117.666L95.3441 100.249C95.4975 100.016 95.3441 99.6294 95.114 99.552C95.0373 99.4746 94.9606 99.4746 94.8838 99.4746H67.577C67.3469 99.4746 67.1935 99.6294 67.1168 99.7843L59.5231 117.202C59.3697 117.434 59.5231 117.821 59.8299 117.899C59.9066 117.976 59.9066 117.976 59.9833 117.976Z" fill="#00B533" stroke="#263238" stroke-linecap="round" stroke-linejoin="round"/>
<path d="M89.5142 118.208H41.3438V119.756H89.5142V118.208Z" fill="white" stroke="#263238" stroke-linecap="round" stroke-linejoin="round"/>
<path d="M89.5145 118.208H66.1963V119.756H89.5145V118.208Z" fill="white" stroke="#263238" stroke-linecap="round" stroke-linejoin="round"/>
<path d="M105.009 107.138H96.4946V119.834H105.009V107.138Z" fill="white" stroke="#263238" stroke-linecap="round" stroke-linejoin="round"/>
<path d="M104.625 118.131H103.705C103.321 118.131 103.014 117.821 103.014 117.434C103.014 117.047 103.321 116.737 103.705 116.737H104.625C105.392 116.737 105.929 116.118 105.929 115.421V112.325C105.929 111.551 105.315 111.009 104.625 111.009H103.475C103.091 111.009 102.784 110.699 102.784 110.312C102.784 109.925 103.091 109.615 103.475 109.615H104.625C106.159 109.615 107.31 110.854 107.31 112.325V115.421C107.31 116.892 106.082 118.131 104.625 118.131Z" fill="white" stroke="#263238" stroke-linecap="round" stroke-linejoin="round"/>
<path d="M171.281 119.524H139.219C138.989 119.524 138.759 119.369 138.682 119.137L129.784 98.7004C129.631 98.3908 129.784 98.0037 130.091 97.8489C130.168 97.8489 130.245 97.7715 130.321 97.7715H162.384C162.614 97.7715 162.844 97.9263 162.997 98.1585L171.895 118.595C172.049 118.905 171.895 119.292 171.588 119.447C171.512 119.524 171.358 119.524 171.281 119.524Z" fill="white" stroke="#263238" stroke-linecap="round" stroke-linejoin="round"/>
<path d="M187.006 118.208H138.835V119.756H187.006V118.208Z" fill="white" stroke="#263238" stroke-linecap="round" stroke-linejoin="round"/>
<path d="M172.049 118.208H138.835V119.756H172.049V118.208Z" fill="white" stroke="#263238" stroke-linecap="round" stroke-linejoin="round"/>
<path d="M151.415 106.364C151.875 107.293 151.568 108.454 150.648 108.919C149.728 109.383 148.577 109.074 148.117 108.145C147.656 107.216 147.963 106.132 148.884 105.59C149.728 105.048 150.878 105.435 151.415 106.364Z" fill="white" stroke="#263238" stroke-linecap="round" stroke-linejoin="round"/>
<path d="M14.6505 101.255C14.6505 101.255 17.0284 106.287 17.2585 107.603C17.4886 108.919 17.7954 111.628 16.7982 112.867C15.571 114.338 14.4204 113.177 14.4204 113.177C14.4204 113.177 11.2755 112.402 11.2755 109.693C11.2755 106.984 11.0454 103.345 11.0454 103.345L14.6505 101.255Z" fill="white" stroke="#263238" stroke-linecap="round" stroke-linejoin="round"/>
<path d="M12.043 109.151L16.4918 110.312" stroke="#263238" stroke-linecap="round" stroke-linejoin="round"/>
<path d="M13.1166 106.132L14.3439 108.145C14.3439 108.145 11.4291 113.177 12.9632 111.861C14.4973 110.545 17.4888 108.919 17.182 107.603C16.7217 106.21 16.1848 104.894 15.4177 103.578" fill="white"/>
<path d="M13.1166 106.132L14.3439 108.145C14.3439 108.145 11.4291 113.177 12.9632 111.861C14.4973 110.545 17.4888 108.919 17.182 107.603C16.7217 106.21 16.1848 104.894 15.4177 103.578" stroke="#263238" stroke-linecap="round" stroke-linejoin="round"/>
<path d="M57.7587 53.5692C57.7587 53.5692 59.6764 59.6073 59.6764 60.7685C59.6764 61.6201 59.5996 62.4716 59.5229 63.3231L61.2104 65.9551C61.4406 66.3422 61.2871 66.7293 60.9803 66.9615L58.3724 68.5097C58.3724 68.5097 57.9889 74.7027 57.6053 75.4768C57.2218 76.2509 50.7019 76.0961 50.7019 76.0961L48.5542 80.199L37.5854 75.8639L40.5002 67.8904L39.8866 55.8916C39.8866 55.8916 46.6366 49.8534 57.7587 53.5692Z" fill="white" stroke="#263238" stroke-linecap="round" stroke-linejoin="round"/>
<path d="M50.2415 68.1998C50.2415 68.1998 48.3239 69.9803 46.8665 70.1351C45.4091 70.2899 40.8068 69.2062 40.4233 68.6643C40.0398 68.1224 36.8182 61.3875 36.9716 58.1362C37.125 54.8849 37.2017 50.0854 40.6534 48.4597C44.1051 46.8341 49.6279 47.376 52.4659 45.5955C55.304 43.815 59.9063 42.3442 62.2841 45.4406C64.6619 48.5371 62.8977 52.9496 60.9801 54.7301C59.0625 56.5106 56.6847 57.0525 56.9148 57.8266C57.1449 58.6007 58.6023 59.5297 57.7585 60.6908C56.9148 61.852 53.9233 63.0132 53.9233 63.4777C53.9233 63.9421 54.6137 65.6452 53.8466 65.8774C53.0796 66.1097 52.1591 64.2518 51.3154 64.2518C50.4716 64.2518 48.7074 66.6516 50.2415 68.1998Z" fill="#263238" stroke="#263238" stroke-linecap="round" stroke-linejoin="round"/>
<path d="M50.0884 68.5098L51.6225 68.8968C51.4691 70.3676 51.8526 71.8385 52.773 72.9996" fill="white"/>
<path d="M50.0884 68.5098L51.6225 68.8968C51.4691 70.3676 51.8526 71.8385 52.773 72.9996" stroke="#263238" stroke-linecap="round" stroke-linejoin="round"/>
<path d="M51.8525 64.3295L62.6679 61.6201" stroke="#263238" stroke-linecap="round" stroke-linejoin="round"/>
<path d="M59.9062 61.3879L62.3608 61.4654C62.3608 61.4654 63.2045 64.2522 60.6733 64.6393" stroke="#263238" stroke-linecap="round" stroke-linejoin="round"/>
<path d="M49.0142 195.233C49.0142 195.233 58.9858 201.581 60.75 201.581C62.5142 201.581 63.3579 203.207 62.5142 203.362C61.6704 203.516 56.2244 203.749 52.5426 203.903C48.8608 204.058 46.4062 203.749 44.3352 203.749C42.2642 203.749 39.8096 203.903 38.7358 203.362C37.6619 202.82 39.4261 196.781 39.4261 195.775C39.4261 194.769 47.7869 194.537 49.0142 195.233Z" fill="#263238" stroke="#263238" stroke-linecap="round" stroke-linejoin="round"/>
<path d="M61.824 201.891C57.9121 203.207 51.699 202.355 47.8638 201.968C44.8723 201.658 40.1933 201.658 38.2757 201.581C38.199 202.51 38.2757 203.207 38.5825 203.362C39.6564 203.903 42.1109 203.749 44.182 203.749C46.253 203.749 48.7075 204.136 52.3894 203.903C56.0712 203.671 61.5172 203.516 62.3609 203.362C63.128 203.284 62.8212 202.355 61.824 201.891Z" fill="white" stroke="#263238" stroke-linecap="round" stroke-linejoin="round"/>
<path d="M56.8383 151.573L48.9378 191.44L50.5486 195.543C49.398 197.246 47.5571 198.485 45.5628 198.949C43.3383 199.414 41.0372 199.646 38.7361 199.646C38.7361 199.646 37.8923 195.233 38.4293 194.692C38.9662 194.15 39.1196 192.06 39.1196 192.06L43.6452 151.96L56.8383 151.573Z" fill="#00B533" stroke="#263238" stroke-linecap="round" stroke-linejoin="round"/>
<path d="M80.8467 193.918C80.8467 193.918 86.9831 199.027 89.7444 199.956C92.5058 200.885 95.4973 201.736 95.4973 202.588C95.4973 203.439 88.824 204.368 83.7615 203.826C78.699 203.284 70.9518 201.039 69.2643 201.039C67.5768 201.039 67.8836 196.472 67.8836 195.698C67.8836 194.924 76.4745 189.35 80.8467 193.918Z" fill="#263238" stroke="#263238" stroke-linecap="round" stroke-linejoin="round"/>
<path d="M95.574 202.587C95.574 202.278 95.1905 201.968 94.5769 201.659C89.5911 202.355 84.4519 202.278 79.4661 201.581C74.4036 200.884 70.1848 199.878 68.0371 199.336C68.1905 200.265 68.574 201.039 69.2644 201.039C71.0286 201.039 78.699 203.362 83.7615 203.826C88.824 204.291 95.574 203.439 95.574 202.587Z" fill="white" stroke="#263238" stroke-linecap="round" stroke-linejoin="round"/>
<path d="M50.395 133.768C55.6109 133.381 60.9035 133.458 66.1194 134.155C75.0171 135.239 94.9603 136.478 95.3439 138.722C95.7274 140.967 79.8495 188.808 79.8495 190.047C79.8495 191.285 81.2302 192.524 81.6137 193.221C81.8439 193.685 81.9206 194.227 81.9973 194.846C81.9973 194.846 77.7018 199.491 74.4035 200.73C71.1052 201.968 68.2671 200.807 67.5768 200.807C66.8865 200.807 66.8865 196.007 67.4234 193.763C67.9603 191.518 68.8041 185.634 69.0342 185.092C69.2643 184.55 78.7757 150.567 78.7757 150.567C78.7757 150.567 52.6961 154.824 37.1251 153.044C21.5541 151.263 19.9433 148.786 19.0995 145.07C18.2558 141.354 19.9433 133.923 19.9433 133.923L50.395 133.768Z" fill="#00B533" stroke="#263238" stroke-linecap="round" stroke-linejoin="round"/>
<path d="M48.4006 145.225C48.017 145.767 47.6335 146.231 47.25 146.696" stroke="#263238" stroke-linecap="round" stroke-linejoin="round"/>
<path d="M53.1563 135.704C52.1591 138.258 51.0086 140.735 49.7046 143.135" stroke="#263238" stroke-linecap="round" stroke-linejoin="round"/>
<path d="M51.0854 137.484C48.9376 140.967 45.7927 143.754 41.9575 145.225" stroke="#263238" stroke-linecap="round" stroke-linejoin="round"/>
<path d="M90.8184 147.238C91.432 147.006 91.9689 146.774 92.5059 146.541Z" fill="white"/>
<path d="M90.8184 147.238C91.432 147.006 91.9689 146.774 92.5059 146.541" stroke="#263238" stroke-linecap="round" stroke-linejoin="round"/>
<path d="M78.6992 150.566C82.0742 149.947 85.3725 149.095 88.6708 148.012Z" fill="white"/>
<path d="M78.6992 150.566C82.0742 149.947 85.3725 149.095 88.6708 148.012" stroke="#263238" stroke-linecap="round" stroke-linejoin="round"/>
<path d="M98.9493 91.8883C99.3328 90.4175 99.9465 90.4949 99.4095 90.0305C98.7192 89.3337 98.1823 90.1853 96.2647 91.269C94.347 92.3528 92.3527 93.7462 92.3527 93.7462C92.4294 93.3592 92.5828 92.9721 92.8129 92.6625C93.2732 91.8109 93.58 90.882 93.58 89.953C93.58 89.1789 92.9664 89.3337 92.7362 90.1079C92.5061 90.882 90.2817 92.198 90.205 92.8173C90.1283 93.4366 89.6681 95.8364 89.6681 95.8364C88.9777 96.9201 88.9777 101.875 88.9777 101.875L74.7874 112.635L67.5771 121.15C67.5771 121.15 70.722 126.259 72.4862 125.563C74.2504 124.866 75.0942 124.169 79.3129 120.608C82.8414 117.589 91.8158 103.81 91.8158 103.81C93.3499 102.803 94.8073 101.72 96.188 100.481C97.7987 98.7006 98.7192 96.3782 98.8726 93.9785C98.7959 93.2043 98.7959 92.5076 98.9493 91.8883Z" fill="white" stroke="#263238" stroke-linecap="round" stroke-linejoin="round"/>
<path d="M33.2131 75.4768C33.2131 75.4768 34.5938 70.3676 40.2699 71.374C45.9461 72.3803 50.3949 77.1799 51.3921 78.883C52.3892 80.586 32.8296 78.1862 32.8296 78.1862L33.2131 75.4768Z" fill="white" stroke="#263238" stroke-linecap="round" stroke-linejoin="round"/>
<path d="M66.2729 120.144C66.2729 120.144 64.9689 121.614 66.2729 123.859C67.1934 125.408 68.8041 126.646 71.8723 126.104C74.7871 125.562 79.0826 118.363 79.0826 113.254C79.0826 108.145 75.4007 107.835 74.0201 108.841C72.6394 109.848 66.2729 120.144 66.2729 120.144Z" fill="white" stroke="#263238" stroke-linecap="round" stroke-linejoin="round"/>
<path d="M35.6681 74.9347C35.6681 74.9347 22.0146 81.4373 20.097 82.6759C18.1794 83.9145 16.9521 99.2421 16.9521 101.952C16.9521 104.661 18.8698 130.594 19.4067 135.007C19.9436 139.419 36.7419 142.438 42.3414 140.812C47.9408 139.187 53.3868 135.239 53.3868 133.768C53.3868 132.297 52.8499 120.376 53.2334 118.053C53.6169 115.731 56.7618 106.054 56.7618 106.054L66.3499 121.459C66.3499 121.459 67.347 123.317 70.8754 121.846C75.9379 119.756 76.3982 111.551 76.3982 111.551C76.3982 111.551 70.7987 101.642 69.1879 96.6875C67.5771 91.7332 66.8868 88.0174 66.1965 87.1658C65.5061 86.3143 49.705 78.8827 46.9436 76.9474C43.722 74.3928 39.5033 73.6961 35.6681 74.9347Z" fill="white" stroke="#263238" stroke-linecap="round" stroke-linejoin="round"/>
<path d="M56.6847 105.977L52.1592 99.3198" stroke="#263238" stroke-linecap="round" stroke-linejoin="round"/>
<path d="M55.9177 105.048L47.9404 101.1" stroke="#263238" stroke-linecap="round" stroke-linejoin="round"/>
<path d="M32.2158 155.753L39.1959 205.916C39.2726 206.381 39.6562 206.69 40.1164 206.613H40.1931C40.5766 206.535 40.8834 206.148 40.8067 205.684L35.8976 154.902L32.2158 155.753Z" fill="#263238" stroke="#263238" stroke-linecap="round" stroke-linejoin="round"/>
<path d="M12.1195 156.14L0.383676 205.452C0.306972 205.916 0.537085 206.381 0.997312 206.458H1.07402C1.45754 206.535 1.91777 206.226 1.99447 205.839L15.5712 157.998L12.1195 156.14Z" fill="#263238" stroke="#263238" stroke-linecap="round" stroke-linejoin="round"/>
<path d="M33.29 155.521L25.8496 205.607C25.7729 206.071 26.0797 206.536 26.54 206.613H26.6167C27.0002 206.613 27.3837 206.381 27.4604 205.916L36.8951 157.069L33.29 155.521Z" fill="#263238" stroke="#263238" stroke-linecap="round" stroke-linejoin="round"/>
<path d="M59.6763 155.753L66.6564 205.916C66.7331 206.381 67.1166 206.69 67.5768 206.613H67.6536C68.0371 206.535 68.3439 206.148 68.2672 205.684L63.2814 154.902L59.6763 155.753Z" fill="#263238" stroke="#263238" stroke-linecap="round" stroke-linejoin="round"/>
<path d="M0.997559 103.655L9.51176 159.546H70.0317C70.0317 159.546 70.9521 143.445 68.2675 137.793C65.5828 132.142 32.6765 144.296 31.4493 143.986C30.6055 143.754 31.9095 114.957 33.5203 103.655C33.9805 100.636 31.8328 97.7714 28.8413 97.3069C28.6112 97.3069 28.3044 97.2295 28.0743 97.2295H6.52029C3.4521 97.2295 0.997559 99.7067 0.997559 102.803C0.997559 103.113 0.997559 103.345 0.997559 103.655Z" fill="#00B533" stroke="#263238" stroke-linecap="round" stroke-linejoin="round"/>
<path d="M68.3439 137.716C65.6592 131.988 32.753 144.219 31.5257 143.909C30.6819 143.677 31.9859 114.88 33.5967 103.577C34.1337 100.636 32.216 97.8489 29.3013 97.307C26.3865 96.7651 23.6251 98.7004 23.0882 101.642C22.9348 102.339 22.9348 102.958 23.0882 103.655L31.6024 159.546H70.1848C70.1081 159.546 70.9518 143.445 68.3439 137.716Z" fill="#263238" stroke="#263238" stroke-linecap="round" stroke-linejoin="round"/>
<path d="M98.9492 91.8882C98.9492 91.8882 97.952 92.8945 96.4946 94.5976Z" fill="white"/>
<path d="M98.9492 91.8882C98.9492 91.8882 97.952 92.8945 96.4946 94.5976" stroke="#263238" stroke-linecap="round" stroke-linejoin="round"/>
<path d="M98.7956 93.8235C98.7956 93.8235 97.5683 96.2233 96.8779 97.3844Z" fill="white"/>
<path d="M98.7956 93.8235C98.7956 93.8235 97.5683 96.2233 96.8779 97.3844" stroke="#263238" stroke-linecap="round" stroke-linejoin="round"/>
</g>
<defs>
<clipPath id="clip0">
<rect width="243" height="207" fill="white"/>
</clipPath>
</defs>
</svg>
