<svg width="241" height="226" viewBox="0 0 241 226" fill="none" xmlns="http://www.w3.org/2000/svg">
<g opacity="0.08">
<path opacity="0.08" d="M2.28817 133.919C2.28817 133.919 9.96872 175.313 48.9243 197.744C87.8733 220.175 136.293 214.824 175.65 211.52C215.007 208.216 241.563 181.598 240.991 147.576C240.418 113.554 209.163 108.308 187.227 72.8184C165.291 37.3351 164.83 24.6385 127.099 6.51184C89.3673 -11.6083 38.1044 10.8757 16.1684 55.1327C-5.76094 99.3898 2.28817 133.919 2.28817 133.919Z" fill="#00B533"/>
<path opacity="0.7" d="M2.28817 133.919C2.28817 133.919 9.96872 175.313 48.9243 197.744C87.8733 220.175 136.293 214.824 175.65 211.52C215.007 208.216 241.563 181.598 240.991 147.576C240.418 113.554 209.163 108.308 187.227 72.8184C165.291 37.3351 164.83 24.6385 127.099 6.51184C89.3673 -11.6083 38.1044 10.8757 16.1684 55.1327C-5.76094 99.3898 2.28817 133.919 2.28817 133.919Z" fill="#00B533"/>
</g>
<g clip-path="url(#clip0)">
<path d="M96.3119 83.1108L73.8613 167.924L99.2579 152.751L113.734 174.094L111.905 84.8809L96.3119 83.1108Z" fill="#00B533"/>
<path d="M100.223 148.2L79.2964 160.742L98.8518 86.8027L108.604 87.9154L110.128 162.664L100.223 148.2Z" fill="white"/>
<path d="M127.347 83.7178L163.156 163.928L139.486 151.993L124.756 176.319L112.21 88.0166L127.347 83.7178Z" fill="#00B533"/>
<path d="M116.02 90.4441L125.416 87.8142L156.146 156.595L138.216 147.542L126.788 166.406L116.02 90.4441Z" fill="white"/>
<path d="M160.007 61.6168C160.007 66.0673 152.235 69.2535 150.915 73.2994C149.543 77.4465 153.911 84.5774 151.372 88.067C148.832 91.5566 140.654 89.6348 137.099 92.1635C133.543 94.6922 132.985 103.037 128.769 104.402C124.705 105.717 119.27 99.345 114.801 99.345C110.331 99.345 104.896 105.667 100.833 104.402C96.6675 103.037 96.0072 94.6922 92.5025 92.1635C88.9977 89.6348 80.82 91.5566 78.2296 88.067C75.6391 84.5774 80.0581 77.497 78.6867 73.2994C77.3661 69.2535 69.5947 66.1179 69.5947 61.6168C69.5947 57.1157 77.3661 53.9801 78.6867 49.9342C80.0581 45.7871 75.6899 38.6561 78.2296 35.1665C80.7692 31.6769 88.9469 33.5987 92.5025 31.07C96.058 28.5413 96.6167 20.1966 100.833 18.8311C104.896 17.5162 110.28 23.8379 114.801 23.8379C119.321 23.8379 124.705 17.5162 128.769 18.8311C132.934 20.1966 133.594 28.5413 137.099 31.07C140.604 33.5987 148.781 31.6769 151.372 35.1665C153.962 38.6561 149.543 45.7871 150.915 49.9342C152.235 53.9801 160.007 57.1662 160.007 61.6168Z" fill="#00B533"/>
<path opacity="0.6" d="M155.079 61.6167C155.079 65.6121 148.121 68.4442 146.953 72.035C145.734 75.7775 149.645 82.0992 147.359 85.1842C145.073 88.2693 137.81 86.5497 134.661 88.8256C131.511 91.1014 131.003 98.5358 127.245 99.7496C123.638 100.913 118.813 95.2485 114.8 95.2485C110.788 95.2485 105.962 100.862 102.407 99.699C98.6482 98.4852 98.0895 91.0508 94.9911 88.775C91.8927 86.4992 84.5785 88.2187 82.2928 85.1337C80.0071 82.0487 83.9182 75.7269 82.6992 71.9844C81.5309 68.3937 74.5723 65.5615 74.5723 61.5662C74.5723 57.5708 81.4801 54.7387 82.6992 51.1479C83.9182 47.456 80.0071 41.0837 82.2928 37.9986C84.5277 34.9136 91.8419 36.6331 94.9911 34.3573C98.1403 32.0815 98.6482 24.6471 102.407 23.4333C106.013 22.2701 110.839 27.9344 114.851 27.9344C118.864 27.9344 123.689 22.2701 127.296 23.4333C131.054 24.6471 131.613 32.0815 134.711 34.3573C137.81 36.6331 145.124 34.863 147.41 37.9986C149.695 41.1342 145.784 47.456 147.003 51.1479C148.172 54.7892 155.079 57.6214 155.079 61.6167Z" fill="white"/>
<path d="M114.852 94.9956C133.366 94.9956 148.375 80.0513 148.375 61.6167C148.375 43.182 133.366 28.2378 114.852 28.2378C96.3371 28.2378 81.3281 43.182 81.3281 61.6167C81.3281 80.0513 96.3371 94.9956 114.852 94.9956Z" fill="white"/>
<path d="M98.8516 45.9388C102.864 43.9664 106.013 42.8538 111.144 36.7849H123.639V76.435H130.191V85.7406H102.052V76.435H109.061V50.4399L102.052 53.7272L98.8516 45.9388Z" fill="#263238"/>
<path d="M212.12 97.7772C211.358 94.2875 210.952 94.4898 206.736 93.1243C202.063 91.6577 197.238 90.8485 192.362 90.6968C189.213 90.5956 186.063 90.9497 183.067 91.7588C183.067 91.7588 177.733 92.4163 173.924 93.2761C170.622 99.8001 174.33 108.752 174.33 108.752C174.33 108.752 179.003 118.917 179.003 124.126C179.003 129.335 174.99 138.439 174.838 138.692C174.686 138.944 162.546 159.933 159.448 167.064C156.349 174.195 156.299 177.077 157.975 179.909C159.651 182.742 178.597 208.686 178.597 208.686C178.597 208.686 173.517 214.502 171.181 215.969C168.844 217.435 165.949 217.688 166.965 218.953C167.981 220.217 174.686 220.672 176.514 220.268C178.343 219.863 182.508 216.222 184.895 214.553C187.282 212.884 189.467 211.721 188.552 209.647C187.638 207.574 185.657 205.753 184.794 204.084C183.93 202.415 180.984 197.61 179.308 191.693C177.632 185.776 176.413 182.185 174.483 178.949C172.552 175.712 171.232 174.498 171.232 174.498C171.232 174.498 178.394 167.974 182.203 164.636C186.013 161.298 189.416 158.618 189.416 158.618C189.416 158.618 202.368 145.367 203.536 142.485C204.704 139.602 207.854 130.499 210.19 122.558C212.527 114.618 212.882 101.267 212.12 97.7772Z" fill="#00B533" stroke="#263238" stroke-width="0.9672" stroke-linecap="round" stroke-linejoin="round"/>
<path d="M174.33 108.752C174.33 108.752 170.622 99.8002 173.924 93.2761C173.01 93.4784 172.146 93.7313 171.283 93.9842C168.133 95.1474 152.743 101.57 151.168 102.278C149.594 102.986 146.699 105.363 147.41 107.841C148.121 110.32 149.34 111.078 154.622 111.129C159.905 111.179 174.33 108.752 174.33 108.752Z" fill="#263238" stroke="#263238" stroke-width="0.9672" stroke-linecap="round" stroke-linejoin="round"/>
<path d="M163.003 63.589C163.003 63.589 167.727 65.966 167.981 66.4211C168.235 66.8763 167.879 67.7361 167.575 68.3935C167.27 69.051 165.441 70.6188 164.578 70.9728C163.714 71.3268 164.426 68.8487 164.426 67.4326C164.426 66.0166 161.987 64.8534 161.784 64.1959C161.581 63.5384 162.394 63.3361 163.003 63.589Z" fill="white" stroke="#263238" stroke-width="0.9672" stroke-linecap="round" stroke-linejoin="round"/>
<path d="M153.962 110.572L152.134 111.078C150.305 111.584 147.156 111.837 146.648 111.179C146.14 110.522 144.413 101.772 144.667 96.8667C144.921 91.961 152.235 71.1245 153.048 69.5567C153.861 67.9889 161.022 62.8809 161.022 62.8809C161.022 62.8809 161.937 62.628 163.003 63.6395C164.07 64.651 167.168 66.7245 167.016 67.5337C166.864 68.3429 165.086 70.8716 164.375 71.529C163.664 72.1865 162.445 71.529 162.445 71.529C162.445 71.529 161.53 73.0968 160.362 73.6026C159.194 74.1083 156.451 73.5014 156.451 73.5014C156.451 73.5014 154.216 87.4093 154.876 92.7196C155.537 98.0299 156.857 104.2 155.892 107.184" fill="#263238"/>
<path d="M153.962 110.572L152.134 111.078C150.305 111.584 147.156 111.837 146.648 111.179C146.14 110.522 144.413 101.772 144.667 96.8667C144.921 91.961 152.235 71.1245 153.048 69.5567C153.861 67.9889 161.022 62.8809 161.022 62.8809C161.022 62.8809 161.937 62.628 163.003 63.6395C164.07 64.651 167.168 66.7245 167.016 67.5337C166.864 68.3429 165.086 70.8716 164.375 71.529C163.664 72.1865 162.445 71.529 162.445 71.529C162.445 71.529 161.53 73.0968 160.362 73.6026C159.194 74.1083 156.451 73.5014 156.451 73.5014C156.451 73.5014 154.216 87.4093 154.876 92.7196C155.537 98.0299 156.857 104.2 155.892 107.184" stroke="#263238" stroke-width="0.9672" stroke-linecap="round" stroke-linejoin="round"/>
<path d="M160.362 73.5015C161.53 72.9958 162.444 71.428 162.444 71.428C162.444 71.428 163.613 72.0854 164.375 71.428C165.136 70.7705 166.863 68.2924 167.016 67.4326C167.168 66.5729 164.121 64.5499 163.003 63.5384C161.886 62.5269 161.022 62.7798 161.022 62.7798C161.022 62.7798 153.86 67.8878 153.048 69.4556C152.845 69.8602 152.286 71.3774 151.473 73.5015C152.845 74.4624 154.47 75.0693 156.146 75.2716C156.298 74.0578 156.451 73.3498 156.451 73.3498C156.451 73.3498 159.194 74.0073 160.362 73.5015Z" fill="white" stroke="#263238" stroke-width="0.9672" stroke-linecap="round" stroke-linejoin="round"/>
<path d="M167.727 68.2418C167.727 68.2418 168.895 68.5453 168.54 69.405C168.184 70.2648 166.965 71.1246 166.203 71.074C165.441 71.0234 165.289 70.0119 165.797 69.1522C166.305 68.2924 167.321 67.8878 167.727 68.2418Z" fill="white" stroke="#263238" stroke-width="0.9672" stroke-linecap="round" stroke-linejoin="round"/>
<path d="M162.445 71.4785C162.445 71.4785 161.784 70.7199 162.191 70.1636C162.597 69.6073 163.461 70.0119 163.461 70.0119L162.191 68.4441" stroke="#263238" stroke-width="0.9672" stroke-linecap="round" stroke-linejoin="round"/>
<path d="M172.298 131.864C174.907 131.864 177.022 129.758 177.022 127.161C177.022 124.563 174.907 122.457 172.298 122.457C169.69 122.457 167.575 124.563 167.575 127.161C167.575 129.758 169.69 131.864 172.298 131.864Z" fill="white" stroke="#263238" stroke-width="0.9672" stroke-linecap="round" stroke-linejoin="round"/>
<path d="M171.08 122.558C172.095 119.878 174.229 117.804 176.921 116.843C181.594 115.124 189.162 113.303 193.53 107.588C197.898 101.873 196.324 90.8989 196.324 90.8989L199.727 91.3541C199.727 91.3541 199.27 102.329 197.086 108.145C194.902 113.961 188.248 117.248 182.914 118.158C177.581 119.069 173.264 118.968 171.08 122.558Z" fill="white" stroke="#263238" stroke-width="0.9672" stroke-linecap="round" stroke-linejoin="round"/>
<path d="M171.08 122.558C171.08 122.558 170.521 118.816 173.924 114.922C177.327 111.028 182.762 106.729 183.676 102.733C184.591 98.7381 183.575 91.8094 183.575 91.8094L186.521 91.0002C187.333 94.6416 187.333 98.3841 186.622 102.025C185.352 107.639 182.254 110.37 178.394 113.303C174.533 116.237 171.08 122.558 171.08 122.558Z" fill="white" stroke="#263238" stroke-width="0.9672" stroke-linecap="round" stroke-linejoin="round"/>
<path d="M208.717 94.7932C206.736 96.4116 205.517 98.7886 205.314 101.317C204.958 105.616 205.72 116.945 205.72 121.446C205.72 125.947 202.419 132.623 202.876 136.112C203.333 139.602 207.955 143.698 210.444 141.018C212.933 138.338 214.863 129.538 215.777 118.158C216.692 106.779 215.93 99.1932 214.508 96.9173C213.085 94.6415 210.8 93.0737 208.717 94.7932Z" fill="#263238" stroke="#263238" stroke-width="0.9672" stroke-linecap="round" stroke-linejoin="round"/>
<path d="M211.46 137.579C210.952 140.411 209.377 143.142 207.701 143.698C206.025 144.255 204.146 141.979 201.454 137.68C198.762 133.381 197.39 128.678 196.374 123.722C195.46 119.17 194.8 114.618 194.393 110.016C194.292 108.094 194.393 107.589 195.46 106.476C196.527 105.363 200.438 104.402 200.438 104.402L201.098 103.239C201.403 102.683 203.181 102.329 203.993 102.835C204.806 103.34 205.263 106.071 205.263 106.071C205.263 106.071 207.6 107.386 207.6 108.701C207.6 110.016 206.076 111.432 204.451 113.657C202.825 115.883 202.317 115.074 202.114 117.147C201.911 119.221 203.13 121.952 205.162 123.823C207.193 125.694 210.241 128.02 211.054 131.763" fill="#263238"/>
<path d="M211.46 137.579C210.952 140.411 209.377 143.142 207.701 143.698C206.025 144.255 204.146 141.979 201.454 137.68C198.762 133.381 197.39 128.678 196.374 123.722C195.46 119.17 194.8 114.618 194.393 110.016C194.292 108.094 194.393 107.589 195.46 106.476C196.527 105.363 200.438 104.402 200.438 104.402L201.098 103.239C201.403 102.683 203.181 102.329 203.993 102.835C204.806 103.34 205.263 106.071 205.263 106.071C205.263 106.071 207.6 107.386 207.6 108.701C207.6 110.016 206.076 111.432 204.451 113.657C202.825 115.883 202.317 115.074 202.114 117.147C201.911 119.221 203.13 121.952 205.162 123.823C207.193 125.694 210.241 128.02 211.054 131.763" stroke="#263238" stroke-width="0.9672" stroke-linecap="round" stroke-linejoin="round"/>
<path d="M202.165 117.501C202.165 117.349 202.165 117.197 202.165 117.046C202.317 114.972 202.825 115.781 204.501 113.556C206.178 111.331 207.651 109.915 207.651 108.6C207.651 107.285 205.314 105.97 205.314 105.97C205.314 105.97 204.908 103.239 204.044 102.733C203.181 102.228 201.454 102.582 201.149 103.138L200.489 104.301C200.489 104.301 196.578 105.211 195.511 106.375C194.444 107.538 194.343 108.044 194.444 109.915C194.495 111.129 194.901 114.466 195.46 118.007C197.644 118.462 199.981 118.26 202.165 117.501Z" fill="white" stroke="#263238" stroke-width="0.9672" stroke-linecap="round" stroke-linejoin="round"/>
<path d="M203.689 142.282C193.682 138.944 181.289 137.377 175.702 136.77C175.244 137.933 174.889 138.641 174.838 138.742C174.686 138.995 162.546 159.983 159.448 167.114C156.349 174.245 156.299 177.128 157.975 179.96C159.651 182.792 178.597 208.737 178.597 208.737C181.644 208.383 184.387 206.309 185.555 205.298C185.301 204.944 185.048 204.539 184.844 204.185C184.032 202.516 181.035 197.712 179.359 191.794C177.683 185.877 176.463 182.286 174.533 179.05C172.603 175.813 171.283 174.599 171.283 174.599C171.283 174.599 178.444 168.075 182.254 164.737C186.063 161.399 189.467 158.719 189.467 158.719C189.467 158.719 202.419 145.469 203.587 142.586C203.587 142.434 203.638 142.333 203.689 142.282Z" fill="#263238" stroke="#263238" stroke-width="0.9672" stroke-linecap="round" stroke-linejoin="round"/>
<path d="M185.505 205.298C184.54 207.118 180.578 210.557 180.578 210.557C180.578 210.557 179.562 209.495 179.003 208.737C178.546 208.18 178.394 208.332 178.343 208.433L178.597 208.737C178.597 208.737 173.518 214.553 171.181 216.019C168.845 217.486 165.949 217.739 166.965 219.003C167.981 220.268 174.686 220.723 176.514 220.318C178.343 219.914 182.508 216.272 184.895 214.603C187.283 212.934 189.467 211.771 188.552 209.698C187.791 208.079 186.47 206.663 185.505 205.298Z" fill="#00B533" stroke="#263238" stroke-width="0.9672" stroke-linecap="round" stroke-linejoin="round"/>
<path d="M175.143 219.307C173.416 219.762 168.794 218.801 166.762 218.295C166.661 218.548 166.711 218.801 166.915 218.953C167.93 220.217 174.635 220.672 176.464 220.268C178.292 219.863 182.457 216.222 184.845 214.553C187.232 212.884 189.416 211.721 188.502 209.647C188.4 209.394 188.248 209.192 188.146 208.939C187.689 209.495 187.181 210.153 186.673 210.81C185.2 212.681 177.378 218.7 175.143 219.307Z" fill="white" stroke="#263238" stroke-width="0.9672" stroke-linecap="round" stroke-linejoin="round"/>
<path d="M198.609 146.429C198.609 146.429 191.346 139.956 184.337 137.68C177.327 135.404 164.121 136.011 160.819 137.377C157.518 138.742 158.889 142.94 158.991 147.795C159.092 152.65 162.394 161.703 163.816 166.811C165.238 171.919 165.746 177.633 165.899 179.656C166.051 181.679 166.051 182.387 166.051 182.387C166.051 182.387 156.807 182.286 154.419 182.084C152.032 181.882 150.61 182.59 150.204 183.399C149.95 183.804 149.848 184.309 149.95 184.815C149.95 184.815 156.197 188.861 161.581 191.086C166.965 193.311 172.146 194.728 172.807 194.374C173.467 194.02 174.127 189.013 174.127 185.523C174.127 182.033 175.194 165.344 175.194 162.36V154.673C175.194 154.673 191.295 163.22 197.695 161.197C204.095 159.174 203.689 142.333 203.689 142.333L198.508 140.714" fill="#263238"/>
<path d="M198.609 146.429C198.609 146.429 191.346 139.956 184.337 137.68C177.327 135.404 164.121 136.011 160.819 137.377C157.518 138.742 158.889 142.94 158.991 147.795C159.092 152.65 162.394 161.703 163.816 166.811C165.238 171.919 165.746 177.633 165.899 179.656C166.051 181.679 166.051 182.387 166.051 182.387C166.051 182.387 156.807 182.286 154.419 182.084C152.032 181.882 150.61 182.59 150.204 183.399C149.95 183.804 149.848 184.309 149.95 184.815C149.95 184.815 156.197 188.861 161.581 191.086C166.965 193.311 172.146 194.728 172.807 194.374C173.467 194.02 174.127 189.013 174.127 185.523C174.127 182.033 175.194 165.344 175.194 162.36V154.673C175.194 154.673 191.295 163.22 197.695 161.197C204.095 159.174 203.689 142.333 203.689 142.333L198.508 140.714" stroke="#263238" stroke-width="0.9672" stroke-linecap="round" stroke-linejoin="round"/>
<path d="M166 182.337C166 182.337 156.756 182.236 154.369 182.034C151.981 181.831 150.559 182.539 150.153 183.349C149.899 183.753 149.797 184.259 149.899 184.765C149.899 184.765 156.146 188.811 161.53 191.036C166.915 193.261 172.095 194.677 172.756 194.323C173.314 194.02 173.924 190.075 174.076 186.788C170.622 183.854 166 182.337 166 182.337Z" fill="#00B533" stroke="#263238" stroke-width="0.9672" stroke-linecap="round" stroke-linejoin="round"/>
<path d="M172.756 194.323C173.01 194.222 173.264 193.312 173.518 192.148C170.622 191.946 167.778 191.289 165.035 190.277C160.362 188.507 152.692 184.815 150.051 183.5C149.899 183.854 149.797 184.309 149.899 184.714C149.899 184.714 156.146 188.76 161.53 190.985C166.915 193.21 172.095 194.627 172.756 194.323Z" fill="white" stroke="#263238" stroke-width="0.9672" stroke-linecap="round" stroke-linejoin="round"/>
<path d="M175.143 154.622C175.143 154.622 175.041 147.441 171.384 143.85" stroke="#263238" stroke-width="0.9672" stroke-linecap="round" stroke-linejoin="round"/>
<path d="M169.505 82.8072C169.505 82.8072 171.486 89.2807 172.349 91.5565C173.213 93.8324 173.314 95.0967 176.057 97.7266C178.8 100.356 179.359 102.379 182.254 102.632C185.149 102.885 186.216 101.115 186.216 101.115C186.216 101.115 186.622 103.694 188.095 104.504C189.568 105.313 192.92 105.464 195.003 101.418C197.085 97.3726 195.816 95.4507 195.104 93.5289C194.393 91.6071 193.428 89.2807 193.428 89.2807C194.444 87.8646 195.003 86.1451 194.952 84.375C194.8 81.644 193.987 81.29 193.124 81.0371C192.26 80.7843 189.822 82.3521 188.755 81.8969C187.689 81.4417 189.466 78.7613 186.673 78.5084C183.879 78.2556 181.035 82.0486 176.057 82.4532C171.079 82.8578 169.302 81.3406 169.505 82.8072Z" fill="white" stroke="#263238" stroke-width="0.9672" stroke-linecap="round" stroke-linejoin="round"/>
<path d="M186.165 101.115L190.686 96.0575C192.667 93.8322 192.667 90.5449 192.667 90.5449" fill="white"/>
<path d="M186.165 101.115L190.686 96.0575C192.667 93.8322 192.667 90.5449 192.667 90.5449" stroke="#263238" stroke-width="0.9672" stroke-linecap="round" stroke-linejoin="round"/>
<path d="M177.327 90.5449C177.327 90.5449 177.886 93.0736 177.327 94.338C176.769 95.6023 177.226 96.2598 178.191 96.3104C178.648 96.4115 179.105 96.3104 179.511 96.1586" stroke="#263238" stroke-width="0.9672" stroke-linecap="round" stroke-linejoin="round"/>
<path d="M180.222 90.798C180.222 90.798 180.781 89.129 183.371 89.6347" stroke="#263238" stroke-width="1.9344" stroke-linecap="round" stroke-linejoin="round"/>
<path d="M173.67 91.2532C173.67 91.2532 175.194 90.3934 176.26 91.5566" stroke="#263238" stroke-width="1.9344" stroke-linecap="round" stroke-linejoin="round"/>
<path d="M172.298 88.7245C172.298 88.7245 174.127 86.9039 176.26 89.736" stroke="#263238" stroke-width="0.9672" stroke-linecap="round" stroke-linejoin="round"/>
<path d="M178.8 88.9772C178.8 88.9772 179.664 86.0439 182.356 86.4485" stroke="#263238" stroke-width="0.9672" stroke-linecap="round" stroke-linejoin="round"/>
<path d="M181.289 96.9174C181.289 96.9174 185.403 96.1082 186.216 91.3037C186.216 91.3037 188.248 94.5404 186.826 97.1703C185.403 99.8002 183.524 99.3956 183.524 99.3956L181.289 96.9174Z" stroke="#263238" stroke-width="0.9672" stroke-linecap="round" stroke-linejoin="round"/>
<path d="M172.146 73.7038C172.146 73.7038 174.228 70.8717 171.892 71.2763C169.555 71.6809 165.797 76.0808 166.254 80.2785C166.711 84.4761 175.194 85.3865 179.308 84.7796C181.797 84.375 184.082 83.2623 185.86 81.5428C185.86 81.5428 184.336 84.7796 185.962 85.1842C187.587 85.5888 188.349 85.1842 188.349 85.1842C188.349 85.1842 189.873 88.5726 190.33 87.5611C190.787 86.5497 190.228 85.7405 190.482 84.4256C191.092 81.3405 193.428 81.4417 193.428 81.4417C193.428 81.4417 193.835 73.805 190.99 70.8211C188.146 67.8373 180.679 67.4832 177.581 69.1016C174.482 70.72 172.146 73.7038 172.146 73.7038Z" fill="#263238" stroke="#263238" stroke-width="0.9672" stroke-linecap="round" stroke-linejoin="round"/>
<path d="M20.9858 205.702C20.9858 205.702 14.789 208.888 12.3002 211.771C9.8113 214.654 12.6049 216.626 17.6842 214.957C22.7636 213.288 24.5921 206.208 24.5921 206.208C24.5921 206.208 22.8651 204.792 20.9858 205.702Z" fill="#00B533" stroke="#263238" stroke-width="0.9672" stroke-linecap="round" stroke-linejoin="round"/>
<path d="M86.8138 205.702C86.8138 205.702 93.0106 208.888 95.4995 211.771C97.9883 214.654 95.1947 216.626 90.1154 214.957C85.0361 213.288 83.2075 206.208 83.2075 206.208C83.2075 206.208 84.9853 204.792 86.8138 205.702Z" fill="#00B533" stroke="#263238" stroke-width="0.9672" stroke-linecap="round" stroke-linejoin="round"/>
<path d="M47.754 75.2717L47.6524 80.7843C45.3667 80.228 43.081 79.5705 40.8461 78.8119C37.189 77.497 36.2747 78.6602 34.0906 80.4809C31.9065 82.3015 21.6971 94.0347 20.6304 95.0462C19.5638 96.0577 16.2114 101.115 16.2114 103.745C16.2114 106.375 18.2939 108.145 22.4082 105.97C26.5224 103.796 34.0906 97.8278 34.0906 97.8278C34.0906 97.8278 38.0017 109.409 38.0525 111.382C38.1033 113.354 35.3605 117.703 33.9382 121.648C32.516 125.593 31.8049 136.669 30.8399 140.462C29.8748 144.255 27.3351 148.25 25.3542 158.365C23.3733 168.48 23.2209 176.268 22.7637 178.241C22.3066 180.213 21.6971 187.748 20.986 193.716C20.2749 199.684 19.8177 206.208 20.5796 206.916C21.3415 207.624 23.5764 208.079 24.6431 206.916C25.7098 205.753 33.7351 185.523 35.3605 180.87C36.9858 176.218 47.8556 155.179 48.7699 152.802C49.6841 150.425 51.3603 147.188 51.3603 147.188C51.3603 147.188 56.9984 157.707 58.9285 162.967C60.8586 168.227 71.322 188.507 74.2172 193.817C77.1125 199.128 81.887 206.208 83.1568 206.916C84.4267 207.624 86.56 207.169 86.7632 205.803C86.9663 204.438 84.833 183.349 83.2076 179.404C81.5822 175.459 80.5156 173.234 80.0585 170.351C79.6013 167.468 75.1823 143.749 73.0998 139.4C71.0173 135.05 70.7125 134.241 70.6617 133.988C70.6109 133.735 69.1379 128.678 67.0046 123.469C64.8713 118.26 62.484 113.657 62.484 113.657L66.3951 102.986C66.3951 102.986 72.1347 114.821 74.8268 117.299C77.5188 119.827 86.2044 130.65 86.2044 130.65L88.9473 127.919L80.0585 112.747C80.0585 112.747 78.1283 102.936 75.8426 96.7657C73.5569 90.5957 71.8808 86.044 68.884 84.6279C65.8872 83.2119 59.4872 82.8578 58.319 82.4027C57.1507 81.9475 57.5571 81.5429 57.4555 81.3406C57.3539 81.1383 57.8618 76.0303 57.8618 76.0303C57.8618 76.0303 53.5952 77.497 51.5635 76.8901C50.3444 76.3338 49.0238 75.828 47.754 75.2717Z" fill="#263238" stroke="#263238" stroke-width="0.9672" stroke-linecap="round" stroke-linejoin="round"/>
<path d="M62.5345 113.556L66.4456 102.885C66.4456 102.885 64.3631 88.421 60.452 82.7062C59.7409 82.6556 59.0806 82.5039 58.4203 82.3016C57.252 81.8464 57.6584 81.4418 57.5568 81.2395C57.4552 81.0372 57.9631 75.9292 57.9631 75.9292C57.9631 75.9292 53.6965 77.3959 51.6648 76.7384C50.3441 76.3338 49.0235 75.8281 47.7537 75.2212L47.6521 80.7338C47.6521 80.7338 46.6362 80.5315 45.0617 80.0763C43.3855 82.2004 36.5792 91.152 34.1411 97.7267C34.1411 97.7267 38.0522 109.308 38.103 111.281C38.1538 112.697 36.7316 115.377 35.3602 118.26C37.849 119.929 42.3188 121.901 49.5822 122.002C58.3187 122.154 62.9917 120.182 65.0742 118.867C63.7028 115.832 62.5345 113.556 62.5345 113.556Z" fill="#00B533" stroke="#263238" stroke-width="0.9672" stroke-linecap="round" stroke-linejoin="round"/>
<path d="M57.3539 88.421C58.8777 86.9543 59.3348 84.6785 59.3348 82.5038C59.0301 82.4533 58.7253 82.4027 58.4206 82.3015C57.2523 81.8464 57.6587 81.4418 57.5571 81.2395C57.4555 81.0372 57.9634 75.9292 57.9634 75.9292C57.9634 75.9292 53.6968 77.3958 51.6651 76.789C50.3444 76.3844 49.0238 75.8786 47.754 75.2717L47.6524 80.7843C47.6524 80.7843 47.3476 80.7337 46.7889 80.582C46.3826 82.2004 45.5699 86.5498 48.2111 88.9267C50.7508 91.152 55.0174 90.6968 57.3539 88.421Z" fill="white"/>
<path d="M44.8585 79.9751C44.8585 79.9751 44.6553 85.69 43.1823 88.8256C41.7093 91.9612 40.1855 92.4163 40.1855 92.4163C40.7951 92.8209 41.4554 93.1244 42.1157 93.4278C43.3347 93.9336 43.5887 93.7313 43.5887 93.7313C43.5887 93.7313 45.8744 92.2646 46.941 88.4716C47.6014 85.9428 47.8553 83.3636 47.7029 80.7843L44.8585 79.9751Z" fill="white" stroke="#263238" stroke-width="0.9672" stroke-linecap="round" stroke-linejoin="round"/>
<path d="M49.1761 50.7433C49.1761 50.7433 49.0746 48.164 53.7983 46.8996C58.5221 45.6353 62.6363 49.3778 63.0427 51.8559C63.449 54.334 62.6363 55.6995 62.0776 55.9018C61.5189 56.1041 58.9792 53.5754 55.2713 52.3616C51.5634 51.1478 48.6682 51.9065 49.1761 50.7433Z" fill="#263238" stroke="#263238" stroke-width="0.9672" stroke-linecap="round" stroke-linejoin="round"/>
<path d="M44.3507 63.3363C44.3507 63.3363 43.792 61.6168 42.319 62.6789C40.846 63.7409 41.5571 66.9776 42.2174 67.9386C42.8777 68.8995 44.2492 68.8995 44.5031 68.242C44.7571 67.5845 44.8079 63.7409 44.8079 63.7409" fill="white"/>
<path d="M44.3507 63.3363C44.3507 63.3363 43.792 61.6168 42.319 62.6789C40.846 63.7409 41.5571 66.9776 42.2174 67.9386C42.8777 68.8995 44.2492 68.8995 44.5031 68.242C44.7571 67.5845 44.8079 63.7409 44.8079 63.7409" stroke="#263238" stroke-width="0.9672" stroke-linecap="round" stroke-linejoin="round"/>
<path d="M44.1473 54.9914C44.1473 54.9914 42.5219 57.3684 43.2838 59.7959C44.0457 62.2235 43.6902 63.8924 43.6902 66.674C43.6902 69.4556 45.7219 73.1981 47.0425 75.4739C48.3631 77.7497 51.0552 80.4807 53.9504 79.621C56.8456 78.7612 61.0614 72.7429 61.8741 69.9613C62.6868 67.1798 62.3313 66.5223 62.8392 65.3591C63.6519 63.3361 64.0582 61.1109 64.0075 58.9362C64.0075 55.8006 60.2488 51.5524 55.6266 50.2374C51.0044 48.9225 45.8743 50.288 44.1473 54.9914Z" fill="white" stroke="#263238" stroke-width="0.9672" stroke-linecap="round" stroke-linejoin="round"/>
<path d="M61.671 66.1177C61.671 66.1177 62.4329 63.7913 63.9059 64.4993C65.3789 65.2074 64.7694 68.697 63.6011 69.759C62.4329 70.8211 61.2139 70.3154 61.2139 69.6579" fill="white"/>
<path d="M61.671 66.1177C61.671 66.1177 62.4329 63.7913 63.9059 64.4993C65.3789 65.2074 64.7694 68.697 63.6011 69.759C62.4329 70.8211 61.2139 70.3154 61.2139 69.6579" stroke="#263238" stroke-width="0.9672" stroke-linecap="round" stroke-linejoin="round"/>
<path d="M50.8013 69.1523C51.7663 70.1133 53.3409 70.1638 54.3568 69.2535" stroke="#263238" stroke-width="0.9672" stroke-linecap="round" stroke-linejoin="round"/>
<path d="M49.938 71.428C49.938 71.428 52.2745 73.451 55.4744 71.3774" stroke="#263238" stroke-width="0.9672" stroke-linecap="round" stroke-linejoin="round"/>
<path d="M49.2267 66.8258C49.6195 66.8258 49.9378 66.3277 49.9378 65.7132C49.9378 65.0987 49.6195 64.6006 49.2267 64.6006C48.834 64.6006 48.5156 65.0987 48.5156 65.7132C48.5156 66.3277 48.834 66.8258 49.2267 66.8258Z" fill="#263238"/>
<path d="M56.1349 66.8258C56.5277 66.8258 56.846 66.3277 56.846 65.7132C56.846 65.0987 56.5277 64.6006 56.1349 64.6006C55.7422 64.6006 55.4238 65.0987 55.4238 65.7132C55.4238 66.3277 55.7422 66.8258 56.1349 66.8258Z" fill="#263238"/>
<path d="M47.2969 62.9317C48.2619 62.0719 49.5826 61.819 50.7508 62.2742" stroke="#263238" stroke-width="0.9672" stroke-linecap="round" stroke-linejoin="round"/>
<path d="M54.4077 62.5269C54.4077 62.5269 56.9982 61.4143 58.4204 63.6396" stroke="#263238" stroke-width="0.9672" stroke-linecap="round" stroke-linejoin="round"/>
<path d="M55.6266 50.2881C51.0044 48.9226 45.9251 50.2881 44.1981 54.9915C44.1981 54.9915 42.5727 57.3685 43.3346 59.796C43.5886 60.5547 43.741 61.3638 43.7917 62.1225L43.9441 62.2742C44.5029 61.6167 44.9092 60.8075 45.0108 59.9478C45.214 58.5317 48.3631 54.8904 53.5948 55.2444C58.8265 55.5984 61.2646 59.2903 61.7725 61.6673C62.2805 64.0443 61.0106 65.7638 62.9408 65.4098C63.7535 63.3868 64.1598 61.1615 64.109 58.9869C64.0074 55.8513 60.2487 51.6536 55.6266 50.2881Z" fill="#263238" stroke="#263238" stroke-width="0.9672" stroke-linecap="round" stroke-linejoin="round"/>
<path d="M88.9977 127.818L93.9754 128.83C94.3818 128.931 94.7373 129.133 94.9913 129.436C95.804 130.499 97.7341 132.876 97.8865 133.584C98.0897 134.494 98.0897 134.747 97.8357 134.747C97.4294 134.747 97.023 134.696 96.6167 134.595C96.2104 134.544 94.7881 132.471 93.6199 132.37C92.5024 132.218 91.385 131.915 90.3183 131.51C90.3183 131.51 92.7564 133.331 93.3151 133.786C93.8739 134.241 93.7723 134.494 93.3659 134.646C92.9596 134.797 92.4517 134.595 91.8929 134.342C91.3342 134.089 91.131 134.039 89.3025 133.28C87.4739 132.521 86.2549 130.549 86.2549 130.549L88.9977 127.818Z" fill="white" stroke="#263238" stroke-width="0.9672" stroke-linecap="round" stroke-linejoin="round"/>
<path d="M49.2777 94.844C50.0904 95.4003 51.1063 95.6026 52.0205 95.4003C53.5443 94.9957 57.6586 92.0624 60.1982 88.6739C62.7379 85.2855 63.8553 83.4142 63.8553 83.4142L59.7919 82.2004C59.7919 82.2004 57.6586 87.9659 54.8142 90.4946C51.9697 93.0233 47.7539 94.2371 47.7539 94.2371L49.2777 94.844Z" fill="white" stroke="#263238" stroke-width="0.9672" stroke-linecap="round" stroke-linejoin="round"/>
<path d="M30.3824 67.6351C30.3824 67.6351 48.4648 94.3888 49.2775 94.844C49.6838 95.0463 50.0902 95.2486 50.4965 95.4509C50.4965 95.4509 46.2299 95.4509 45.0108 94.4394C43.7918 93.4279 33.9887 75.3224 33.1252 73.35C32.4649 71.8328 31.703 70.3661 30.8395 68.95L30.0776 67.4834L30.3824 67.6351Z" fill="white" stroke="#263238" stroke-width="0.9672" stroke-linecap="round" stroke-linejoin="round"/>
<path d="M30.3828 67.635C30.3828 67.635 37.9002 89.129 38.5097 90.6462C39.1192 92.1634 41.2526 93.3772 42.4208 93.5289L43.589 93.6806C43.589 93.6806 38.1542 84.8302 35.7669 79.5199C33.3796 74.2096 30.3828 67.635 30.3828 67.635Z" fill="white" stroke="#263238" stroke-width="0.9672" stroke-linecap="round" stroke-linejoin="round"/>
<path d="M28.3507 68.5454C30.9596 68.5454 33.0745 66.4397 33.0745 63.8421C33.0745 61.2445 30.9596 59.1387 28.3507 59.1387C25.7419 59.1387 23.627 61.2445 23.627 63.8421C23.627 66.4397 25.7419 68.5454 28.3507 68.5454Z" fill="white" stroke="#263238" stroke-width="0.9672" stroke-linecap="round" stroke-linejoin="round"/>
<path d="M23.9824 104.959C21.5443 106.274 16.719 109.308 15.8047 107.943C14.8904 106.577 15.0428 98.7888 17.2777 94.136C19.5126 89.4832 23.4745 81.189 23.6269 79.7729C23.7792 78.3569 23.4237 68.8995 23.5761 68.4949C23.7285 68.0903 27.6903 65.9662 27.6903 65.9662C28.0967 65.8651 28.5538 66.0674 28.8078 66.4214C29.2141 67.0788 30.9411 68.9501 30.8903 69.4558C30.8395 69.9616 30.7379 70.3662 30.7379 70.3662C30.7379 70.3662 31.8046 70.9731 31.4998 71.934C31.195 72.8949 30.7887 75.8787 30.1792 76.2833C29.6713 76.5362 29.1633 76.5868 28.6046 76.4856C28.5538 77.1937 28.3506 77.9017 27.9951 78.5086C27.5379 79.2166 27.0808 79.6212 27.03 79.8235C26.9792 80.0258 25.557 102.43 24.7951 103.189" fill="#263238"/>
<path d="M23.9824 104.959C21.5443 106.274 16.719 109.308 15.8047 107.943C14.8904 106.577 15.0428 98.7888 17.2777 94.136C19.5126 89.4832 23.4745 81.189 23.6269 79.7729C23.7792 78.3569 23.4237 68.8995 23.5761 68.4949C23.7285 68.0903 27.6903 65.9662 27.6903 65.9662C28.0967 65.8651 28.5538 66.0674 28.8078 66.4214C29.2141 67.0788 30.9411 68.9501 30.8903 69.4558C30.8395 69.9616 30.7379 70.3662 30.7379 70.3662C30.7379 70.3662 31.8046 70.9731 31.4998 71.934C31.195 72.8949 30.7887 75.8787 30.1792 76.2833C29.6713 76.5362 29.1633 76.5868 28.6046 76.4856C28.5538 77.1937 28.3506 77.9017 27.9951 78.5086C27.5379 79.2166 27.0808 79.6212 27.03 79.8235C26.9792 80.0258 25.557 102.43 24.7951 103.189" stroke="#263238" stroke-width="0.9672" stroke-linecap="round" stroke-linejoin="round"/>
<path d="M30.6873 70.3662C30.6873 70.3662 30.7381 69.9616 30.8397 69.4558C30.9413 68.9501 29.1635 67.0788 28.7572 66.4214C28.5032 66.0674 28.0969 65.8651 27.6398 65.9662C27.6398 65.9662 23.6779 68.0903 23.5255 68.4949C23.3731 68.8995 23.6779 76.5362 23.6271 79.1155C24.5922 79.8741 25.862 80.1775 27.0302 79.8235C27.0302 79.7729 27.0302 79.7729 27.0302 79.7224C27.081 79.5201 27.5382 79.1661 27.9953 78.4074C28.3001 77.8006 28.5032 77.0925 28.6048 76.3845C29.1128 76.4856 29.6715 76.4351 30.1794 76.1822C30.7889 75.7776 31.1953 72.7937 31.5 71.8328C31.8048 70.8719 30.6873 70.3662 30.6873 70.3662Z" fill="white" stroke="#263238" stroke-width="0.9672" stroke-linecap="round" stroke-linejoin="round"/>
<path d="M30.6873 70.3659L27.3857 69.051" stroke="#263238" stroke-width="0.9672" stroke-linecap="round" stroke-linejoin="round"/>
<path d="M26.9795 70.8716C26.9795 70.8716 30.4334 71.6302 30.7382 72.1865C30.9414 72.5405 31.0429 72.9451 31.0429 73.3497" stroke="#263238" stroke-width="0.9672" stroke-linecap="round" stroke-linejoin="round"/>
<path d="M27.1826 72.7429C27.1826 72.7429 29.7731 73.2992 30.1794 73.6533C30.5858 74.0073 30.6366 75.3222 30.6366 75.3222" stroke="#263238" stroke-width="0.9672" stroke-linecap="round" stroke-linejoin="round"/>
<path d="M28.605 76.4348V75.4234L29.3161 75.3728" stroke="#263238" stroke-width="0.9672" stroke-linecap="round" stroke-linejoin="round"/>
<path d="M49.2268 122.558L48.3125 135.05L49.7855 135.303C49.7855 135.303 49.7347 122.103 49.2268 122.558Z" fill="white" stroke="#263238" stroke-width="0.9672" stroke-linecap="round" stroke-linejoin="round"/>
<path d="M50.1411 123.014L50.5983 136.871L52.8839 136.82L50.649 123.165C50.649 123.165 50.2935 121.85 50.1411 123.014Z" fill="white" stroke="#263238" stroke-width="0.9672" stroke-linecap="round" stroke-linejoin="round"/>
<path d="M89.1504 11.9529L91.7408 14.5322L93.2138 12.2058L89.1504 11.9529Z" fill="#9C9C9C"/>
<path d="M56.4395 16.2517L59.0807 18.831L60.5029 16.5552L56.4395 16.2517Z" fill="#9C9C9C"/>
<path d="M35.9189 5.78296L38.5094 8.36224L39.9824 6.0864L35.9189 5.78296Z" fill="#9C9C9C"/>
<path d="M118.61 25.7595L116.985 29.0468L119.626 29.7043L118.61 25.7595Z" fill="#9C9C9C"/>
<path d="M143.651 2.59668L142.026 5.88399L144.616 6.54146L143.651 2.59668Z" fill="#9C9C9C"/>
<path d="M89.3535 31.1711L86.8138 28.5413L85.29 30.8171L89.3535 31.1711Z" fill="#00B533"/>
<path d="M74.3691 32.1826L71.8295 29.5527L70.3057 31.778L74.3691 32.1826Z" fill="#00B533"/>
<path d="M106.623 20.4494L109.62 18.3253L107.588 16.5046L106.623 20.4494Z" fill="#00B533"/>
<path d="M72.998 9.87935L75.9948 7.75524L73.9631 5.93457L72.998 9.87935Z" fill="#00B533"/>
<path d="M130.14 28.7941L133.137 26.67L131.156 24.8999L130.14 28.7941Z" fill="#00B533"/>
<path d="M10.6239 30.5642L8.94775 33.8515L11.589 34.509L10.6239 30.5642Z" fill="#9C9C9C"/>
<path d="M27.2841 32.9917L25.6587 36.279L28.2999 36.9365L27.2841 32.9917Z" fill="#9C9C9C"/>
<path d="M18.1411 21.8149L15.6014 19.1851L14.1284 21.4103L18.1411 21.8149Z" fill="#00B533"/>
<path d="M88.1851 47.6076L91.1818 45.4835L89.1501 43.6628L88.1851 47.6076Z" fill="#00B533"/>
<path d="M167.778 22.0679L170.368 24.6472L171.79 22.3713L167.778 22.0679Z" fill="#9C9C9C"/>
<path d="M197.238 28.7942L195.562 32.0309L198.203 32.6884L197.238 28.7942Z" fill="#9C9C9C"/>
<path d="M157.467 11.4473L155.842 14.7346L158.432 15.392L157.467 11.4473Z" fill="#9C9C9C"/>
<path d="M213.898 31.2217L212.273 34.509L214.914 35.1665L213.898 31.2217Z" fill="#9C9C9C"/>
<path d="M222.279 18.7297L220.603 22.0171L223.244 22.6745L222.279 18.7297Z" fill="#9C9C9C"/>
<path d="M167.981 34.155L165.39 31.5251L163.917 33.801L167.981 34.155Z" fill="#00B533"/>
<path d="M152.997 35.1665L150.407 32.5366L148.934 34.7619L152.997 35.1665Z" fill="#00B533"/>
<path d="M184.743 10.2841L187.739 8.15999L185.708 6.38989L184.743 10.2841Z" fill="#00B533"/>
<path d="M151.626 6.84489L154.572 4.72078L152.591 2.95068L151.626 6.84489Z" fill="#00B533"/>
<path d="M200.946 14.4816L203.943 12.3575L201.911 10.5369L200.946 14.4816Z" fill="#00B533"/>
<path d="M166.762 50.5915L169.759 48.4674L167.778 46.6467L166.762 50.5915Z" fill="#00B533"/>
<path d="M45.5693 28.7941L48.5661 26.67L46.5344 24.8494L45.5693 28.7941Z" fill="#00B533"/>
<path d="M143.041 68.1913L140.451 65.6121L139.029 67.8879L143.041 68.1913Z" fill="#9C9C9C"/>
<path d="M168.337 66.4718L165.746 63.8926L164.273 66.1684L168.337 66.4718Z" fill="#9C9C9C"/>
<path d="M197.085 69.7084L194.495 67.1292L193.073 69.4555L197.085 69.7084Z" fill="#9C9C9C"/>
<path d="M113.582 61.5156L115.258 58.2283L112.617 57.5708L113.582 61.5156Z" fill="#9C9C9C"/>
<path d="M96.9216 59.0373L98.547 55.8005L95.9058 55.1431L96.9216 59.0373Z" fill="#9C9C9C"/>
<path d="M179.46 64.9041L182 67.5339L183.473 65.2581L179.46 64.9041Z" fill="#00B533"/>
<path d="M106.572 60.0488L103.575 62.1729L105.607 63.9936L106.572 60.0488Z" fill="#00B533"/>
<path d="M108.045 48.3157L105.048 50.4398L107.08 52.2605L108.045 48.3157Z" fill="#00B533"/>
<path d="M221.619 56.7111L223.244 53.4238L220.603 52.7664L221.619 56.7111Z" fill="#9C9C9C"/>
<path d="M204.908 54.2834L206.584 50.9961L203.943 50.3386L204.908 54.2834Z" fill="#9C9C9C"/>
<path d="M214.609 55.2444L211.612 57.3685L213.593 59.1892L214.609 55.2444Z" fill="#00B533"/>
<path d="M72.8965 48.4675L70.2552 45.8882L68.833 48.164L72.8965 48.4675Z" fill="#9C9C9C"/>
<path d="M35.0046 58.4811L36.63 55.2444L33.9888 54.5869L35.0046 58.4811Z" fill="#9C9C9C"/>
<path d="M18.2937 56.0536L19.9191 52.7663L17.3286 52.1594L18.2937 56.0536Z" fill="#9C9C9C"/>
<path d="M9.96362 68.5454L11.589 65.2581L8.94775 64.6006L9.96362 68.5454Z" fill="#9C9C9C"/>
<path d="M27.4365 67.281L29.9762 69.9109L31.5 67.635L27.4365 67.281Z" fill="#00B533"/>
<path d="M80.6169 67.281L77.6201 69.4051L79.6518 71.1752L80.6169 67.281Z" fill="#00B533"/>
<path d="M29.4172 45.3318L26.4204 47.4559L28.4521 49.2766L29.4172 45.3318Z" fill="#00B533"/>
<path d="M181.848 46.5454L178.851 48.6695L180.883 50.4396L181.848 46.5454Z" fill="#00B533"/>
<path d="M63.855 80.582L66.4962 83.1107L67.9184 80.8349L63.855 80.582Z" fill="#9C9C9C"/>
<path d="M35.106 77.2947L37.6964 79.874L39.1694 77.5981L35.106 77.2947Z" fill="#9C9C9C"/>
<path d="M118.61 85.5383L116.985 88.8256L119.626 89.4325L118.61 85.5383Z" fill="#9C9C9C"/>
<path d="M40.0331 102.582L38.3569 105.869L40.9982 106.527L40.0331 102.582Z" fill="#9C9C9C"/>
<path d="M89.3535 90.9497L86.8138 88.3198L85.29 90.5451L89.3535 90.9497Z" fill="#00B533"/>
<path d="M74.3691 91.9104L71.8295 89.2805L70.3057 91.5564L74.3691 91.9104Z" fill="#00B533"/>
<path d="M52.7822 82.1496L50.2425 79.5198L48.7188 81.745L52.7822 82.1496Z" fill="#00B533"/>
<path d="M126.178 76.789L123.588 74.1592L122.115 76.3844L126.178 76.789Z" fill="#00B533"/>
<path d="M106.623 80.1774L109.62 78.0533L107.588 76.2832L106.623 80.1774Z" fill="#00B533"/>
<path d="M125.62 87.0048L128.616 84.8807L126.585 83.0601L125.62 87.0048Z" fill="#00B533"/>
<path d="M124.146 98.738L127.143 96.6139L125.112 94.7932L124.146 98.738Z" fill="#00B533"/>
<path d="M10.6239 90.2922L8.94775 93.5795L11.589 94.237L10.6239 90.2922Z" fill="#9C9C9C"/>
<path d="M27.2841 92.7703L25.6587 96.007L28.2999 96.6645L27.2841 92.7703Z" fill="#9C9C9C"/>
<path d="M18.1411 81.5427L15.6014 78.9128L14.1284 81.1887L18.1411 81.5427Z" fill="#00B533"/>
<path d="M17.6333 91.7587L20.6301 89.6346L18.5984 87.814L17.6333 91.7587Z" fill="#00B533"/>
<path d="M88.1851 107.336L91.1818 105.212L89.1501 103.391L88.1851 107.336Z" fill="#00B533"/>
<path d="M142.483 83.5657L145.073 86.1449L146.546 83.8185L142.483 83.5657Z" fill="#9C9C9C"/>
<path d="M197.238 88.522L195.562 91.8093L198.203 92.4668L197.238 88.522Z" fill="#9C9C9C"/>
<path d="M213.898 90.9497L212.273 94.237L214.914 94.8945L213.898 90.9497Z" fill="#9C9C9C"/>
<path d="M222.279 78.5083L220.603 81.745L223.244 82.4025L222.279 78.5083Z" fill="#9C9C9C"/>
<path d="M152.997 94.8945L150.407 92.2646L148.934 94.5405L152.997 94.8945Z" fill="#00B533"/>
<path d="M148.019 151.537L145.48 148.907L144.007 151.183L148.019 151.537Z" fill="#00B533"/>
<path d="M118.966 4.16451L121.963 2.04039L119.931 0.219727L118.966 4.16451Z" fill="#00B533"/>
<path d="M166.762 110.32L169.759 108.195L167.778 106.375L166.762 110.32Z" fill="#00B533"/>
<path d="M50.395 100.508L53.3918 98.3839L51.3601 96.5632L50.395 100.508Z" fill="#00B533"/>
<path d="M168.337 126.2L165.746 123.62L164.273 125.896L168.337 126.2Z" fill="#9C9C9C"/>
<path d="M113.582 121.244L115.258 117.956L112.617 117.299L113.582 121.244Z" fill="#9C9C9C"/>
<path d="M96.9216 118.816L98.547 115.529L95.9058 114.871L96.9216 118.816Z" fill="#9C9C9C"/>
<path d="M142.838 115.832L145.429 118.462L146.902 116.237L142.838 115.832Z" fill="#00B533"/>
<path d="M157.822 114.871L160.413 117.501L161.886 115.225L157.822 114.871Z" fill="#00B533"/>
<path d="M179.46 162.259L182 164.889L183.473 162.613L179.46 162.259Z" fill="#00B533"/>
<path d="M125.569 126.604L122.572 128.729L124.604 130.499L125.569 126.604Z" fill="#00B533"/>
<path d="M108.045 108.044L105.048 110.168L107.08 111.988L108.045 108.044Z" fill="#00B533"/>
<path d="M221.619 154.066L223.244 150.829L220.603 150.172L221.619 154.066Z" fill="#9C9C9C"/>
<path d="M204.908 114.011L206.584 110.775L203.943 110.117L204.908 114.011Z" fill="#9C9C9C"/>
<path d="M214.609 152.65L211.612 154.774L213.593 156.544L214.609 152.65Z" fill="#00B533"/>
<path d="M144.057 99.446L141.061 101.57L143.041 103.34L144.057 99.446Z" fill="#00B533"/>
<path d="M89.709 123.216L87.1185 120.636L85.6963 122.912L89.709 123.216Z" fill="#9C9C9C"/>
<path d="M35.0046 118.259L36.63 114.972L33.9888 114.315L35.0046 118.259Z" fill="#9C9C9C"/>
<path d="M74.7248 122.407L76.401 119.119L73.7598 118.512L74.7248 122.407Z" fill="#9C9C9C"/>
<path d="M18.2937 115.832L19.9191 112.545L17.3286 111.887L18.2937 115.832Z" fill="#9C9C9C"/>
<path d="M9.96362 128.273L11.589 124.986L8.94775 124.379L9.96362 128.273Z" fill="#9C9C9C"/>
<path d="M79.2456 111.887L81.7853 114.517L83.2583 112.241L79.2456 111.887Z" fill="#00B533"/>
<path d="M27.4365 127.009L29.9762 129.639L31.5 127.414L27.4365 127.009Z" fill="#00B533"/>
<path d="M46.9919 123.57L43.9951 125.694L46.0268 127.515L46.9919 123.57Z" fill="#00B533"/>
<path d="M56.947 177.482L53.9502 179.606L55.9819 181.376L56.947 177.482Z" fill="#00B533"/>
<path d="M115.512 153.206L112.566 155.33L114.547 157.101L115.512 153.206Z" fill="#00B533"/>
<path d="M181.848 106.274L178.851 108.398L180.883 110.218L181.848 106.274Z" fill="#00B533"/>
<path d="M89.1504 181.275L91.7408 183.854L93.2138 181.528L89.1504 181.275Z" fill="#9C9C9C"/>
<path d="M33.3286 158.112L35.9191 160.641L37.3413 158.365L33.3286 158.112Z" fill="#9C9C9C"/>
<path d="M118.61 187.951L116.985 191.187L119.626 191.845L118.61 187.951Z" fill="#9C9C9C"/>
<path d="M78.8393 141.726L77.2139 145.013L79.8551 145.62L78.8393 141.726Z" fill="#9C9C9C"/>
<path d="M135.321 190.378L133.645 193.665L136.286 194.323L135.321 190.378Z" fill="#9C9C9C"/>
<path d="M143.651 177.937L142.026 181.174L144.616 181.831L143.651 177.937Z" fill="#9C9C9C"/>
<path d="M89.3535 193.362L86.8138 190.732L85.29 192.958L89.3535 193.362Z" fill="#00B533"/>
<path d="M50.9536 162.916L48.4139 160.287L46.9409 162.562L50.9536 162.916Z" fill="#00B533"/>
<path d="M106.623 182.59L109.62 180.466L107.588 178.696L106.623 182.59Z" fill="#00B533"/>
<path d="M124.146 201.151L127.143 198.976L125.112 197.206L124.146 201.151Z" fill="#00B533"/>
<path d="M8.7953 171.11L7.16992 174.346L9.81117 175.004L8.7953 171.11Z" fill="#9C9C9C"/>
<path d="M25.5062 173.537L23.8809 176.824L26.4713 177.482L25.5062 173.537Z" fill="#9C9C9C"/>
<path d="M16.3633 162.31L13.8236 159.68L12.2998 161.956L16.3633 162.31Z" fill="#00B533"/>
<path d="M88.1851 213.339L91.1818 211.215L89.1501 209.394L88.1851 213.339Z" fill="#00B533"/>
<path d="M197.238 186.484L195.562 189.771L198.203 190.378L197.238 186.484Z" fill="#9C9C9C"/>
<path d="M157.467 144.71L155.842 147.997L158.432 148.655L157.467 144.71Z" fill="#9C9C9C"/>
<path d="M213.898 188.912L212.273 192.199L214.914 192.856L213.898 188.912Z" fill="#9C9C9C"/>
<path d="M222.279 176.47L220.603 179.707L223.244 180.365L222.279 176.47Z" fill="#9C9C9C"/>
<path d="M152.997 197.307L150.407 194.677L148.934 196.953L152.997 197.307Z" fill="#00B533"/>
<path d="M204.755 177.735L202.216 175.105L200.743 177.33L204.755 177.735Z" fill="#00B533"/>
<path d="M185.251 181.123L188.248 178.999L186.216 177.229L185.251 181.123Z" fill="#00B533"/>
<path d="M202.774 199.684L205.771 197.509L203.739 195.739L202.774 199.684Z" fill="#00B533"/>
<path d="M166.762 216.323L169.759 214.199L167.778 212.428L166.762 216.323Z" fill="#00B533"/>
<path d="M38.8647 195.891L41.8615 193.767L39.8298 191.946L38.8647 195.891Z" fill="#00B533"/>
<path d="M89.1504 220.268L91.7408 220.824L93.2138 220.318L89.1504 220.268Z" fill="#9C9C9C"/>
<path d="M63.855 209.95L66.4962 210.507L67.9184 210.001L63.855 209.95Z" fill="#9C9C9C"/>
<path d="M35.106 209.242L37.6964 209.799L39.1694 209.293L35.106 209.242Z" fill="#9C9C9C"/>
<path d="M118.61 211.012L116.985 211.721L119.626 211.872L118.61 211.012Z" fill="#9C9C9C"/>
<path d="M78.8393 210.102L77.2139 210.81L79.8551 210.962L78.8393 210.102Z" fill="#9C9C9C"/>
<path d="M135.321 211.518L133.645 212.226L136.286 212.378L135.321 211.518Z" fill="#9C9C9C"/>
<path d="M143.651 208.838L142.026 209.546L144.616 209.698L143.651 208.838Z" fill="#9C9C9C"/>
<path d="M82.5976 218.851L80.058 218.295L78.5342 218.801L82.5976 218.851Z" fill="#00B533"/>
<path d="M74.3691 212.378L71.8295 211.822L70.3057 212.328L74.3691 212.378Z" fill="#00B533"/>
<path d="M52.7822 210.304L50.2425 209.698L48.7188 210.203L52.7822 210.304Z" fill="#00B533"/>
<path d="M126.178 209.141L123.588 208.585L122.115 209.04L126.178 209.141Z" fill="#00B533"/>
<path d="M106.623 209.849L109.62 209.394L107.588 209.04L106.623 209.849Z" fill="#00B533"/>
<path d="M72.998 209.141L75.9948 208.686L73.9631 208.281L72.998 209.141Z" fill="#00B533"/>
<path d="M125.62 211.316L128.616 210.861L126.585 210.507L125.62 211.316Z" fill="#00B533"/>
<path d="M124.146 213.845L127.143 213.389L125.112 212.985L124.146 213.845Z" fill="#00B533"/>
<path d="M10.6239 212.024L8.94775 212.732L11.589 212.884L10.6239 212.024Z" fill="#9C9C9C"/>
<path d="M27.2841 212.58L25.6587 213.288L28.2999 213.39L27.2841 212.58Z" fill="#9C9C9C"/>
<path d="M11.8428 217.891L9.30309 217.334L7.7793 217.789L11.8428 217.891Z" fill="#00B533"/>
<path d="M23.1699 219.205L26.1667 218.75L24.135 218.396L23.1699 219.205Z" fill="#00B533"/>
<path d="M16.1602 214.856L19.157 214.401L17.1252 214.047L16.1602 214.856Z" fill="#00B533"/>
<path d="M88.1851 215.716L91.1818 215.261L89.1501 214.856L88.1851 215.716Z" fill="#00B533"/>
<path d="M167.778 210.203L170.368 210.76L171.79 210.305L167.778 210.203Z" fill="#9C9C9C"/>
<path d="M142.483 210.608L145.073 211.164L146.546 210.658L142.483 210.608Z" fill="#9C9C9C"/>
<path d="M197.238 211.67L195.562 212.378L198.203 212.479L197.238 211.67Z" fill="#9C9C9C"/>
<path d="M157.467 210.76L155.842 211.468L158.432 211.619L157.467 210.76Z" fill="#9C9C9C"/>
<path d="M213.898 212.176L212.273 212.884L214.914 213.035L213.898 212.176Z" fill="#9C9C9C"/>
<path d="M124.858 218.396L123.182 219.104L125.823 219.205L124.858 218.396Z" fill="#9C9C9C"/>
<path d="M222.279 209.495L220.603 210.203L223.244 210.355L222.279 209.495Z" fill="#9C9C9C"/>
<path d="M167.981 212.833L165.39 212.226L163.917 212.732L167.981 212.833Z" fill="#00B533"/>
<path d="M152.997 213.036L150.407 212.479L148.934 212.934L152.997 213.036Z" fill="#00B533"/>
<path d="M215.371 218.953L212.781 218.396L211.308 218.851L215.371 218.953Z" fill="#00B533"/>
<path d="M204.755 209.799L202.216 209.192L200.743 209.698L204.755 209.799Z" fill="#00B533"/>
<path d="M185.251 210.507L188.248 210.052L186.216 209.647L185.251 210.507Z" fill="#00B533"/>
<path d="M151.626 209.799L154.572 209.344L152.591 208.939L151.626 209.799Z" fill="#00B533"/>
<path d="M204.248 211.974L207.244 211.518L205.213 211.114L204.248 211.974Z" fill="#00B533"/>
<path d="M202.774 214.502L205.771 214.047L203.739 213.642L202.774 214.502Z" fill="#00B533"/>
<path d="M184.59 222.948L182.965 223.656L185.555 223.757L184.59 222.948Z" fill="#9C9C9C"/>
<path d="M201.302 223.454L199.625 224.162L202.267 224.314L201.302 223.454Z" fill="#9C9C9C"/>
<path d="M192.159 221.026L189.568 220.47L188.095 220.975L192.159 221.026Z" fill="#00B533"/>
<path d="M191.6 223.251L194.597 222.796L192.565 222.392L191.6 223.251Z" fill="#00B533"/>
<path d="M190.127 225.78L193.124 225.325L191.092 224.92L190.127 225.78Z" fill="#00B533"/>
<path d="M142.077 221.684L145.023 221.229L143.042 220.824L142.077 221.684Z" fill="#00B533"/>
<path d="M50.395 214.249L53.3918 213.743L51.3601 213.389L50.395 214.249Z" fill="#00B533"/>
<path d="M41.7095 217.84L44.2999 218.396L45.7221 217.89L41.7095 217.84Z" fill="#9C9C9C"/>
<path d="M52.2236 220.268L49.6332 219.711L48.1602 220.166L52.2236 220.268Z" fill="#00B533"/>
<path d="M30.5854 218.194L28.0458 217.587L26.5728 218.093L30.5854 218.194Z" fill="#00B533"/>
<path d="M28.1982 222.139L31.195 221.633L29.1633 221.279L28.1982 222.139Z" fill="#00B533"/>
</g>
<defs>
<clipPath id="clip0">
<rect width="216.074" height="225.56" fill="white" transform="translate(7.16992 0.219727)"/>
</clipPath>
</defs>
</svg>
