<svg width="232" height="230" viewBox="0 0 232 230" fill="none" xmlns="http://www.w3.org/2000/svg">
<g opacity="0.08">
<path opacity="0.08" d="M4.56511 141.437C4.56511 141.437 11.8507 180.688 48.8033 201.957C85.7497 223.227 131.68 218.153 169.013 215.02C206.347 211.887 231.537 186.648 230.994 154.388C230.451 122.127 200.803 117.153 179.995 83.5013C159.187 49.8555 158.75 37.8164 122.958 20.6284C87.1731 3.44662 38.5398 24.7662 17.7379 66.7314C-3.06389 108.69 4.56511 141.437 4.56511 141.437Z" fill="#00B533"/>
<path opacity="0.7" d="M4.56511 141.437C4.56511 141.437 11.8507 180.688 48.8033 201.957C85.7497 223.227 131.68 218.153 169.013 215.02C206.347 211.887 231.537 186.648 230.994 154.388C230.451 122.127 200.803 117.153 179.995 83.5013C159.187 49.8555 158.75 37.8164 122.958 20.6284C87.1731 3.44662 38.5398 24.7662 17.7379 66.7314C-3.06389 108.69 4.56511 141.437 4.56511 141.437Z" fill="#00B533"/>
</g>
<path d="M175.843 63.349C175.312 63.0993 174.75 62.9059 174.176 62.781C170.811 61.9759 166.878 61.3456 166.878 61.3456C166.878 61.3456 172.778 55.3853 170.53 52.789C168.283 50.1927 164.362 54.187 164.362 54.187C164.362 54.187 168.289 43.3962 162.683 41.7985C157.076 40.2007 150.908 52.1899 150.908 52.1899C150.908 52.1899 150.627 47.5902 147.824 48.1893C145.021 48.7885 144.459 54.187 144.459 54.187C144.459 54.187 140.251 51.7905 139.134 53.9873C138.016 56.1842 140.532 60.5779 140.532 60.5779C140.532 60.5779 135.769 57.7819 135.207 60.3782C134.995 61.3518 134.92 62.3504 134.982 63.349H175.843Z" stroke="#2E353A" stroke-width="0.9508" stroke-linecap="round" stroke-linejoin="round"/>
<path d="M216.797 63.3489L205.872 61.8947C203.019 59.6854 199.573 58.381 195.977 58.1501L194.728 58.0689C194.728 58.0689 197.694 54.5115 195.914 46.7975C194.135 39.0835 184.052 45.6117 184.052 45.6117C184.052 45.6117 191.45 38.5842 190.264 32.056C189.078 25.5278 178.715 30.8078 178.715 30.8078C178.715 30.8078 179.926 13.2079 166.853 13.8008C153.78 14.3937 151.395 34.9581 151.395 34.9581C151.395 34.9581 142.199 23.7803 135.962 37.9289C135.038 40.0259 134.358 42.2228 133.927 44.4696L133.665 44.2074C133.665 44.2074 128.777 38.2534 124.925 42.5099C121.073 46.7663 121.522 53.1197 121.522 53.1197C121.522 53.1197 115.566 50.9978 114.08 53.5504C112.595 56.103 115.991 59.0738 115.991 59.0738C115.991 59.0738 112.801 57.5884 110.459 59.6979C108.992 61.0272 107.45 62.4377 106.495 63.3115L216.797 63.3489Z" stroke="#2E353A" stroke-width="0.9508" stroke-linecap="round" stroke-linejoin="round"/>
<path d="M111.552 99.5348L100.645 98.0806C97.7923 95.8837 94.3461 94.5918 90.7501 94.3671L89.5015 94.286C89.5015 94.286 92.467 90.7286 90.6877 83.0146C88.9084 75.3006 78.8259 81.8287 78.8259 81.8287C78.8259 81.8287 86.2239 74.8013 85.0378 68.2731C83.8516 61.7449 73.4881 66.9936 73.4881 66.9936C73.4881 66.9936 74.6993 49.3875 61.6263 49.9866C48.5534 50.5858 46.1686 71.144 46.1686 71.144C46.1686 71.144 36.985 59.9662 30.7482 74.0898C29.8243 76.1868 29.1438 78.3837 28.713 80.6305L28.4508 80.3683C28.4508 80.3683 23.5625 74.4143 19.7105 78.6707C15.8586 82.9272 16.3081 89.2806 16.3081 89.2806C16.3081 89.2806 10.3522 87.1587 8.86013 89.705C7.36804 92.2514 10.7955 95.3095 10.7955 95.3095C10.7955 95.3095 7.60528 93.8241 5.26414 95.9336C3.79702 97.263 2.25499 98.6735 1.2998 99.5472L111.552 99.5348Z" stroke="#2E353A" stroke-width="0.9508" stroke-linecap="round" stroke-linejoin="round"/>
<path d="M100.171 137.381C100.171 135.664 98.785 132.937 97.0557 132.937C95.3264 132.937 93.9404 135.664 93.9404 137.381C93.9404 139.097 96.5875 142.53 97.0557 142.53C97.5239 142.53 100.171 139.097 100.171 137.381Z" fill="#00B533"/>
<path d="M164.83 137.381C164.83 135.664 163.444 132.937 161.715 132.937C159.992 132.937 158.6 135.664 158.6 137.381C158.6 139.097 161.247 142.53 161.715 142.53C162.183 142.53 164.83 139.097 164.83 137.381Z" fill="#00B533"/>
<path d="M97.418 116.897L119.375 97.5747V113.964L98.8788 123.594L97.418 116.897Z" fill="#2E353A" stroke="#2E353A" stroke-width="1.2223" stroke-miterlimit="10"/>
<path d="M101.844 132.8H92.3111L90.2946 95.3906C90.2696 95.1222 90.2696 94.8538 90.2946 94.5855C90.6255 91.4961 93.5035 81.373 97.0683 81.373C100.608 81.373 103.486 91.4961 103.848 94.5855C103.873 94.8538 103.873 95.1222 103.848 95.3906L101.844 132.8Z" fill="white" stroke="#2E353A" stroke-width="1.2223" stroke-miterlimit="10"/>
<path d="M91.624 89.1622H102.537C101.301 85.4051 99.3279 81.3608 97.0804 81.3608C94.8329 81.3608 92.8601 85.4051 91.624 89.1622Z" fill="#2E353A" stroke="#2E353A" stroke-width="1.2223" stroke-miterlimit="10"/>
<path d="M91.8804 124.905L92.3111 132.8H101.844L102.269 124.905H91.8804Z" fill="#2E353A" stroke="#2E353A" stroke-width="1.2223" stroke-miterlimit="10"/>
<path d="M161.765 116.897L139.783 97.5747V113.964L160.279 123.594L161.765 116.897Z" fill="#2E353A" stroke="#2E353A" stroke-width="1.2223" stroke-miterlimit="10"/>
<path d="M157.338 132.8H166.871L168.888 95.3906C168.913 95.1222 168.913 94.8538 168.888 94.5855C168.557 91.4961 165.679 81.373 162.114 81.373C158.574 81.373 155.696 91.4961 155.334 94.5855C155.309 94.8538 155.309 95.1222 155.334 95.3906L157.338 132.8Z" fill="white" stroke="#2E353A" stroke-width="1.2223" stroke-miterlimit="10"/>
<path d="M167.302 124.905L166.872 132.8H157.339L156.914 124.905H167.302Z" fill="#2E353A" stroke="#2E353A" stroke-width="1.2223" stroke-miterlimit="10"/>
<path d="M156.633 89.1622H167.546C166.304 85.4051 164.337 81.3608 162.09 81.3608C159.842 81.3671 157.888 85.4051 156.633 89.1622Z" fill="#2E353A" stroke="#2E353A" stroke-width="1.2223" stroke-miterlimit="10"/>
<path d="M134.626 138.323C134.514 135.602 132.222 133.492 129.5 133.599C126.935 133.705 124.881 135.758 124.774 138.323C124.774 141.044 128.957 146.468 129.694 146.468C130.275 146.461 134.626 141.025 134.626 138.323Z" fill="#00B533"/>
<path d="M142.187 119.625H117.252L111.97 38.6529C111.902 37.9476 111.902 37.2362 111.97 36.5247C112.851 28.4237 120.467 1.90527 129.726 1.90527C138.99 1.90527 146.582 28.4237 147.481 36.5247C147.556 37.2299 147.556 37.9414 147.481 38.6529L142.187 119.625Z" fill="white" stroke="#2E353A" stroke-width="1.2223" stroke-miterlimit="10"/>
<path d="M129.769 99.6407C123.745 99.6407 118.856 94.7602 118.856 88.7375V43.2836C118.863 37.2609 123.745 32.3804 129.769 32.3804C135.794 32.3866 140.67 37.2609 140.676 43.2836V88.7375C140.676 94.7602 135.794 99.6345 129.769 99.6407Z" fill="#00B533" stroke="#2E353A" stroke-width="1.2223" stroke-miterlimit="10"/>
<path d="M138.491 131.252H120.942L117.252 119.107H142.218L138.491 131.252Z" fill="#2E353A" stroke="#2E353A" stroke-width="1.2223" stroke-miterlimit="10"/>
<path d="M131.376 52.3524C135.487 51.4421 138.08 47.3732 137.17 43.2644C136.259 39.1555 132.189 36.5625 128.079 37.4728C123.969 38.3831 121.375 42.452 122.286 46.5609C123.196 50.6697 127.266 53.2627 131.376 52.3524Z" fill="#2E353A"/>
<path d="M136.968 48.2322C138.288 44.2361 136.118 39.9267 132.12 38.6069C128.123 37.287 123.812 39.4566 122.492 43.4527C121.172 47.4488 123.342 51.7582 127.339 53.078C131.337 54.3979 135.647 52.2283 136.968 48.2322Z" fill="#00B533" stroke="#2E353A" stroke-width="1.2223" stroke-miterlimit="10"/>
<path d="M129.731 51.5217C132.872 51.5217 135.419 48.9761 135.419 45.836C135.419 42.6959 132.872 40.1504 129.731 40.1504C126.59 40.1504 124.044 42.6959 124.044 45.836C124.044 48.9761 126.59 51.5217 129.731 51.5217Z" fill="white" stroke="#2E353A" stroke-width="1.2223" stroke-miterlimit="10"/>
<path d="M137.258 64.9575C137.932 60.8032 135.11 56.8889 130.955 56.2147C126.799 55.5405 122.883 58.3617 122.209 62.516C121.535 66.6703 124.357 70.5846 128.512 71.2589C132.668 71.9331 136.583 69.1119 137.258 64.9575Z" fill="#2E353A"/>
<path d="M137.26 65.8726C137.935 61.7182 135.113 57.8039 130.957 57.1297C126.801 56.4555 122.886 59.2767 122.211 63.4311C121.537 67.5854 124.359 71.4997 128.515 72.1739C132.67 72.8481 136.586 70.0269 137.26 65.8726Z" fill="#00B533" stroke="#2E353A" stroke-width="1.2223" stroke-miterlimit="10"/>
<path d="M135.35 65.5626C135.853 62.463 133.748 59.5425 130.647 59.0395C127.547 58.5365 124.625 60.6414 124.122 63.741C123.619 66.8406 125.724 69.7611 128.825 70.2641C131.926 70.7671 134.847 68.6622 135.35 65.5626Z" fill="white" stroke="#2E353A" stroke-width="1.2223" stroke-miterlimit="10"/>
<path d="M131.376 89.9989C135.486 89.0886 138.08 85.0197 137.169 80.9108C136.259 76.802 132.188 74.209 128.078 75.1193C123.968 76.0296 121.374 80.0985 122.285 84.2073C123.196 88.3162 127.266 90.9092 131.376 89.9989Z" fill="#2E353A"/>
<path d="M136.971 85.8791C138.291 81.883 136.121 77.5737 132.124 76.2538C128.126 74.934 123.816 77.1036 122.495 81.0996C121.175 85.0957 123.345 89.4051 127.343 90.7249C131.34 92.0448 135.651 89.8752 136.971 85.8791Z" fill="#00B533" stroke="#2E353A" stroke-width="1.2223" stroke-miterlimit="10"/>
<path d="M135.129 85.2737C136.124 82.295 134.514 79.0743 131.535 78.0802C128.555 77.086 125.334 78.6948 124.339 81.6735C123.345 84.6522 124.954 87.8728 127.934 88.867C130.913 89.8612 134.135 88.2524 135.129 85.2737Z" fill="white" stroke="#2E353A" stroke-width="1.2223" stroke-miterlimit="10"/>
<path d="M129.732 88.6315C132.772 88.6315 135.275 86.2412 135.413 83.208C135.413 83.2954 135.413 83.3828 135.413 83.4701C135.407 86.6094 132.859 89.1558 129.719 89.1558C126.579 89.1495 124.038 86.6094 124.032 83.4701C124.032 83.3828 124.032 83.2954 124.032 83.208C124.175 86.2474 126.685 88.6378 129.732 88.6315Z" fill="#2E353A"/>
<path d="M117.102 17.7388H142.368C139.159 9.25713 134.701 1.38086 129.738 1.38086C124.775 1.42455 120.292 9.26337 117.102 17.7388Z" fill="#2E353A" stroke="#2E353A" stroke-width="1.2223" stroke-miterlimit="10"/>
<path d="M41.7859 133.149C41.7859 133.149 37.5344 146.212 36.5855 152.821C35.6365 159.431 33.7511 177.848 33.7511 177.848C30.4111 182.011 28.2135 186.973 27.377 192.246C26.197 200.672 26.5903 212.018 26.5903 212.018C26.5903 212.018 25.6476 213.435 25.6476 214.146C25.6476 214.858 25.8037 216.431 25.8037 216.431C24.0682 217.779 22.4137 219.22 20.8405 220.756C19.1112 222.566 19.4233 225.717 19.4233 226.579C19.4233 227.44 20.4472 228.707 21.0028 228.707C21.5585 228.707 25.3292 227.995 27.2459 226.423C29.1625 224.85 29.2124 221.623 29.6869 220.182C30.1614 218.74 33.3578 214.515 33.3578 214.515C34.3442 214.409 35.1246 213.628 35.2307 212.642C35.3868 210.914 35.7801 207.843 35.9362 207.213C36.0923 206.582 42.7099 195.879 44.202 189.425C45.6941 182.972 50.3451 173.298 51.9995 169.048C53.6539 164.798 57.1937 156.142 57.1937 156.142L57.9055 155.904C57.9055 155.904 56.5632 174.628 56.1699 180.538C55.7766 186.448 55.6954 187.934 55.6954 195.723C55.6954 203.512 58.767 216.318 58.767 216.318V220.331C58.767 220.569 59.3913 220.806 60.5775 220.881C61.7637 220.955 65.2348 220.974 66.1026 221.505C66.9704 222.035 70.5102 222.447 74.1311 222.291C77.7521 222.135 79.6437 221.505 79.2504 220.793C78.8571 220.082 72.639 217.673 71.6152 217.017C70.5913 216.362 68.2127 214.796 68.2127 214.796C68.2127 214.796 68.375 212.755 67.8194 211.806C67.2638 210.857 67.0328 210.945 67.0328 209.934C67.0328 208.923 69.3177 195.529 69.9483 189.157C70.5788 182.785 73.9626 173.729 74.1998 166.964C74.437 160.198 73.8065 155 73.2509 147.286C72.9262 142.673 72.1084 138.111 70.8161 133.674L41.7859 133.149Z" fill="#2E353A" stroke="#2E353A" stroke-width="0.9508" stroke-linecap="round" stroke-linejoin="round"/>
<path d="M81.2234 143.853C81.2234 143.853 82.6406 149.906 82.2473 153.607C82.0975 155.018 80.1996 159.118 79.8063 159.355C79.4255 159.48 79.0072 159.48 78.6263 159.355C78.9135 158.582 79.1508 157.795 79.3318 156.99C79.413 156.366 79.4941 154.631 79.4941 154.631C79.0384 155.642 78.514 156.616 77.9146 157.546C77.384 158.082 76.7722 158.532 76.1042 158.881C75.8232 158.862 75.561 158.719 75.3987 158.488C75.2426 158.251 76.023 157.702 76.4225 156.834C76.8221 155.967 77.4464 154.338 77.4464 154.338C76.8783 155.068 76.254 155.748 75.5735 156.378C74.9554 156.834 74.2625 157.177 73.5258 157.402C73.2885 157.402 72.8203 156.541 73.0575 156.46C73.2948 156.378 75.2613 155.28 75.4923 154.887C75.7108 154.556 75.9481 154.244 76.204 153.944C75.2801 154.319 74.3311 154.631 73.3697 154.887C72.9764 154.887 72.8203 154.263 72.8203 154.263L75.4174 152.927L76.0417 151.348C75.7233 150.137 75.7233 148.864 76.0417 147.653C76.5911 145.843 76.8283 144.583 76.8283 144.583L81.2234 143.853Z" fill="white" stroke="#2E353A" stroke-width="0.9508" stroke-linecap="round" stroke-linejoin="round"/>
<path d="M78.4697 146.449C78.4697 146.449 78.5446 149.046 79.0191 149.57C79.4936 150.094 80.3551 150.749 80.3551 151.299C80.3551 151.848 79.4936 155 79.7308 155.237C79.9368 155.511 80.3302 155.561 80.6049 155.355C80.7235 155.268 80.8046 155.143 80.8358 155C81.3353 153.277 81.6787 151.511 81.8597 149.726" fill="white"/>
<path d="M78.4697 146.449C78.4697 146.449 78.5446 149.046 79.0191 149.57C79.4936 150.094 80.3551 150.749 80.3551 151.299C80.3551 151.848 79.4936 155 79.7308 155.237C79.9368 155.511 80.3302 155.561 80.6049 155.355C80.7235 155.268 80.8046 155.143 80.8358 155C81.3353 153.277 81.6787 151.511 81.8597 149.726" stroke="#2E353A" stroke-width="0.9508" stroke-linecap="round" stroke-linejoin="round"/>
<path d="M74.5309 100.721C74.5309 100.721 76.6598 113.552 76.8908 117.409C77.1218 121.266 77.128 124.175 77.128 124.175L81.2234 143.853L76.8159 144.558C76.8159 144.558 71.6217 133.948 70.5728 132.7C69.524 131.452 68.9933 129.08 69.3929 125.697C69.7924 122.315 69.4678 103.816 70.2544 101.613C70.6977 100.29 72.1273 99.5722 73.4509 100.015C73.8629 100.153 74.2375 100.396 74.5309 100.721Z" fill="white" stroke="#2E353A" stroke-width="0.9508" stroke-linecap="round" stroke-linejoin="round"/>
<path d="M76.2661 143.297L80.6737 142.118" stroke="#2E353A" stroke-width="0.9508" stroke-linecap="round" stroke-linejoin="round"/>
<path d="M49.3398 87.8203C49.3398 87.8203 32.0965 94.9726 31.3099 95.3096C30.5232 95.6467 29.9738 95.3096 29.5805 96.8824C29.1872 98.4552 22.6508 126.515 22.9504 128.737C23.2501 130.959 28.0822 150.231 28.0822 150.231L33.5199 149.289L34.1442 126.072L37.0597 118.67C37.0597 118.67 40.9179 128.35 40.8367 129.143C40.7556 129.935 39.8129 131.739 40.3685 132.762C40.6432 133.318 41.049 133.805 41.5485 134.179H71.5151C71.5151 134.179 73.388 133.555 73.4816 132.681C73.4192 131.414 73.2631 130.147 73.0134 128.905C73.0134 128.905 75.6854 118.358 75.6854 111.037C75.6854 103.716 74.8239 97.6625 73.6377 95.9275C72.4515 94.1925 68.2063 92.4637 64.3543 91.1281C60.5023 89.7925 57.2684 88.5318 53.8036 88.2197C50.3387 87.9077 49.3398 87.8203 49.3398 87.8203Z" fill="white" stroke="#2E353A" stroke-width="0.9508" stroke-linecap="round" stroke-linejoin="round"/>
<path d="M62.4067 93.7178C62.4067 93.7178 65.0788 105.713 65.0788 112.441C65.0788 119.169 65.2598 127.22 65.6219 128.499C65.984 129.779 66.5396 131.963 65.2598 133.424" stroke="#2E353A" stroke-width="0.9508" stroke-linecap="round" stroke-linejoin="round"/>
<path d="M37.0601 118.663L41.861 107.018" stroke="#2E353A" stroke-width="0.9508" stroke-linecap="round" stroke-linejoin="round"/>
<path d="M39.501 113.315L43.9897 107.648" stroke="#2E353A" stroke-width="0.9508" stroke-linecap="round" stroke-linejoin="round"/>
<path d="M27.5332 147.785L33.5203 147.154" stroke="#2E353A" stroke-width="0.9508" stroke-linecap="round" stroke-linejoin="round"/>
<path d="M65.7156 90.0234L67.5261 93.8742L63.4307 91.5962L65.7156 90.0234Z" fill="white" stroke="#2E353A" stroke-width="0.9508" stroke-linecap="round" stroke-linejoin="round"/>
<path d="M62.4067 93.7181L65.7156 90.0233L62.4879 88.4443L62.4067 93.7181Z" fill="white" stroke="#2E353A" stroke-width="0.9508" stroke-linecap="round" stroke-linejoin="round"/>
<path d="M62.9625 63.8168C62.9625 63.8168 65.0851 66.1759 65.0851 66.8811C65.0664 67.4616 65.0164 68.042 64.929 68.6162C64.929 68.6162 68.4688 70.345 68.0505 71.0564C67.6323 71.7679 67.1078 73.0973 67.1078 73.0973C67.1078 73.0973 70.0171 79.4757 69.6051 80.106C69.193 80.7364 65.1975 84.5872 64.492 86.4782C63.7865 88.3693 62.3631 93.7179 62.3631 93.7179L48.822 86.2286C48.822 86.2286 50.4764 83.5574 50.5575 81.7474C50.6387 79.9375 50.8697 78.5208 50.5575 77.4161C50.2454 76.3114 48.591 73.478 48.4287 70.7257C48.2663 67.9733 51.263 64.7467 55.2024 62.8556C59.1417 60.9646 62.9625 63.8168 62.9625 63.8168Z" fill="white" stroke="#2E353A" stroke-width="0.9508" stroke-linecap="round" stroke-linejoin="round"/>
<path d="M61.0708 74.9072C62.0135 75.9807 63.5493 76.299 64.8478 75.6998" stroke="#2E353A" stroke-width="0.9508" stroke-linecap="round" stroke-linejoin="round"/>
<path d="M62.825 69.9019C63.0372 70.3575 62.9623 70.8381 62.6689 70.9692C62.3755 71.1002 61.9634 70.8506 61.7512 70.395C61.5389 69.9394 61.6201 69.4588 61.9135 69.3278C62.2069 69.1967 62.6189 69.4463 62.825 69.9019Z" fill="#2E353A"/>
<path d="M59.5723 69.5587C60.0343 68.3854 61.2329 67.6739 62.4878 67.8299" stroke="#2E353A" stroke-width="1.9016" stroke-linecap="round" stroke-linejoin="round"/>
<path d="M53.5917 76.8792C53.5917 76.8792 55.6394 76.8792 55.6394 75.7746C55.6394 74.6699 54.0661 72.473 54.4595 71.3684C54.8528 70.2637 56.7382 69.496 56.0327 68.2977C55.3272 67.0994 53.9038 67.1182 54.6967 66.3318C55.4896 65.5454 61.3081 66.5689 63.2746 64.4595C65.2412 62.35 66.0278 59.1108 64.6107 58.4867C63.1935 57.8626 61.383 59.4291 61.383 59.4291C61.383 59.4291 60.4403 57.226 57.606 58.0124C54.7716 58.7988 50.8385 61.8694 48.6347 64.94C46.4309 68.0106 45.638 69.1091 46.5058 71.1811C47.3736 73.2532 50.2079 77.0852 51.3067 77.7156C52.4055 78.3459 53.5917 76.8792 53.5917 76.8792Z" fill="#2E353A" stroke="#2E353A" stroke-width="0.9508" stroke-linecap="round" stroke-linejoin="round"/>
<path d="M54.8529 77.9029C54.8529 77.9029 52.6491 74.7511 50.7574 75.1443C48.8658 75.5375 49.3403 78.2961 50.6014 79.5505C51.8625 80.805 54.0663 79.9437 54.5345 79.6316C54.5345 79.6316 56.2701 83.8007 57.9994 83.963C59.7287 84.1252 64.6108 81.9908 64.6108 81.9908" fill="white"/>
<path d="M54.8529 77.9029C54.8529 77.9029 52.6491 74.7511 50.7574 75.1443C48.8658 75.5375 49.3403 78.2961 50.6014 79.5505C51.8625 80.805 54.0663 79.9437 54.5345 79.6316C54.5345 79.6316 56.2701 83.8007 57.9994 83.963C59.7287 84.1252 64.6108 81.9908 64.6108 81.9908" stroke="#2E353A" stroke-width="0.9508" stroke-linecap="round" stroke-linejoin="round"/>
<path d="M59.9657 89.4678L62.4068 93.718L57.687 91.3588L59.9657 89.4678Z" fill="white" stroke="#2E353A" stroke-width="0.9508" stroke-linecap="round" stroke-linejoin="round"/>
<path d="M49.1029 84.2754L59.9658 89.468L57.4498 95.6092L47.3735 88.0513L49.1029 84.2754Z" fill="white" stroke="#2E353A" stroke-width="0.9508" stroke-linecap="round" stroke-linejoin="round"/>
<path d="M35.924 159.187H24.6304C24.1497 159.187 23.7563 159.58 23.7563 160.061V164.667C23.7563 165.147 24.1497 165.54 24.6304 165.54H25.9539C25.4732 165.54 25.0799 165.147 25.0799 164.667V161.658C25.0799 161.178 25.4732 160.785 25.9539 160.785H34.6005C35.0812 160.785 35.4745 161.178 35.4745 161.658V164.667C35.4745 165.147 35.0812 165.54 34.6005 165.54H35.924C36.4048 165.54 36.7981 165.147 36.7981 164.667V160.061C36.7981 159.574 36.4048 159.187 35.924 159.187Z" fill="#2E353A" stroke="#2E353A" stroke-width="0.9508" stroke-linecap="round" stroke-linejoin="round"/>
<path d="M28.0821 150.231C28.0821 150.231 26.4277 156.684 26.7399 157.783C27.052 158.881 27.9261 159.518 27.9885 159.755C28.1071 160.105 27.976 160.491 27.6701 160.697L27.2768 160.935C27.2768 160.935 26.9646 160.935 27.2019 161.403C27.2955 161.659 27.4703 161.877 27.7013 162.027C28.2195 162.289 28.5379 161.758 29.0061 161.69C29.4743 161.621 29.7678 162.133 30.211 162.102C30.6543 162.07 30.8915 161.627 31.3223 161.665C31.7531 161.702 32.034 162.482 32.6583 162.208C32.9267 162.083 33.1203 161.815 33.3887 161.677C33.7883 161.471 34.3564 161.528 34.7123 161.222C34.9994 160.922 35.1742 160.535 35.2117 160.123C35.3553 159.318 33.5011 149.27 33.5011 149.27L28.0821 150.231Z" fill="white" stroke="#2E353A" stroke-width="0.9508" stroke-linecap="round" stroke-linejoin="round"/>
<path d="M12.7805 163.537H46.2682C47.6417 163.537 48.7592 164.654 48.7592 166.027V187.297C48.7592 188.67 47.6417 189.787 46.2682 189.787H12.7805C11.4071 189.787 10.2896 188.67 10.2896 187.297V166.027C10.2896 164.648 11.4008 163.537 12.7805 163.537Z" fill="#00B533" stroke="#2E353A" stroke-width="1.2223" stroke-miterlimit="10"/>
<path d="M10.377 165.959L28.5692 178.803C29.5806 179.527 30.9353 179.527 31.9467 178.803L48.6593 166.646" stroke="#2E353A" stroke-width="0.9508" stroke-linecap="round" stroke-linejoin="round"/>
<path d="M31.7845 177.074H28.688V181.424H31.7845V177.074Z" fill="white" stroke="#2E353A" stroke-width="0.9508" stroke-linecap="round" stroke-linejoin="round"/>
</svg>
