<svg width="238" height="213" viewBox="0 0 238 213" fill="none" xmlns="http://www.w3.org/2000/svg">
<g opacity="0.08">
<path opacity="0.08" d="M1.98622 132.595C1.98622 132.595 9.57997 173.573 48.0953 195.779C86.6041 217.985 134.477 212.688 173.389 209.417C212.301 206.146 238.557 179.796 237.991 146.116C237.425 112.435 206.523 107.242 184.835 72.1088C163.14 36.9949 162.685 24.4259 125.38 6.48124C88.0812 -11.4699 37.3912 10.7882 15.7096 54.6007C-5.97192 98.4132 1.98622 132.595 1.98622 132.595Z" fill="#00B533"/>
<path opacity="0.7" d="M1.98622 132.595C1.98622 132.595 9.57997 173.573 48.0953 195.779C86.6041 217.985 134.477 212.688 173.389 209.417C212.301 206.146 238.557 179.796 237.991 146.116C237.425 112.435 206.523 107.242 184.835 72.1088C163.14 36.9949 162.685 24.4259 125.38 6.48124C88.0812 -11.4699 37.3912 10.7882 15.7096 54.6007C-5.97192 98.4132 1.98622 132.595 1.98622 132.595Z" fill="#00B533"/>
</g>
<g clip-path="url(#clip0)">
<path d="M121.883 196.232L45.0837 202.59C42.8786 202.778 40.6736 200.953 40.1695 198.498L7.53437 37.9215C7.03035 35.4666 6.02232 30.8715 14.9686 30.4308L92.5874 24.4509C94.7925 24.2621 96.9976 26.0875 97.5016 28.5424L130.641 189.308C131.145 191.511 128.751 196.043 121.883 196.232Z" fill="#263238"/>
<path d="M44.7687 202.904C42.5006 202.904 40.3586 201.016 39.8545 198.498L7.21938 37.9844C6.90437 36.5367 6.46335 34.3965 7.7864 32.6969C8.98344 31.1862 11.3145 30.305 14.9057 30.1791L92.5874 24.1992C94.9185 24.0103 97.3126 25.9617 97.8166 28.5425L130.956 189.308C131.208 190.441 130.767 191.889 129.759 193.148C128.751 194.407 126.546 196.421 121.883 196.547L45.1467 202.904C45.0207 202.904 44.8947 202.904 44.7687 202.904ZM92.9024 24.7657H92.6504L14.9687 30.7456C11.6295 30.9344 9.36146 31.6898 8.29042 33.0746C7.15638 34.5853 7.53439 36.4737 7.7864 37.7956L40.4846 198.372C40.9256 200.638 43.0047 202.401 45.0207 202.212L121.82 195.854C126.231 195.728 128.373 193.84 129.255 192.707C130.074 191.826 130.452 190.567 130.326 189.371L97.1866 28.6054C96.7456 26.4023 94.8555 24.7657 92.9024 24.7657Z" fill="#263238"/>
<path d="M127.743 193.274L50.9429 199.631C48.7378 199.82 46.5327 197.995 46.0287 195.54L13.3935 34.9631C12.8895 32.5082 14.2756 30.368 16.4806 30.1792L93.2804 23.8845C95.4855 23.6957 97.6906 25.5211 98.1946 27.976L130.83 188.553C131.334 190.945 129.948 193.085 127.743 193.274Z" fill="white"/>
<path d="M50.6911 199.946C48.423 199.946 46.281 198.057 45.777 195.603L13.0788 35.026C12.7638 33.7671 13.0788 32.3822 13.8348 31.3751C14.4648 30.5568 15.4099 29.9903 16.4809 29.9273L93.2807 23.5068C95.6117 23.3179 98.0058 25.2693 98.5098 27.8501L131.145 188.427C131.46 189.686 131.145 191.07 130.389 192.141C129.759 192.959 128.814 193.525 127.743 193.588L51.0061 199.946H50.6911ZM93.5957 24.1362H93.3437L16.5439 30.4938C15.6619 30.5568 14.8428 30.9974 14.3388 31.6898C13.7088 32.634 13.4568 33.7671 13.7088 34.8371L46.407 195.477C46.848 197.743 48.9271 199.505 50.9431 199.316L127.743 192.959C128.625 192.896 129.444 192.455 129.948 191.763C130.578 190.819 130.83 189.686 130.578 188.553L97.9428 28.0389C97.4388 25.8358 95.5487 24.1362 93.5957 24.1362Z" fill="#263238"/>
<path d="M62.7874 36.6625L52.266 37.5437C51.636 37.5437 51.0689 37.1031 50.9429 36.4107C50.8169 35.9071 51.0689 35.3406 51.636 35.1518C51.699 35.1518 51.762 35.1518 51.762 35.1518L62.3463 34.2705C62.9764 34.2705 63.5434 34.7111 63.6694 35.4035C63.8584 35.9701 63.5434 36.4736 62.9764 36.6625C62.9134 36.6625 62.8504 36.6625 62.7874 36.6625Z" fill="#263238"/>
<path d="M123.333 178.229L49.2418 184.335L19.9458 40.3763L37.5234 38.9286L39.8545 40.5652C40.6105 41.1317 41.5556 41.3835 42.5006 41.3205L73.4977 38.8027C74.4428 38.7397 75.2618 38.2991 75.8288 37.5437L77.2779 35.6553L94.0365 34.2705L123.333 178.229Z" fill="#00B533"/>
<path d="M49.2419 184.713C49.1159 184.713 48.9899 184.587 48.9269 184.461L19.6309 40.4395C19.6309 40.3766 19.6309 40.2507 19.6939 40.1877C19.7569 40.1248 19.8199 40.0618 19.8829 40.0618L37.4605 38.6141C37.5235 38.6141 37.5865 38.6141 37.6495 38.677L39.9806 40.3136C40.6736 40.8172 41.5556 41.069 42.4377 41.006L73.4348 38.4252C74.2538 38.3623 75.0098 37.9216 75.5139 37.2922L76.9629 35.4038C77.0259 35.3408 77.0889 35.2779 77.2149 35.2779L93.9735 33.8931C94.1625 33.8931 94.2885 34.019 94.2885 34.1449L123.585 178.167C123.585 178.229 123.585 178.355 123.522 178.418C123.459 178.481 123.396 178.544 123.27 178.544L49.2419 184.713ZM20.3239 40.6283L49.4939 184.021L122.955 177.915L93.7845 34.5855L77.4039 35.9074L76.0809 37.6699C75.4509 38.4882 74.5688 38.9917 73.4978 39.0547L42.5007 41.6355C41.4926 41.6984 40.4846 41.3837 39.6026 40.8172L37.4605 39.2435L20.3239 40.6283Z" fill="#263238"/>
<path d="M89.5632 185.531C89.3741 184.524 88.4921 183.832 87.4841 183.832C86.602 183.957 86.035 184.713 86.098 185.594C86.098 185.657 86.098 185.783 86.161 185.846C86.35 186.853 87.2321 187.545 88.2401 187.545C89.1221 187.419 89.6892 186.664 89.6262 185.783C89.6262 185.72 89.6262 185.657 89.5632 185.531Z" fill="#263238"/>
<path d="M41.6185 71.2202L33.6803 71.8497C32.3572 71.8497 31.2232 70.9055 31.0342 69.6465L29.2701 60.834C29.0181 59.5121 29.7741 58.3162 30.9712 58.2532L38.9094 57.5608C40.2325 57.5608 41.3665 58.505 41.5555 59.8269L43.3196 68.5764C43.5716 69.9613 42.8156 71.1572 41.6185 71.2202Z" fill="white"/>
<path d="M33.5545 72.2274C32.1684 72.1644 30.9714 71.0944 30.7194 69.7725L28.9553 60.96C28.7663 60.2046 28.9553 59.4493 29.3963 58.8198C29.7743 58.3162 30.3414 58.0015 30.9714 57.9385L38.9097 57.3091C40.3587 57.3091 41.6188 58.3162 41.9338 59.764L43.6978 68.5136C43.8868 69.2689 43.6978 70.0243 43.2568 70.6537C42.8788 71.1573 42.3118 71.472 41.7448 71.535L33.8065 72.1644L33.5545 72.2274ZM39.0357 57.9385H38.9097L30.9714 58.568C30.5304 58.631 30.1523 58.8198 29.9003 59.1975C29.5853 59.701 29.4593 60.2676 29.5853 60.8341L31.3494 69.6466C31.5384 70.7796 32.5464 71.5979 33.6805 71.5979L41.6188 70.9685C42.0598 70.9055 42.4378 70.7167 42.6898 70.339C43.0048 69.8984 43.1308 69.2689 43.0048 68.7024L41.2408 59.9528C41.0517 58.8827 40.1697 58.0015 39.0357 57.9385Z" fill="white"/>
<path d="M59.3222 69.7725L51.3839 70.4019C50.0608 70.4019 48.9268 69.4577 48.7378 68.1359L46.9737 59.3863C46.7217 58.0644 47.4777 56.8684 48.6748 56.8055L56.6131 56.176C57.9361 56.176 59.0701 57.1202 59.2591 58.4421L61.0232 67.1917C61.2752 68.5135 60.5192 69.7095 59.3222 69.7725Z" fill="white"/>
<path d="M51.2581 70.7796C49.872 70.7167 48.675 69.6466 48.423 68.2618L46.6589 59.5122C46.4699 58.7569 46.6589 58.0015 47.0999 57.372C47.4779 56.8685 48.045 56.5537 48.675 56.4908L56.6133 55.8613C58.0623 55.8613 59.3224 56.9314 59.6374 58.3162L61.4014 67.0658C61.5905 67.8212 61.4014 68.5765 60.9604 69.206C60.5824 69.7096 60.0154 70.0243 59.3854 70.0872L51.4471 70.7167L51.2581 70.7796ZM56.7393 56.4908H56.6133L48.675 57.1203C48.234 57.1832 47.856 57.372 47.604 57.7497C47.2889 58.2533 47.1629 58.8198 47.2889 59.3863L49.053 68.1359C49.242 69.2689 50.25 70.0872 51.3841 70.0872L59.3224 69.4578C59.7634 69.3948 60.1414 69.206 60.3934 68.8913C60.7084 68.3877 60.8344 67.8212 60.7084 67.2546L58.9444 58.5051C58.7554 57.435 57.8103 56.5537 56.7393 56.4908Z" fill="white"/>
<path d="M76.9628 68.3247L69.0245 68.9542C67.7015 68.9542 66.5674 68.01 66.3784 66.6881L64.6143 57.9385C64.3623 56.6167 65.1184 55.4207 66.3154 55.3577L74.2537 54.7283C75.5767 54.7283 76.7108 55.6725 76.8998 56.9314L78.6638 65.7439C78.9789 67.0658 78.2228 68.1988 76.9628 68.3247Z" fill="white"/>
<path d="M68.8987 69.2689C67.5127 69.206 66.3156 68.1359 66.0636 66.7511L64.2995 58.0015C64.1105 57.2461 64.2995 56.4908 64.7406 55.8613C65.1186 55.3577 65.6856 55.043 66.3156 54.9801L74.2539 54.3506C75.7029 54.3506 77.026 55.3577 77.278 56.8055L79.0421 65.5551C79.2311 66.3104 79.0421 67.0658 78.601 67.6952C78.223 68.1988 77.656 68.5136 77.026 68.5765L69.0877 69.206L68.8987 69.2689ZM74.3799 55.043H74.2539L66.3156 55.6725C65.8746 55.6725 65.4966 55.9242 65.2446 56.239C64.9296 56.7426 64.8036 57.3091 64.9296 57.8756L66.7566 66.6252C66.9456 67.7582 67.9537 68.5765 69.0877 68.5765L77.026 67.947C77.467 67.8841 77.845 67.6952 78.097 67.3176C78.412 66.8769 78.538 66.2475 78.412 65.681L76.648 56.8684C76.396 55.9242 75.5139 55.1059 74.3799 55.043Z" fill="white"/>
<path d="M94.6664 66.877L86.7281 67.5064C85.4051 67.5064 84.271 66.5622 84.082 65.2404L82.318 56.4908C82.0659 55.1689 82.822 53.9729 84.019 53.91L91.9573 53.2805C93.2803 53.2805 94.4144 54.2247 94.6034 55.5466L96.3674 64.2962C96.6195 65.618 95.8634 66.7511 94.6664 66.877Z" fill="white"/>
<path d="M86.6023 67.8212C85.2163 67.7582 84.0192 66.6881 83.7672 65.3033L82.0032 56.5537C81.8141 55.7984 82.0032 55.043 82.4442 54.4135C82.8222 53.91 83.3892 53.5952 84.0192 53.5323L91.9575 52.9028C93.4066 52.9028 94.6666 53.91 94.9816 55.3577L96.7457 64.1073C96.9347 64.8627 96.7457 65.618 96.3047 66.2475C95.9267 66.7511 95.3596 67.0658 94.7296 67.1287L86.7913 67.7582L86.6023 67.8212ZM92.0835 53.5323H91.9575L84.0192 54.1618C83.5782 54.2247 83.2002 54.4135 82.9482 54.7912C82.6332 55.2319 82.5072 55.8613 82.6962 56.3649L84.4602 65.1774C84.6493 66.3104 85.6573 67.1287 86.7913 67.1287L94.7296 66.4993C95.1706 66.4363 95.5486 66.2475 95.8007 65.8698C96.1157 65.3662 96.2417 64.7997 96.1157 64.2332L94.3516 55.4836C94.0996 54.4765 93.2176 53.6582 92.0835 53.5323Z" fill="white"/>
<path d="M45.7768 91.426L37.8385 92.0555C36.5154 92.0555 35.3814 91.1113 35.1924 89.7894L33.3653 81.0399C33.1133 79.718 33.8693 78.522 35.0664 78.4591L43.0047 77.8296C44.3277 77.8296 45.4617 78.7738 45.6508 80.0957L47.4148 88.8452C47.7298 90.1671 46.9738 91.3001 45.7768 91.426Z" fill="white"/>
<path d="M37.6497 92.4332C36.2636 92.3703 35.0666 91.3002 34.8146 89.9154L33.0505 81.1658C32.8615 80.4104 33.0505 79.6551 33.4915 79.0256C33.8695 78.522 34.4366 78.2073 35.0036 78.1444L42.9419 77.5149C44.4539 77.5149 45.714 78.585 45.966 80.0328L47.73 88.7823C47.919 89.5377 47.73 90.293 47.289 90.9225C46.911 91.4261 46.344 91.7408 45.777 91.8038L37.8387 92.4332H37.6497ZM43.1309 78.1444H43.0049L35.0666 78.7738C34.6256 78.7738 34.2476 79.0256 33.9956 79.3403C33.6805 79.781 33.5545 80.4104 33.6805 80.977L35.4446 89.7895C35.6336 90.9225 36.6416 91.7408 37.7757 91.7408L45.714 91.1113C46.155 91.0484 46.533 90.8596 46.785 90.4819C47.1 90.0412 47.226 89.4118 47.1 88.8453L45.336 80.0957C45.1469 79.0256 44.2649 78.2073 43.1309 78.1444Z" fill="white"/>
<path d="M63.4174 89.9783L55.4791 90.6078C54.156 90.6078 53.022 89.6636 52.833 88.3417L51.0689 79.5921C50.8169 78.2702 51.573 77.0742 52.77 77.0113L60.7083 76.3818C62.0313 76.3818 63.1654 77.326 63.3544 78.6479L65.1184 87.3975C65.3704 88.7194 64.6144 89.8524 63.4174 89.9783Z" fill="white"/>
<path d="M55.3528 90.9225C53.9668 90.8595 52.7697 89.7894 52.5177 88.4046L50.7536 79.655C50.5646 78.8997 50.7536 78.1443 51.1947 77.5149C51.5727 77.0113 52.1397 76.6966 52.7067 76.6336L60.645 76.0042C62.0941 76.0042 63.4171 77.0113 63.6691 78.4591L65.4332 87.2086C65.6222 87.964 65.4332 88.7193 64.9921 89.3488C64.6141 89.8524 64.0471 90.1671 63.4801 90.2301L55.5418 90.8595L55.3528 90.9225ZM60.834 76.6966H60.708L52.7697 77.326C52.3287 77.389 51.9507 77.5778 51.6987 77.9555C51.3837 78.3961 51.2577 79.0256 51.3837 79.5921L53.1477 88.3417C53.3367 89.4747 54.3448 90.293 55.4788 90.293L63.4171 89.6635C63.8581 89.6635 64.2361 89.4118 64.4881 89.097C64.8031 88.6564 64.9292 88.0269 64.8031 87.4604L63.0391 78.7108C62.8501 77.5778 61.905 76.7595 60.834 76.6966Z" fill="white"/>
<path d="M98.7616 87.0198L90.8233 87.7122C89.5003 87.7122 88.3662 86.768 88.1772 85.4462L86.4132 76.6966C86.1612 75.3747 86.9172 74.1787 88.1142 74.1158L96.0525 73.4863C97.3756 73.4863 98.5096 74.4305 98.6986 75.6895L100.463 84.439C100.715 85.7609 99.9587 86.9569 98.7616 87.0198Z" fill="white"/>
<path d="M90.6975 88.027C89.3115 87.964 88.1144 86.8939 87.8624 85.5091L86.0984 76.7595C85.9094 76.0042 86.0984 75.2488 86.5394 74.6194C86.9174 74.1158 87.4844 73.8011 88.0514 73.7381L95.9897 73.1086C97.4388 73.1086 98.6988 74.1158 99.0138 75.5636L100.778 84.3761C100.967 85.1314 100.778 85.8868 100.337 86.5162C99.9589 87.0198 99.3919 87.3346 98.8248 87.3975L90.8866 88.027H90.6975ZM96.1787 73.7381H96.0527L88.1144 74.3676C87.6734 74.3676 87.2954 74.6194 87.0434 74.9341C86.7284 75.3747 86.6024 76.0042 86.7284 76.5707L88.4925 85.3203C88.6815 86.4533 89.6895 87.2716 90.8235 87.2716L98.7618 86.6421C99.2029 86.5792 99.5809 86.3904 99.8329 86.0127C100.148 85.5721 100.274 84.9426 100.148 84.3761L98.3838 75.7524C98.1948 74.6194 97.3128 73.8011 96.1787 73.7381Z" fill="white"/>
<path d="M49.872 111.632L41.9337 112.261C40.6106 112.261 39.4766 111.317 39.2876 109.995L37.5235 101.246C37.2715 99.9238 38.0275 98.7278 39.2246 98.6649L47.1629 98.0354C48.4859 98.0354 49.62 98.9796 49.809 100.301L51.573 109.051C51.825 110.373 51.069 111.506 49.872 111.632Z" fill="white"/>
<path d="M41.7444 112.576C40.3584 112.513 39.1613 111.443 38.9093 110.058L37.1452 101.309C36.9562 100.553 37.1452 99.7979 37.5863 99.1684C37.9643 98.6649 38.5313 98.3501 39.0983 98.2872L47.0366 97.6577C48.5487 97.6577 49.8087 98.7278 50.0607 100.176L51.8248 108.925C52.0138 109.68 51.8248 110.436 51.3838 111.065C51.0057 111.569 50.4387 111.884 49.8717 111.947L41.9334 112.576H41.7444ZM47.2256 98.2872H47.0996L39.1613 98.9166C38.7203 98.9796 38.3423 99.1684 38.0903 99.5461C37.7753 99.9867 37.6493 100.616 37.7753 101.183L39.5393 109.932C39.7283 111.065 40.7364 111.884 41.8704 111.884L49.8087 111.254C50.2497 111.191 50.6277 111.002 50.8797 110.625C51.1948 110.184 51.3208 109.555 51.1948 108.988L49.4307 100.301C49.2417 99.2314 48.3597 98.4131 47.2256 98.2872Z" fill="white"/>
<path d="M67.5126 110.121L59.5743 110.751C58.2513 110.751 57.1172 109.807 56.9282 108.485L55.1641 99.7352C54.9121 98.4133 55.6682 97.2173 56.8652 97.1544L64.8035 96.5249C66.1265 96.5249 67.2606 97.4691 67.4496 98.791L69.2136 107.541C69.4657 108.862 68.7096 110.058 67.5126 110.121Z" fill="white"/>
<path d="M59.448 111.128C58.062 111.065 56.8649 109.995 56.6129 108.61L54.8489 99.8609C54.6599 99.1055 54.8489 98.3501 55.2899 97.7207C55.6679 97.2171 56.2349 96.9024 56.8019 96.8394L64.7402 96.21C66.1893 96.21 67.5123 97.2171 67.7643 98.6649L69.5284 107.414C69.7174 108.17 69.5284 108.925 69.0874 109.555C68.7093 110.058 68.1423 110.373 67.5753 110.436L59.637 111.065L59.448 111.128ZM64.9292 96.8394H64.8032L56.8649 97.4689C56.4239 97.5318 56.0459 97.7207 55.7939 98.0984C55.4789 98.539 55.3529 99.1684 55.4789 99.735L57.2429 108.485C57.432 109.618 58.44 110.436 59.574 110.436L67.5123 109.806C67.9533 109.743 68.3313 109.555 68.5833 109.177C68.8984 108.736 69.0244 108.107 68.8984 107.54L67.1343 98.7908C66.9453 97.7836 66.0003 96.9653 64.9292 96.8394Z" fill="white"/>
<path d="M85.2162 108.674L77.2779 109.303C75.9549 109.303 74.8208 108.359 74.6318 107.037L72.8678 98.2874C72.6157 96.9655 73.3718 95.7696 74.5688 95.7066L82.5071 95.0771C83.8302 95.0771 84.9642 96.0213 85.1532 97.3432L86.9173 106.093C87.1693 107.415 86.4133 108.611 85.2162 108.674Z" fill="white"/>
<path d="M77.1521 109.681C75.7661 109.618 74.569 108.548 74.317 107.163L72.553 98.4131C72.364 97.6578 72.553 96.9024 72.994 96.2729C73.372 95.7694 73.939 95.4546 74.506 95.3917L82.4443 94.7622C83.8934 94.7622 85.2164 95.7694 85.4684 97.2171L87.2325 105.967C87.4215 106.722 87.2325 107.477 86.7915 108.107C86.4135 108.61 85.8464 108.925 85.2794 108.988L77.3411 109.618L77.1521 109.681ZM82.6333 95.3917H82.5073L74.569 96.0211C74.128 96.0841 73.75 96.2729 73.498 96.6506C73.183 97.0912 73.057 97.7207 73.183 98.2872L74.947 107.037C75.1361 108.17 76.1441 108.988 77.2781 108.988L85.2164 108.359C85.6574 108.359 86.0354 108.107 86.2875 107.792C86.6025 107.352 86.7285 106.722 86.6025 106.156L84.8384 97.406C84.6494 96.2729 83.7674 95.4546 82.6333 95.3917Z" fill="white"/>
<path d="M102.92 107.226L94.9815 107.855C93.6585 107.855 92.5244 106.911 92.3354 105.589L90.5714 96.8394C90.3194 95.5175 91.0754 94.3216 92.2724 94.2586L100.211 93.6292C101.534 93.6292 102.668 94.5733 102.857 95.8952L104.621 104.645C104.873 105.967 104.054 107.1 102.92 107.226Z" fill="white"/>
<path d="M94.7923 108.17C93.4062 108.107 92.2092 107.037 91.9572 105.652L90.1301 96.9024C89.9411 96.147 90.1301 95.3916 90.5711 94.7622C90.9491 94.2586 91.5162 93.9439 92.0832 93.8809L100.021 93.2515C101.534 93.2515 102.794 94.3216 103.046 95.7693L104.81 104.519C104.999 105.274 104.81 106.03 104.369 106.659C103.991 107.163 103.424 107.477 102.857 107.54L94.9183 108.17H94.7923ZM100.273 93.9439H100.147L92.2092 94.5733C91.7682 94.6363 91.3901 94.8251 91.1381 95.2028C90.8231 95.6434 90.6971 96.2729 90.8231 96.8394L92.5872 105.589C92.7762 106.722 93.7842 107.54 94.9183 107.54L102.857 106.911C103.298 106.848 103.676 106.659 103.928 106.281C104.243 105.841 104.369 105.211 104.243 104.645L102.479 95.8952C102.29 94.8251 101.408 94.0068 100.273 93.9439Z" fill="white"/>
<path d="M53.9672 131.775L46.0289 132.404C44.7058 132.404 43.5718 131.46 43.3828 130.201L41.6187 121.388C41.3667 120.067 42.1228 118.871 43.3198 118.808L51.2581 118.178C52.5811 118.178 53.7152 119.122 53.9042 120.381L55.6682 129.131C55.9202 130.516 55.1642 131.712 53.9672 131.775Z" fill="white"/>
<path d="M45.9026 132.782C44.5166 132.719 43.3195 131.649 43.0675 130.264L41.3034 121.514C41.1144 120.759 41.3034 120.004 41.7445 119.374C42.1225 118.871 42.6895 118.556 43.3195 118.493L51.2578 117.864C52.7069 117.864 54.0299 118.871 54.2819 120.318L56.046 129.068C56.235 129.823 56.046 130.579 55.605 131.208C55.227 131.712 54.6599 132.027 54.0299 132.089L46.0916 132.719L45.9026 132.782ZM51.3838 118.493H51.2578L43.3195 119.122C42.8785 119.185 42.5005 119.374 42.2485 119.752C41.9335 120.255 41.8075 120.822 41.9335 121.389L43.6975 130.138C43.8865 131.271 44.8946 132.089 46.0286 132.089L53.9669 131.46C54.4079 131.397 54.7859 131.208 55.038 130.831C55.353 130.327 55.479 129.76 55.353 129.194L53.5259 120.507C53.3369 119.374 52.4549 118.556 51.3838 118.493Z" fill="white"/>
<path d="M71.6078 130.327L63.6695 130.957C62.3465 130.957 61.2124 130.012 61.0234 128.754L59.2594 120.004C59.0074 118.682 59.7634 117.486 60.9604 117.423L68.8987 116.794C70.2217 116.794 71.3558 117.738 71.5448 118.997L73.3089 127.746C73.6239 129.068 72.8678 130.201 71.6078 130.327Z" fill="white"/>
<path d="M63.5432 131.334C62.1572 131.271 60.9601 130.201 60.7081 128.816L58.9441 120.067C58.7551 119.311 58.9441 118.556 59.3851 117.926C59.7631 117.423 60.3301 117.108 60.9601 117.045L68.8984 116.416C70.3475 116.416 71.6705 117.423 71.9225 118.934L73.6866 127.683C73.8756 128.439 73.6866 129.194 73.2456 129.823C72.8676 130.327 72.3006 130.642 71.6705 130.705L63.7322 131.334H63.5432ZM69.0244 117.045H68.8984L60.9601 117.675C60.5191 117.738 60.1411 117.926 59.8891 118.304C59.5741 118.808 59.4481 119.374 59.5741 119.941L61.3382 128.69C61.5272 129.823 62.5352 130.642 63.6692 130.642L71.6075 130.012C72.0485 129.949 72.4266 129.76 72.6786 129.383C72.9936 128.879 73.1196 128.313 72.9936 127.746L71.2295 118.997C71.0405 117.926 70.1585 117.108 69.0244 117.045Z" fill="white"/>
<path d="M89.3114 128.879L81.3731 129.509C80.0501 129.509 78.916 128.564 78.727 127.306L76.963 118.556C76.711 117.234 77.467 116.038 78.664 115.975L86.6023 115.346C87.9254 115.346 89.0594 116.29 89.2484 117.549L91.0125 126.361C91.2645 127.62 90.5085 128.753 89.3114 128.879Z" fill="white"/>
<path d="M81.2469 129.823C79.8608 129.76 78.6638 128.69 78.4118 127.306L76.6477 118.556C76.4587 117.801 76.6477 117.045 77.0887 116.416C77.4667 115.912 78.0337 115.597 78.6638 115.597L86.602 114.968C88.0511 114.968 89.3741 115.975 89.6261 117.486L91.3902 126.235C91.5792 126.991 91.3902 127.746 90.9492 128.376C90.5712 128.879 90.0042 129.194 89.3741 129.257L81.4359 129.886L81.2469 129.823ZM86.728 115.597H86.602L78.6638 116.227C78.2227 116.29 77.8447 116.479 77.5927 116.856C77.2777 117.36 77.1517 117.927 77.2777 118.493L79.0418 127.243C79.2308 128.376 80.2388 129.194 81.3729 129.194L89.3111 128.564C89.7521 128.502 90.1302 128.313 90.3822 127.935C90.6972 127.494 90.8232 126.865 90.6972 126.298L88.9331 117.486C88.6811 116.479 87.7991 115.66 86.728 115.597Z" fill="white"/>
<path d="M107.015 127.431L99.0768 128.061C97.7537 128.061 96.6197 127.117 96.4307 125.858L94.6036 117.108C94.3516 115.786 95.1076 114.59 96.3047 114.527L104.243 113.898C105.566 113.898 106.7 114.842 106.889 116.101L108.653 124.851C108.968 126.173 108.212 127.306 107.015 127.431Z" fill="white"/>
<path d="M98.8875 128.376C97.5014 128.313 96.3044 127.243 96.0524 125.858L94.2883 117.108C94.0993 116.353 94.2883 115.597 94.7293 114.968C95.1073 114.464 95.6744 114.15 96.2414 114.087L104.18 113.457C105.629 113.457 106.952 114.464 107.204 115.912L108.968 124.662C109.157 125.417 108.968 126.172 108.527 126.802C108.149 127.306 107.582 127.62 106.952 127.683L99.0135 128.313L98.8875 128.376ZM104.369 114.087H104.243L96.3044 114.716C95.8634 114.779 95.4854 114.968 95.2333 115.346C94.9183 115.786 94.7923 116.416 94.9183 116.982L96.6824 125.732C96.8714 126.865 97.8794 127.683 99.0135 127.683L106.952 127.054C107.393 127.054 107.771 126.802 108.023 126.424C108.338 125.921 108.464 125.354 108.338 124.788L106.574 115.975C106.385 115.031 105.503 114.213 104.369 114.087Z" fill="white"/>
<path d="M58.0624 151.981L50.1241 152.61C48.8011 152.61 47.667 151.666 47.478 150.407L45.7139 141.657C45.4619 140.335 46.218 139.139 47.415 139.076L55.3533 138.447C56.6763 138.447 57.8104 139.391 57.9994 140.65L59.7635 149.4C60.0155 150.722 59.2594 151.855 58.0624 151.981Z" fill="white"/>
<path d="M49.9978 152.925C48.6118 152.862 47.4147 151.792 47.1627 150.407L45.3987 141.657C45.2097 140.902 45.3987 140.147 45.8397 139.517C46.2177 139.013 46.7847 138.699 47.3517 138.636L55.29 138.006C56.7391 138.006 58.0621 139.013 58.3141 140.524L60.0782 149.274C60.2672 150.029 60.0782 150.784 59.6372 151.414C59.2592 151.918 58.6921 152.232 58.0621 152.295L50.1238 152.925H49.9978ZM55.479 138.699H55.353L47.4147 139.328C46.9737 139.328 46.5957 139.58 46.3437 139.958C46.0287 140.398 45.9027 141.028 46.0287 141.594L47.7928 150.344C47.9818 151.477 48.9898 152.295 50.1238 152.295L58.0621 151.666C58.5031 151.603 58.8811 151.414 59.1332 151.036C59.4482 150.596 59.5742 149.966 59.4482 149.4L57.6841 140.65C57.4321 139.58 56.5501 138.762 55.479 138.699Z" fill="white"/>
<path d="M75.766 150.533L67.8277 151.162C66.5047 151.162 65.3706 150.218 65.1816 148.959L63.4176 140.147C63.1656 138.825 63.9216 137.629 65.1186 137.566L73.0569 136.937C74.3799 136.937 75.514 137.881 75.703 139.14L77.4671 147.889C77.7191 149.274 76.963 150.407 75.766 150.533Z" fill="white"/>
<path d="M67.6385 151.477C66.2524 151.414 65.0554 150.344 64.8034 148.959L63.0393 140.147C62.8503 139.391 63.0393 138.636 63.4803 138.007C63.8583 137.503 64.4253 137.188 64.9924 137.125L72.9306 136.496C74.3797 136.496 75.7027 137.503 75.9547 138.951L77.7188 147.7C77.9078 148.456 77.7188 149.211 77.2778 149.841C76.8998 150.344 76.3328 150.659 75.7657 150.722L67.8275 151.351L67.6385 151.477ZM73.1196 137.188H72.9936L65.0554 137.818C64.6143 137.881 64.2363 138.07 63.9843 138.447C63.6693 138.888 63.5433 139.517 63.6693 140.084L65.4334 148.896C65.6224 150.029 66.6304 150.848 67.7645 150.848L75.7027 150.218C76.1437 150.155 76.5218 149.966 76.7738 149.589C77.0888 149.148 77.2148 148.519 77.0888 147.952L75.3247 139.203C75.1357 138.132 74.2537 137.314 73.1196 137.188Z" fill="white"/>
<path d="M93.4066 149.022L85.4683 149.651C84.1453 149.651 83.0113 148.707 82.8223 147.448L81.0582 138.699C80.8062 137.377 81.5622 136.181 82.7593 136.118L90.6975 135.489C92.0206 135.489 93.1546 136.433 93.4066 137.692L95.1707 146.441C95.3597 147.763 94.6037 148.959 93.4066 149.022Z" fill="white"/>
<path d="M85.3421 150.029C83.956 149.966 82.759 148.896 82.507 147.512L80.7429 138.762C80.5539 138.007 80.7429 137.251 81.1839 136.622C81.5619 136.118 82.129 135.803 82.696 135.741L90.6343 135.111C92.0833 135.111 93.4064 136.118 93.6584 137.629L95.4224 146.379C95.6114 147.134 95.4224 147.889 94.9814 148.519C94.6034 149.022 94.0364 149.337 93.4694 149.4L85.5311 150.029H85.3421ZM90.8233 135.741H90.6973L82.759 136.37C82.318 136.433 81.9399 136.622 81.6879 136.999C81.3729 137.44 81.2469 138.07 81.3729 138.636L83.137 147.386C83.326 148.519 84.334 149.337 85.4681 149.337L93.4064 148.708C93.8474 148.645 94.2254 148.456 94.4774 148.078C94.7924 147.637 94.9184 147.008 94.7924 146.441L93.0284 137.692C92.8393 136.622 91.9573 135.803 90.8233 135.741Z" fill="white"/>
<path d="M111.11 147.574L103.172 148.204C101.849 148.204 100.715 147.26 100.526 146.001L98.7618 137.251C98.5098 135.929 99.2658 134.733 100.463 134.67L108.401 134.041C109.724 134.041 110.858 134.985 111.047 136.244L112.811 145.056C113.063 146.315 112.307 147.511 111.11 147.574Z" fill="white"/>
<path d="M103.046 148.581C101.66 148.518 100.463 147.448 100.211 146.064L98.4465 137.314C98.2575 136.559 98.4465 135.803 98.8875 135.174C99.2655 134.67 99.8326 134.355 100.4 134.293L108.338 133.663C109.787 133.663 111.047 134.67 111.362 136.118L113.126 144.931C113.315 145.686 113.126 146.441 112.685 147.071C112.307 147.574 111.74 147.889 111.11 147.952L103.172 148.581H103.046ZM108.464 134.293H108.338L100.4 134.922C99.9586 134.985 99.5806 135.174 99.3285 135.551C99.0135 135.992 98.8875 136.622 99.0135 137.188L100.778 145.938C100.967 147.071 101.975 147.889 103.109 147.889L111.047 147.26C111.488 147.197 111.866 147.008 112.118 146.63C112.433 146.189 112.559 145.56 112.433 144.993L110.669 136.244C110.48 135.174 109.598 134.355 108.464 134.293Z" fill="white"/>
<path d="M62.1576 172.187L54.2193 172.816C52.8963 172.816 51.7622 171.872 51.5732 170.613L49.8092 161.863C49.5572 160.541 50.3132 159.345 51.5102 159.283L59.4485 158.653C60.7716 158.653 61.9056 159.597 62.0946 160.856L63.8587 169.606C64.1107 170.928 63.3546 172.061 62.1576 172.187Z" fill="#263238"/>
<path d="M79.8607 170.676L71.9225 171.305C70.5994 171.305 69.4654 170.361 69.2764 169.102L67.5123 160.353C67.2603 159.031 68.0163 157.835 69.2134 157.772L77.1516 157.142C78.4747 157.142 79.6087 158.087 79.7977 159.345L81.5618 168.095C81.8138 169.417 81.0578 170.613 79.8607 170.676Z" fill="#263238"/>
<path d="M97.5014 169.228L89.5631 169.858C88.24 169.858 87.106 168.913 86.917 167.654L85.1529 158.905C84.9009 157.583 85.6569 156.387 86.854 156.324L94.7923 155.695C96.1153 155.695 97.2494 156.639 97.4384 157.898L99.2024 166.647C99.4544 167.969 98.6984 169.102 97.5014 169.228Z" fill="#263238"/>
<path d="M115.205 167.78L107.267 168.41C105.944 168.41 104.81 167.466 104.621 166.207L102.857 157.457C102.605 156.135 103.361 154.939 104.558 154.876L112.496 154.247C113.819 154.247 114.953 155.191 115.142 156.45L116.907 165.2C117.159 166.521 116.402 167.654 115.205 167.78Z" fill="#263238"/>
<path d="M70.2219 96.5876C67.8908 96.5876 65.5597 94.5733 65.0557 91.9925L61.4015 74.1786C61.0865 72.8568 61.4015 71.409 62.1576 70.3389C62.7876 69.4577 63.7956 68.8911 64.8667 68.8282L80.9322 67.5063C83.3893 67.3175 85.9094 69.3947 86.4134 72.1014L90.0676 89.9153C90.3826 91.2371 90.1306 92.622 89.3115 93.755C88.6815 94.6363 87.6735 95.2028 86.5394 95.2657L70.4739 96.5876H70.2219ZM81.3103 67.6322H80.9952L64.9297 68.9541C63.8586 69.017 62.9136 69.5835 62.2836 70.4018C61.5275 71.4719 61.2755 72.8568 61.5275 74.1157L65.1817 91.9296C65.7487 94.5733 68.1428 96.5876 70.5369 96.3988L86.6024 95.0769C87.6735 95.0139 88.6185 94.4474 89.2485 93.6291C90.0046 92.559 90.2566 91.1742 90.0046 89.9153L86.3504 72.1014C85.7834 69.5835 83.6413 67.6322 81.3103 67.6322Z" fill="#263238"/>
<path d="M71.0405 94.5735C68.9615 94.5735 67.0084 92.811 66.5674 90.5449L63.4803 75.3118C63.2283 74.1788 63.4803 72.9199 64.1733 71.9757C64.7403 71.2203 65.6223 70.7167 66.5674 70.6538L80.3019 69.5208C82.4439 69.3319 84.586 71.1574 85.09 73.5493L88.1771 88.7824C88.4292 89.9154 88.1771 91.1744 87.4841 92.1186C86.9171 92.8739 86.0351 93.3775 85.09 93.4404L71.3556 94.5735C71.2296 94.5735 71.1035 94.5735 71.0405 94.5735ZM80.4909 69.8355C80.4279 69.8355 80.3019 69.8355 80.2389 69.8355L66.5044 70.9685C65.6224 71.0315 64.8663 71.4721 64.3623 72.1645C63.7323 73.0458 63.4803 74.1788 63.7323 75.2489L66.8194 90.482C67.2604 92.748 69.2765 94.3846 71.2926 94.1958L85.027 93.0628C85.9091 92.9998 86.6651 92.5592 87.1691 91.8668C87.7991 90.9855 88.0511 89.8525 87.7991 88.7824L84.712 73.5493C84.271 71.4721 82.4439 69.8355 80.4909 69.8355Z" fill="#263238"/>
<path d="M72.1118 91.8038C70.3477 91.6779 68.8357 90.356 68.5207 88.5935L66.1266 76.8855C65.9376 75.9413 66.1266 74.9971 66.6306 74.1788C67.0716 73.5493 67.8276 73.1716 68.5837 73.1087L79.168 72.2274C80.8691 72.1015 82.6332 73.4864 83.0112 75.4377L85.4053 87.2087C85.5943 88.1529 85.4053 89.0971 84.8382 89.9154C84.3972 90.5449 83.7042 90.9225 82.8852 90.9855L72.3008 91.8667L72.1118 91.8038ZM79.4201 72.731H79.2311L68.6467 73.6122C68.0166 73.6752 67.4496 73.9899 67.0716 74.4935C66.5676 75.1859 66.4416 76.0042 66.6306 76.8225L69.0247 88.5935C69.3397 90.2301 70.8518 91.4891 72.3638 91.3632L82.9482 90.4819C83.5782 90.419 84.1452 90.1042 84.5232 89.6007C85.0273 88.9083 85.1533 88.09 84.9643 87.2716L82.5702 75.5006C82.2552 73.9899 80.9951 72.7939 79.4201 72.731Z" fill="#263238"/>
<path d="M81.121 88.5305L73.1827 89.16C71.8597 89.16 70.7256 88.2158 70.5366 86.8939L68.7725 78.1444C68.5205 76.8225 69.2766 75.6265 70.4736 75.5635L78.4119 74.9341C79.7349 74.9341 80.869 75.8783 81.058 77.2002L82.822 85.9497C83.0741 87.2716 82.318 88.4046 81.121 88.5305Z" fill="#263238"/>
<path d="M125.285 89.9154C125.285 89.9154 96.3673 83.1802 94.7293 82.8654C93.0912 82.5507 86.413 80.5364 84.8379 80.5993C83.2629 80.6623 77.6557 81.4177 76.5846 81.9842C75.5136 82.5507 75.8916 83.0543 76.4586 82.9913L82.3809 82.173L85.468 83.9355C85.468 83.9355 83.5779 85.8239 83.4519 87.0828C83.1999 90.2302 83.2629 90.9855 83.9559 90.8596C84.6489 90.7337 84.7749 87.2087 84.7749 87.2087L85.279 86.8311L85.783 89.4748C85.783 89.4748 86.476 90.419 86.854 89.3489C87.106 88.6565 86.602 86.9569 86.602 86.9569L87.61 86.0757C87.61 86.0757 87.8621 88.2788 88.3661 88.5306C88.8701 88.7824 89.1221 88.5306 89.0591 88.09C88.9961 87.6494 88.7441 86.0128 88.7441 86.0128L90.5711 84.8797C90.5711 84.8797 119.993 97.2172 123.017 97.7208C125.096 97.9726 127.238 97.8467 129.255 97.3431L125.285 89.9154Z" fill="white"/>
<path d="M124.971 98.2242C124.341 98.2242 123.648 98.1613 123.018 98.0983C119.994 97.6577 93.1546 86.3903 90.6345 85.3202L89.1225 86.2644C89.1855 86.705 89.3745 87.7751 89.3745 88.0898C89.4375 88.4046 89.3115 88.6564 89.0595 88.8452C88.8075 89.034 88.4294 89.034 88.1774 88.8452C87.7364 88.5934 87.4844 87.5233 87.3584 86.705L86.9174 87.0827C87.0434 87.5863 87.3584 88.8452 87.1064 89.4747C86.9804 89.9153 86.7284 90.1041 86.4134 90.1671C85.9093 90.23 85.5313 89.7264 85.4683 89.6635C85.4683 89.6006 85.4053 89.6006 85.4053 89.5376L85.0273 87.3974C84.9643 89.097 84.7123 91.1113 83.9563 91.1742C83.7043 91.2372 83.5153 91.1742 83.3263 90.9854C82.8852 90.6077 82.8852 89.6635 83.1373 87.0197C83.2003 85.9497 84.3973 84.5648 84.9643 83.9983L82.3182 82.4876L76.522 83.243C76.144 83.3059 75.829 83.1171 75.64 82.8023C75.577 82.5505 75.577 82.1099 76.459 81.6063C77.6561 80.9769 83.3893 80.2215 84.8383 80.1586C85.9724 80.0956 89.7525 81.1028 92.4616 81.7952C93.4696 82.047 94.3517 82.2988 94.7927 82.4246C96.4307 82.8023 125.034 89.4117 125.349 89.4747C125.412 89.4747 125.538 89.5376 125.538 89.6006L129.57 97.0912C129.633 97.1541 129.633 97.28 129.57 97.343C129.507 97.4059 129.444 97.4689 129.381 97.5318C127.932 98.0354 126.483 98.2242 124.971 98.2242ZM90.5715 84.6278C90.6345 84.6278 90.6345 84.6278 90.6975 84.6278C91.0125 84.7537 120.12 96.9653 123.081 97.4059C124.971 97.6577 126.924 97.5318 128.814 97.0912L125.097 90.1041C122.892 89.6006 96.2417 83.4318 94.6667 83.0541C94.2257 82.9282 93.3436 82.7394 92.2726 82.4246C89.7525 81.7322 85.9093 80.7251 84.8383 80.788C83.2633 80.851 77.7191 81.6063 76.711 82.1099C76.27 82.3617 76.207 82.4876 76.207 82.5505C76.207 82.6135 76.27 82.5505 76.333 82.5505H76.396L82.3182 81.7952C82.3812 81.7952 82.4442 81.7952 82.5072 81.8581L85.5943 83.6206C85.6573 83.6836 85.7203 83.7465 85.7203 83.8724C85.7203 83.9983 85.7203 84.0613 85.6573 84.1242C85.1533 84.6278 83.8303 86.1385 83.7043 87.0197C83.6413 88.2157 83.4523 90.23 83.7043 90.4818C83.7673 90.4818 83.7673 90.4818 83.8303 90.4818C84.0823 90.293 84.3343 88.7193 84.3343 87.0827C84.3343 86.9568 84.3973 86.8939 84.4603 86.8309L84.9643 86.4532C85.0273 86.3903 85.1533 86.3903 85.2793 86.3903C85.4053 86.4532 85.4683 86.5162 85.4683 86.6421L85.9724 89.2229C86.0984 89.3488 86.2244 89.4117 86.2874 89.4117C86.3504 89.4117 86.4134 89.3488 86.4764 89.1599C86.5394 88.4046 86.4764 87.6492 86.2244 86.9568C86.1614 86.8309 86.2244 86.705 86.3504 86.6421L87.3584 85.7608C87.4214 85.6979 87.5474 85.6979 87.6734 85.6979C87.7994 85.7608 87.8624 85.8238 87.8624 85.9497C87.9884 87.0197 88.2404 88.0269 88.4924 88.2157C88.5554 88.2787 88.6184 88.2787 88.7444 88.2157C88.7444 88.2157 88.8075 88.1528 88.7444 88.0898C88.6814 87.6492 88.4294 86.0755 88.4294 86.0755C88.4294 85.9497 88.4924 85.8238 88.5555 85.7608L90.3825 84.6278C90.5085 84.5648 90.5085 84.6278 90.5715 84.6278Z" fill="#263238"/>
<path d="M209.898 106.659C209.898 106.659 207.945 109.806 208.449 110.058C208.953 110.31 211.032 107.792 211.032 107.792L210.024 110.939C210.024 110.939 209.961 111.569 211.095 110.814C212.229 110.058 211.977 107.981 211.977 107.981L212.103 111.317C212.103 111.317 211.347 112.513 212.418 112.387C213.489 112.261 213.678 109.681 213.552 108.925C213.3 107.981 212.859 107.163 212.292 106.407C211.662 105.652 210.087 105.841 209.898 106.659Z" fill="white"/>
<path d="M212.229 112.702C211.977 112.702 211.725 112.639 211.599 112.387C211.347 112.01 211.599 111.443 211.788 111.191V110.562C211.662 110.751 211.473 110.939 211.284 111.065C210.654 111.506 210.213 111.632 209.961 111.443C209.772 111.317 209.709 111.128 209.709 110.939L210.276 109.177C208.89 110.625 208.512 110.436 208.323 110.373C208.197 110.31 208.134 110.184 208.071 110.058C207.882 109.429 209.079 107.414 209.646 106.596C209.835 106.093 210.276 105.778 210.78 105.715C211.41 105.526 212.103 105.715 212.544 106.218C213.174 106.974 213.678 107.918 213.867 108.925C213.93 109.618 213.867 110.31 213.741 111.002C213.426 112.324 212.859 112.702 212.481 112.765C212.418 112.702 212.292 112.702 212.229 112.702ZM212.166 112.073C212.229 112.073 212.292 112.073 212.355 112.073C212.67 112.01 212.922 111.569 213.111 110.814C213.237 110.184 213.3 109.555 213.237 108.925C212.985 108.044 212.607 107.226 212.04 106.533C211.725 106.218 211.284 106.156 210.906 106.281C210.654 106.344 210.402 106.533 210.276 106.785C210.276 106.848 210.276 106.848 210.213 106.848C209.646 107.729 209.142 108.736 208.764 109.743C209.52 109.114 210.213 108.422 210.843 107.603C210.969 107.477 211.095 107.477 211.221 107.54C211.347 107.603 211.41 107.792 211.347 107.918L210.402 110.877C210.591 110.814 210.78 110.688 210.969 110.562C211.536 110.058 211.788 109.366 211.725 108.673V107.981C211.725 107.792 211.851 107.666 212.04 107.666C212.229 107.666 212.355 107.792 212.355 107.918C212.355 108.17 212.418 108.422 212.355 108.61L212.418 111.254C212.418 111.317 212.418 111.38 212.355 111.443C212.292 111.632 212.229 111.821 212.166 112.073Z" fill="#263238"/>
<path d="M188.099 80.4734C188.099 80.4734 191.69 81.1658 193.58 82.1729C195.47 83.1801 209.897 98.4132 210.275 100.113C210.716 101.875 211.472 103.575 212.543 105.023C213.3 106.03 215.757 109.051 215.946 110.31C216.135 111.569 215.631 112.576 215.001 111.695C214.371 110.814 213.048 108.799 211.976 107.981C210.905 107.163 207.629 106.47 207.629 106.47C207.629 107.477 207.566 108.485 207.377 109.492C207.062 110.94 205.991 112.198 205.865 111.443C205.676 110.121 205.55 108.736 205.613 107.352C205.739 105.904 205.739 103.386 205.739 103.386L206.18 100.616C206.18 100.616 196.604 94.5734 193.013 92.685C189.422 90.7966 186.146 88.6564 186.146 88.6564L183.877 88.4676C183.877 88.4676 184.003 84.502 185.389 82.8654C186.209 82.0471 187.091 81.1658 188.099 80.4734Z" fill="white"/>
<path d="M215.442 112.324C215.127 112.324 214.875 112.136 214.749 111.884C214.182 111.003 212.796 108.988 211.788 108.233C211.031 107.666 208.826 107.1 207.944 106.911C207.944 107.792 207.881 108.736 207.692 109.618C207.503 110.751 206.747 112.073 206.054 112.073C205.802 112.073 205.55 111.821 205.55 111.569C205.361 110.184 205.235 108.799 205.298 107.415C205.424 106.03 205.424 103.512 205.424 103.449L205.802 100.868C204.479 100.05 196.1 94.8253 192.887 93.0628C189.674 91.3003 186.524 89.4119 186.02 89.0971L183.815 88.9083C183.626 88.9083 183.5 88.7824 183.5 88.5936C183.5 88.4047 183.626 84.502 185.075 82.8025C185.894 81.8583 186.839 80.977 187.847 80.2846C187.91 80.2217 187.973 80.2217 188.099 80.2217C188.225 80.2217 191.753 80.9141 193.643 81.9212C195.533 82.9284 210.086 98.1614 210.527 100.05C210.968 101.749 211.724 103.386 212.733 104.834L213.111 105.337C214.56 107.163 216.072 109.177 216.198 110.31C216.324 111.128 216.198 112.136 215.568 112.324C215.568 112.324 215.505 112.324 215.442 112.324ZM207.629 106.156H207.692C207.818 106.219 211.031 106.848 212.165 107.729C213.3 108.611 214.686 110.625 215.253 111.506C215.379 111.695 215.442 111.695 215.442 111.695C215.631 111.254 215.694 110.814 215.631 110.31C215.505 109.303 213.615 106.848 212.67 105.652L212.292 105.149C211.22 103.638 210.464 101.938 209.96 100.113C209.645 98.728 195.407 83.4949 193.391 82.3619C191.69 81.6065 189.926 81.04 188.162 80.7253C187.217 81.4177 186.398 82.173 185.642 83.0543C184.571 84.3132 184.319 87.2087 184.256 88.1529L186.209 88.2788C186.272 88.2788 186.335 88.2788 186.335 88.3418C186.335 88.3418 189.674 90.482 193.202 92.3074C196.73 94.1329 206.243 100.176 206.369 100.239C206.495 100.302 206.558 100.428 206.495 100.553L206.054 103.323C206.054 103.386 206.054 105.841 205.928 107.289C205.865 108.611 205.928 109.87 206.117 111.191C206.558 110.688 206.873 110.058 206.999 109.366C207.188 108.359 207.251 107.415 207.251 106.407C207.251 106.282 207.314 106.219 207.377 106.156C207.503 106.219 207.566 106.156 207.629 106.156Z" fill="#263238"/>
<path d="M165.292 121.2L165.922 129.194C165.922 129.194 162.961 155.632 168.883 163.248C174.805 170.865 194.021 190.819 194.021 190.819L197.045 187.231C197.045 187.231 186.335 166.458 184.319 163.5C182.303 160.541 179.089 152.799 179.089 152.799C179.089 152.799 185.705 125.228 186.209 122.773C186.713 120.319 186.461 113.709 186.335 113.08C186.209 112.45 178.774 116.164 174.427 117.675C170.08 119.186 165.292 121.2 165.292 121.2Z" fill="#263238"/>
<path d="M193.958 191.196C193.895 191.196 193.769 191.133 193.706 191.07C193.517 190.882 174.427 170.99 168.505 163.437C162.583 155.883 165.355 130.201 165.481 129.131L164.851 121.2C164.851 121.074 164.914 120.948 165.04 120.885C165.103 120.885 169.765 118.997 174.112 117.423C175.94 116.794 178.397 115.723 180.539 114.779C184.76 112.954 185.894 112.513 186.272 112.765C186.398 112.828 186.461 112.954 186.461 113.017C186.524 113.646 186.776 120.319 186.335 122.836C185.894 125.228 179.72 150.659 179.216 152.736C179.594 153.617 182.555 160.604 184.382 163.311C186.335 166.207 196.667 186.224 197.108 187.042C197.171 187.168 197.171 187.294 197.045 187.357L194.021 190.945C194.147 191.133 194.021 191.196 193.958 191.196ZM165.607 121.389L166.174 129.194C166.174 129.509 163.276 155.632 169.072 163.059C174.553 170.109 191.69 188.049 193.958 190.378L196.604 187.231C195.533 185.153 185.894 166.458 184.004 163.752C182.051 160.856 178.838 153.303 178.712 152.988C178.712 152.925 178.712 152.862 178.712 152.799C178.775 152.547 185.327 125.228 185.831 122.836C186.272 120.633 186.083 114.779 185.957 113.457C184.256 114.024 182.555 114.716 180.854 115.472C178.712 116.416 176.255 117.423 174.364 118.115C170.647 119.374 166.552 121.011 165.607 121.389Z" fill="#263238"/>
<path d="M176.633 123.151C176.633 123.151 174.553 125.48 175.12 126.047L175.688 126.613C175.688 126.613 164.032 141.846 162.52 145.812C161.008 149.777 157.984 159.408 158.047 159.912C158.11 160.415 160.063 162.052 161.323 161.989C162.583 161.926 201.896 164.696 201.896 164.696L202.778 160.793L174.238 151.729C174.238 151.729 191.375 126.739 192.194 124.41C193.013 122.081 191.942 114.464 191.816 113.331C191.69 112.198 190.178 110.688 188.918 110.876C187.658 111.065 176.948 118.682 176.948 118.682" fill="#263238"/>
<path d="M201.896 165.073C201.518 165.073 162.772 162.367 161.386 162.367C160.063 162.367 157.858 160.73 157.795 159.975C157.732 159.219 160.945 149.337 162.268 145.749C163.717 141.972 173.797 128.627 175.309 126.676L174.931 126.298C174.301 125.606 175.561 123.906 176.444 122.962C176.57 122.836 176.759 122.836 176.885 122.962C177.011 123.088 177.011 123.277 176.885 123.403C176.003 124.41 175.246 125.606 175.372 125.858L175.939 126.424C176.066 126.55 176.066 126.739 175.939 126.865C175.813 126.991 164.284 142.098 162.835 146.001C161.26 150.092 158.425 159.282 158.362 159.975C158.488 160.289 160.252 161.8 161.323 161.8C162.709 161.8 197.927 164.192 201.644 164.444L202.4 161.045L174.112 152.106C173.986 152.043 173.923 151.981 173.923 151.918C173.86 151.855 173.923 151.729 173.986 151.666C179.909 143.042 191.312 126.235 191.879 124.41C192.572 122.333 191.753 115.534 191.501 113.457C191.375 112.891 191.06 112.324 190.556 111.947C190.178 111.506 189.548 111.254 188.981 111.254C188.099 111.38 181.295 116.038 177.137 118.997C177.011 119.122 176.822 119.059 176.696 118.934C176.57 118.808 176.633 118.619 176.759 118.493C177.893 117.738 187.595 110.813 188.855 110.625C189.674 110.562 190.43 110.876 190.934 111.443C191.501 111.947 191.879 112.576 192.068 113.331C192.446 115.975 193.202 122.396 192.446 124.536C191.69 126.676 176.885 148.455 174.679 151.603L202.841 160.541C203.03 160.604 203.093 160.73 203.03 160.919L202.148 164.822C202.148 164.947 202.085 165.073 201.896 165.073Z" fill="#263238"/>
<path d="M144.186 84.8167C135.681 87.5234 136.122 87.4604 136.122 87.4604L123.773 89.2859L129.255 100.113L143.619 101.749C143.619 101.749 157.669 115.031 160.315 115.535C162.961 116.038 164.536 119.123 164.536 119.123C164.536 119.123 163.528 120.948 164.914 121.766C166.3 122.585 168.316 122.71 172.6 121.577C176.884 120.444 182.996 116.919 185.831 114.653C188.666 112.387 192.761 109.743 191.438 108.61C190.241 107.792 188.981 107.1 187.595 106.659L174.49 93.0627L185.327 93.881C185.327 93.881 185.201 87.5863 185.39 85.572C185.579 83.5577 188.162 80.4734 188.162 80.4734C188.162 80.4734 174.301 79.4662 170.332 78.8367C166.363 78.2073 162.52 78.4591 160.945 79.2144C159.37 79.9698 151.998 81.9841 151.62 82.047C151.242 82.11 144.186 84.8167 144.186 84.8167Z" fill="white"/>
<path d="M167.686 122.711C166.678 122.774 165.67 122.522 164.788 122.018C163.528 121.326 163.843 119.878 164.221 119.06C163.906 118.493 162.457 116.164 160.315 115.787C157.669 115.283 144.753 103.134 143.493 102.001L129.066 100.365L123.333 88.9713L136.122 87.1459C136.752 86.8311 138.642 86.2646 144.123 84.5021C145.32 84.0615 151.117 81.8584 151.558 81.7954C151.999 81.7325 159.307 79.7811 160.819 79.0258C162.583 78.1445 166.489 78.0186 170.395 78.5851C174.301 79.2146 188.036 80.2218 188.162 80.2218L188.792 80.2847L188.414 80.7883C188.414 80.7883 185.894 83.8097 185.705 85.6981C185.516 87.5865 185.705 93.8811 185.705 93.9441V94.3218L175.309 93.5035L187.847 106.533C189.233 106.974 190.556 107.603 191.69 108.485C191.942 108.674 192.068 108.988 192.068 109.24C192.005 110.436 189.863 112.136 187.532 113.898C187.028 114.276 186.524 114.653 186.083 115.031C183.311 117.171 177.199 120.822 172.726 122.018C171.025 122.396 169.324 122.648 167.686 122.711ZM129.444 99.7981L143.745 101.435L143.808 101.498C147.714 105.149 158.299 114.779 160.378 115.22C163.15 115.724 164.725 118.871 164.788 118.997L164.851 119.123L164.788 119.249C164.788 119.312 163.906 120.822 165.04 121.515C166.174 122.207 167.812 122.585 172.537 121.326C176.884 120.193 182.933 116.605 185.642 114.465C186.083 114.087 186.587 113.709 187.091 113.332C188.981 111.884 191.375 110.121 191.375 109.177C191.375 109.051 191.312 108.925 191.249 108.862C190.115 108.044 188.855 107.415 187.532 106.974H187.469L187.406 106.911L173.734 92.6222L185.075 93.5035C185.075 92.1816 185.012 87.2718 185.138 85.5093C185.264 83.8727 186.839 81.6695 187.595 80.7253C184.886 80.5365 173.797 79.6552 170.332 79.1517C166.615 78.5851 162.772 78.711 161.134 79.5293C159.496 80.3476 152.188 82.299 151.684 82.3619C151.306 82.4249 147.021 84.0615 144.375 85.0686C137.13 87.3977 136.437 87.6494 136.311 87.7124L136.185 87.4606L136.248 87.7753L124.341 89.4749L129.444 99.7981Z" fill="#263238"/>
<path d="M152.944 94.7622L158.173 102.127L159.559 100.868L155.716 96.147" fill="white"/>
<path d="M182.807 106.596C183.248 106.533 183.752 106.533 184.193 106.47Z" fill="white"/>
<path d="M144.879 86.4533C145.635 88.7823 146.202 91.1113 146.706 93.5033C146.958 95.6435 145.95 97.5948 147.21 97.2801C148.471 96.9653 148.408 93.4403 148.408 93.4403L152.944 94.3845L154.96 90.2301C154.96 90.2301 158.677 93.5662 158.614 91.8667C158.551 90.1671 154.708 82.8653 154.456 81.1658C154.204 79.4662 152.188 79.0256 150.739 80.2216C149.29 81.4176 144.879 86.4533 144.879 86.4533Z" fill="white"/>
<path d="M146.959 97.5947C146.77 97.5947 146.644 97.5318 146.518 97.4689C146.203 97.1541 146.203 96.5876 146.329 95.7693C146.455 95.0139 146.455 94.2586 146.392 93.5032C145.887 91.1113 145.32 88.7822 144.627 86.5162L144.564 86.3273L144.69 86.2014C144.879 86.0126 149.227 81.1657 150.613 79.9697C151.369 79.2773 152.503 79.0255 153.511 79.4032C154.267 79.655 154.771 80.3474 154.834 81.1028C154.96 81.8581 155.842 83.9354 156.724 85.9496C157.858 88.5305 158.929 90.9224 158.929 91.8666C158.992 92.1814 158.866 92.4961 158.551 92.622C157.795 92.9997 156.031 91.6148 155.023 90.7336L153.07 94.6992L148.66 93.755C148.66 94.8251 148.471 97.28 147.211 97.5318C147.148 97.5947 147.022 97.5947 146.959 97.5947ZM146.896 96.9653C146.959 96.9653 147.022 96.9653 147.085 96.9653C147.778 96.7764 148.03 94.7622 148.03 93.3773V92.9997L152.755 94.0068L154.834 89.7264L155.149 89.9782C156.472 91.1742 157.921 92.1184 158.299 92.0555C158.299 92.0555 158.299 91.9925 158.299 91.9296C158.236 91.1113 157.102 88.5305 156.094 86.2644C155.149 84.1242 154.204 82.1099 154.141 81.2287C154.078 80.6621 153.7 80.2215 153.196 80.0327C152.44 79.7809 151.558 79.9697 150.928 80.5363C149.668 81.6063 145.888 85.8238 145.194 86.5791C145.888 88.8452 146.518 91.1742 146.959 93.5032C147.022 94.3215 147.022 95.0769 146.896 95.8952C146.833 96.2099 146.833 96.5876 146.896 96.9653Z" fill="#263238"/>
<path d="M139.02 84.6279C140.469 85.3203 141.918 85.9498 143.43 86.4534C145.068 86.9569 153.196 96.4619 152.944 94.3217C152.692 92.1815 152.124 83.9985 151.62 82.0471C150.99 80.2217 150.297 78.3962 149.478 76.6337C149.478 76.6337 150.801 75.7525 148.659 74.8712C146.517 73.99 144.879 75.6266 145.005 76.5078C145.131 77.3891 145.383 79.1516 144.816 79.4034C144.249 79.6552 139.02 84.6279 139.02 84.6279Z" fill="white"/>
<path d="M152.755 94.9512C152.125 94.9512 150.991 93.8811 147.84 90.7967C146.013 88.9713 143.934 86.957 143.304 86.7681C141.792 86.2016 140.343 85.5722 138.894 84.8798L138.516 84.6909L138.831 84.3762C140.091 83.1802 144.123 79.3405 144.69 79.0887C144.753 79.0257 144.942 78.648 144.69 76.5708C144.69 75.9413 145.005 75.3119 145.572 74.9971C146.517 74.3047 147.714 74.1159 148.785 74.6195C149.668 74.9971 150.109 75.3748 150.172 75.9413C150.172 76.2561 150.046 76.5708 149.857 76.7596C150.676 78.4592 151.369 80.2217 151.936 82.0472C152.314 83.369 152.629 87.3976 152.944 90.6079C153.07 92.2445 153.196 93.6293 153.322 94.3217C153.385 94.6994 153.196 94.8882 153.07 94.9512C152.944 94.9512 152.881 94.9512 152.755 94.9512ZM139.587 84.565C140.847 85.1945 142.17 85.761 143.493 86.2016C144.249 86.4534 145.824 87.9641 148.281 90.419C149.794 91.9298 151.81 93.944 152.566 94.3217C152.503 93.5664 152.377 92.2445 152.188 90.6708C151.936 87.4606 151.558 83.4949 151.243 82.236C150.613 80.4105 149.92 78.5851 149.101 76.8226L148.974 76.5708L149.227 76.4449C149.29 76.382 149.542 76.1931 149.479 76.0043C149.416 75.8155 149.353 75.5637 148.47 75.2489C147.651 74.8713 146.643 74.9971 145.887 75.5637C145.509 75.8155 145.32 76.1302 145.257 76.5708C145.509 78.3963 145.509 79.5293 144.879 79.7811C144.564 79.907 141.981 82.2989 139.587 84.565Z" fill="#263238"/>
<path d="M134.295 67.2546C132.72 66.9399 131.145 66.3734 129.759 65.555C127.994 64.3591 128.687 61.8412 130.515 60.7082C132.342 59.5751 134.61 58.0015 137.004 58.0015C139.398 58.0015 140.217 60.5823 141.918 60.6452C143.619 60.7082 148.218 58.6309 150.801 60.7711C153.384 62.9113 153.069 70.2131 152.124 71.7238C151.179 73.2345 149.352 76.6966 149.352 76.6966C149.352 76.6966 147.84 76.3189 146.706 76.0671C145.572 75.8153 146.328 75.1229 145.068 75.4377C143.808 75.7524 142.548 76.0671 141.477 75.1859C140.406 74.3046 140.091 73.3604 139.398 72.6051C138.705 71.8497 137.508 70.1501 137.697 69.5207C137.823 68.8283 137.949 68.0729 137.949 67.3175L134.295 67.2546Z" fill="#263238"/>
<path d="M149.604 77.0113L149.352 76.9484C149.352 76.9484 147.903 76.5707 146.706 76.3189C146.328 76.256 145.95 76.0042 145.761 75.6894L145.698 75.6265C145.509 75.6265 145.383 75.6265 145.194 75.6894C143.871 76.0042 142.548 76.3189 141.351 75.3747C140.721 74.8711 140.217 74.3046 139.839 73.6122C139.65 73.2975 139.461 73.0457 139.209 72.731C139.209 72.731 137.13 70.339 137.445 69.3318C137.571 68.7653 137.697 68.1359 137.697 67.5693L134.232 67.5064C132.594 67.1917 131.019 66.6251 129.57 65.7439C128.814 65.2403 128.373 64.3591 128.436 63.4778C128.562 62.2189 129.255 61.0229 130.389 60.3934L131.145 59.9528C132.909 58.8827 134.862 57.6867 137.067 57.6238C138.516 57.5608 139.461 58.4421 140.217 59.1975C140.847 59.764 141.351 60.2675 141.981 60.2675C142.674 60.2046 143.304 60.1417 143.997 59.9528C146.139 59.5122 149.1 58.8198 151.053 60.4564C153.7 62.5966 153.511 70.0872 152.44 71.8497C151.494 73.3604 149.667 76.7595 149.667 76.7595L149.604 77.0113ZM145.572 74.997C145.824 74.997 146.076 75.1229 146.202 75.3747C146.265 75.5006 146.391 75.6265 146.769 75.7524C147.651 75.9412 148.722 76.193 149.226 76.3189C149.667 75.5635 151.116 72.9198 151.873 71.5979C152.818 70.0872 152.944 62.9113 150.612 61.0229C148.911 59.6381 146.076 60.2046 144.06 60.6452C143.367 60.8341 142.611 60.96 141.918 60.96C141.036 60.96 140.343 60.3305 139.713 59.701C138.957 59.0086 138.201 58.3162 137.067 58.3162H137.004C134.988 58.3162 133.098 59.5122 131.397 60.5193L130.641 60.96C129.696 61.4635 129.066 62.4707 129.003 63.5408C128.94 64.2332 129.318 64.8626 129.885 65.2403C131.208 66.0586 132.72 66.5622 134.232 66.8769L138.264 66.9399V67.2546C138.264 68.01 138.138 68.7653 137.949 69.5207C137.823 69.8354 138.642 71.2202 139.587 72.2903C139.839 72.6051 140.028 72.9198 140.28 73.2345C140.595 73.864 141.099 74.3676 141.603 74.8082C142.611 75.5635 143.745 75.3118 144.942 74.997C145.194 74.997 145.383 74.997 145.572 74.997Z" fill="#263238"/>
<path d="M133.161 66.3733C133.161 66.3733 131.901 70.8425 132.153 71.5349C132.405 72.2273 132.594 72.9827 132.72 73.738L130.956 76.6965C130.956 76.6965 131.271 77.8295 131.838 77.8925C132.531 78.0813 133.224 78.3961 133.791 78.7737C133.791 78.7737 135.492 85.0054 136.059 85.1943C136.626 85.3831 138.012 86.0755 138.579 85.6979C139.146 85.3202 145.509 80.788 146.265 80.0956C147.021 79.4032 146.706 76.0041 146.706 76.0041C146.706 76.0041 148.659 73.6121 147.903 71.9755C147.147 70.3389 145.32 70.9054 144.753 72.1014C144.186 73.2974 143.997 73.9269 143.997 73.9269C143.997 73.9269 142.611 74.3675 142.359 73.5492L142.107 72.7309C142.107 72.7309 139.713 70.9054 139.65 70.4648C139.587 70.0242 140.406 65.6179 140.406 65.6179L133.161 66.3733Z" fill="white"/>
<path d="M138.201 86.0757C137.571 86.0127 136.941 85.8239 136.374 85.5721L135.996 85.4462C135.492 85.2574 134.673 83.1172 133.539 78.9627C132.972 78.648 132.405 78.3962 131.775 78.2073C131.019 78.1444 130.641 76.9484 130.641 76.8225V76.6966L132.405 73.7381C132.279 73.0457 132.09 72.3533 131.838 71.7239C131.586 71.0314 132.531 67.4435 132.846 66.3734L132.909 66.1846L140.91 65.4292L140.847 65.8069C140.532 67.5694 140.028 70.2131 140.091 70.5279C140.784 71.2832 141.603 71.9756 142.422 72.5422L142.485 72.6051L142.8 73.5493C142.8 73.6122 142.863 73.6752 142.926 73.7381C143.241 73.864 143.556 73.864 143.871 73.7381C143.934 73.4864 144.186 72.9198 144.564 72.0386C144.879 71.2832 145.635 70.7167 146.517 70.7167C147.273 70.7167 147.966 71.2203 148.281 71.9127C149.037 73.4864 147.525 75.6895 147.147 76.1931C147.21 77.0114 147.399 79.7181 146.58 80.4105C145.761 81.1029 139.398 85.698 138.894 86.0127C138.579 86.0757 138.39 86.1386 138.201 86.0757ZM131.334 76.7596C131.46 77.1373 131.712 77.5779 131.901 77.5779C132.657 77.7667 133.35 78.0815 133.98 78.5221L134.106 78.585L134.169 78.7109C134.925 81.5435 135.933 84.6279 136.311 84.9426C136.437 85.0056 136.563 85.0056 136.689 85.0685C137.193 85.2574 138.201 85.635 138.516 85.4462C139.02 85.0685 145.446 80.5364 146.139 79.844C146.58 79.4663 146.643 77.389 146.517 76.0672V75.9413L146.58 75.8154C146.58 75.8154 148.407 73.5493 147.714 72.1015C147.525 71.598 147.084 71.2832 146.517 71.2832C145.887 71.3462 145.383 71.6609 145.131 72.2274C144.564 73.4234 144.375 73.9899 144.375 73.9899L144.312 74.1158L144.186 74.1788C143.682 74.3676 143.115 74.3676 142.611 74.1788C142.359 74.0529 142.233 73.864 142.107 73.6122L141.855 72.9198C140.28 71.6609 139.398 70.9055 139.335 70.5279C139.524 69.0172 139.713 67.5064 140.028 65.9957L133.287 66.6252C132.72 68.6395 132.153 70.9685 132.342 71.3462C132.594 72.1015 132.846 72.8569 132.972 73.6122V73.7381L131.334 76.7596Z" fill="#263238"/>
<path d="M86.5391 82.4878C86.5391 82.4878 83.893 83.9985 82.8219 84.565C81.7509 85.1315 80.1758 85.1945 80.6799 85.824C81.1839 86.4534 84.082 85.3833 84.082 85.3833C84.082 85.3833 87.3581 85.3833 88.6181 85.1945C89.3742 85.0686 90.0042 84.565 90.3192 83.8097" fill="white"/>
<path d="M81.3731 86.3274C81.0581 86.3903 80.6801 86.2644 80.4281 86.0126C80.3021 85.8238 80.2391 85.635 80.3021 85.4461C80.4281 85.0684 80.9321 84.8796 81.5621 84.6908C81.9401 84.5649 82.3181 84.439 82.6961 84.2501C83.7672 83.6836 86.4133 82.1729 86.4133 82.1729C86.5393 82.11 86.7913 82.11 86.8543 82.2988C86.9173 82.4247 86.8543 82.6135 86.7283 82.7394C86.6653 82.7394 84.0822 84.2501 83.0112 84.8167C82.6331 85.0055 82.1921 85.1943 81.7511 85.3202C81.4991 85.3832 81.1841 85.5091 80.9321 85.635C81.1211 85.8867 82.5701 85.635 83.9562 85.0684C84.0192 85.0684 84.0192 85.0684 84.0822 85.0684C84.1452 85.0684 87.3583 85.0684 88.6184 84.8796C89.2484 84.7537 89.8154 84.3131 90.0044 83.7466C90.0674 83.5577 90.2564 83.4948 90.3824 83.5577C90.5084 83.6207 90.6344 83.8095 90.5714 83.9354C90.2564 84.7537 89.5004 85.3832 88.6184 85.5091C87.4213 85.635 84.5232 85.6979 84.0822 85.6979C83.2632 86.0756 82.3181 86.2644 81.3731 86.3274Z" fill="#263238"/>
<path d="M193.958 190.881L193.643 196.924L189.8 204.918C189.548 205.422 189.989 206.492 191.186 205.989C192.383 205.485 194.966 203.093 196.352 201.96C197.738 200.827 199.943 197.994 201.266 196.987C202.589 195.98 204.038 193.903 203.975 193.462C203.912 193.022 196.982 187.23 196.982 187.23L193.958 190.881Z" fill="#00B533"/>
<path d="M190.682 206.429C190.052 206.429 189.485 205.926 189.485 205.296C189.485 205.108 189.485 204.982 189.611 204.793C189.863 204.289 193.076 197.554 193.454 196.862L193.769 190.882C193.769 190.819 193.769 190.756 193.832 190.693L196.856 187.105C196.982 186.979 197.171 186.979 197.297 187.042C204.353 192.833 204.416 193.274 204.416 193.462C204.479 194.092 202.841 196.358 201.581 197.302C200.699 198.058 199.943 198.876 199.187 199.694C198.431 200.575 197.549 201.457 196.667 202.212C196.289 202.527 195.785 202.967 195.218 203.408C193.832 204.604 192.32 205.926 191.375 206.303C191.123 206.366 190.871 206.429 190.682 206.429ZM194.273 191.007L193.958 196.987C193.958 197.05 193.958 197.05 193.958 197.113L190.115 205.108C190.052 205.296 190.115 205.548 190.241 205.674C190.43 205.863 190.745 205.926 191.123 205.737C191.942 205.422 193.517 204.037 194.777 202.967C195.344 202.527 195.785 202.086 196.226 201.771C197.108 201.016 197.927 200.198 198.62 199.316C199.376 198.435 200.195 197.554 201.14 196.799C202.211 195.917 203.093 194.847 203.723 193.588C203.282 193.022 199.565 189.811 197.045 187.734L194.273 191.007Z" fill="#263238"/>
<path d="M201.329 197.05C202.652 196.106 204.101 193.966 204.038 193.525C203.786 193.211 203.534 192.896 203.219 192.644C202.274 193.651 200.384 195.791 198.683 197.554C196.793 199.631 191.879 204.226 190.115 205.926C190.43 206.178 190.871 206.178 191.249 205.989C192.446 205.485 195.029 203.093 196.415 201.96C197.801 200.827 200.006 198.057 201.329 197.05Z" fill="#263238"/>
<path d="M190.682 206.429C190.367 206.429 190.115 206.366 189.926 206.178C189.863 206.115 189.8 206.052 189.8 205.926C189.8 205.863 189.863 205.737 189.926 205.674C191.879 203.849 196.604 199.316 198.494 197.302C200.195 195.477 202.022 193.462 203.03 192.392C203.093 192.329 203.156 192.266 203.282 192.266C203.345 192.266 203.471 192.266 203.534 192.329C204.353 193.085 204.416 193.273 204.479 193.399C204.542 194.029 202.904 196.295 201.644 197.239C200.762 197.994 200.006 198.813 199.25 199.631C198.494 200.512 197.612 201.394 196.73 202.149C196.352 202.464 195.848 202.904 195.281 203.345C193.895 204.541 192.383 205.863 191.438 206.24C191.123 206.366 190.871 206.429 190.682 206.429ZM190.682 205.8C190.808 205.8 190.997 205.8 191.123 205.674C191.942 205.359 193.517 203.974 194.777 202.904C195.344 202.464 195.785 202.023 196.226 201.708C197.108 200.953 197.927 200.135 198.62 199.253C199.376 198.372 200.195 197.491 201.14 196.736C202.211 195.854 203.093 194.784 203.723 193.525C203.597 193.336 203.408 193.148 203.219 193.022C202.211 194.155 200.447 196.043 198.935 197.743C197.171 199.694 192.824 203.786 190.682 205.8Z" fill="#263238"/>
<path d="M201.896 164.759L205.236 168.473L210.528 179.236C210.528 179.236 211.851 179.551 212.418 179.174C212.985 178.796 212.04 165.388 211.725 163.374C211.41 161.36 211.788 160.478 210.969 160.164C210.15 159.849 202.779 160.919 202.779 160.919L201.896 164.759Z" fill="#00B533"/>
<path d="M211.473 179.551C211.095 179.551 210.78 179.488 210.465 179.425C210.402 179.425 210.276 179.362 210.276 179.236L205.046 168.536L201.77 164.885C201.707 164.822 201.644 164.696 201.707 164.57L202.589 160.667C202.589 160.541 202.715 160.415 202.841 160.415C204.101 160.227 210.276 159.282 211.158 159.66C211.914 159.975 211.914 160.604 211.977 161.548C211.977 161.989 212.04 162.493 212.103 163.122C212.103 163.248 213.552 178.607 212.67 179.236C212.292 179.488 211.914 179.614 211.473 179.551ZM210.717 178.859C211.221 178.985 211.725 178.985 212.166 178.796C212.544 177.663 211.725 165.703 211.41 163.311C211.347 162.744 211.284 162.241 211.284 161.674C211.221 160.73 211.221 160.478 210.843 160.353C210.402 160.164 206.558 160.604 203.03 161.108L202.211 164.696L205.424 168.221L205.487 168.284L210.717 178.859Z" fill="#263238"/>
<path d="M210.968 160.038C210.653 159.975 210.275 159.912 209.96 159.975C210.401 163.689 211.41 173.068 211.725 175.019C211.851 176.404 211.914 177.852 211.788 179.236C212.04 179.236 212.229 179.173 212.418 179.048C212.985 178.67 212.04 165.262 211.725 163.248C211.41 161.234 211.851 160.415 210.968 160.038Z" fill="#263238"/>
<path d="M211.788 179.551C211.725 179.551 211.599 179.488 211.536 179.488C211.473 179.425 211.41 179.362 211.473 179.236C211.536 177.852 211.536 176.467 211.41 175.082C211.158 173.068 210.087 163.878 209.708 160.038C209.708 159.975 209.708 159.849 209.772 159.786C209.835 159.723 209.898 159.66 210.024 159.66C210.402 159.597 210.78 159.66 211.158 159.723C211.914 160.038 211.914 160.667 211.977 161.611C211.977 162.052 212.04 162.556 212.103 163.185C212.103 163.311 213.552 178.67 212.67 179.299C212.355 179.425 212.103 179.551 211.788 179.551ZM210.339 160.29C210.78 164.318 211.788 173.068 212.04 175.019C212.166 176.278 212.229 177.6 212.166 178.859H212.229C212.607 177.726 211.788 165.766 211.473 163.374C211.41 162.807 211.347 162.304 211.347 161.737C211.284 160.793 211.284 160.541 210.906 160.415C210.717 160.29 210.528 160.29 210.339 160.29Z" fill="#263238"/>
</g>
<defs>
<clipPath id="clip0">
<rect width="209.357" height="182.923" fill="white" transform="translate(6.9043 23.5068)"/>
</clipPath>
</defs>
</svg>
