<svg width="231" height="222" viewBox="0 0 231 222" fill="none" xmlns="http://www.w3.org/2000/svg">
<g opacity="0.08">
<path opacity="0.08" d="M7.79753 125.171C7.79753 125.171 14.9794 163.926 51.4054 184.927C87.8253 205.929 133.101 200.919 169.902 197.825C206.704 194.732 231.536 169.811 231 137.958C230.465 106.104 201.239 101.193 180.728 67.9652C160.21 34.7561 159.779 22.8688 124.498 5.89761C89.2223 -11.0798 41.2819 9.97095 20.7765 51.4068C0.271078 92.8427 7.79753 125.171 7.79753 125.171Z" fill="#00B533"/>
<path opacity="0.7" d="M7.79753 125.171C7.79753 125.171 14.9794 163.926 51.4054 184.927C87.8253 205.929 133.101 200.919 169.902 197.825C206.704 194.732 231.536 169.811 231 137.958C230.465 106.104 201.239 101.193 180.728 67.9652C160.21 34.7561 159.779 22.8688 124.498 5.89761C89.2223 -11.0798 41.2819 9.97095 20.7765 51.4068C0.271078 92.8427 7.79753 125.171 7.79753 125.171Z" fill="#00B533"/>
</g>
<path d="M41.1523 196.358L165.816 148.618" stroke="#2E353A" stroke-width="0.495524" stroke-linecap="round" stroke-linejoin="round"/>
<path d="M45.8057 54.4697C38.2792 58.0069 29.3127 54.7654 25.7802 47.235C22.2478 39.6984 25.4848 30.7198 33.0051 27.1826C34.9683 26.2582 37.1099 25.7714 39.2762 25.7529C31.9713 30.2515 29.6881 39.834 34.1867 47.1487C36.7222 51.2652 41.0116 53.9705 45.8057 54.4697Z" fill="#2E353A"/>
<path d="M50.987 26.5416L50.3839 24.9948L48.7715 24.6128L50.0577 23.5652L49.9161 21.9075L51.3131 22.8072L52.8455 22.1663L52.4209 23.7685L53.504 25.0256L51.8485 25.1242L50.987 26.5416Z" fill="#2E353A"/>
<path d="M58.7594 42.1324L57.8917 42.3234L57.5532 43.143L57.104 42.3727L56.2178 42.3111L56.8086 41.6455L56.5993 40.7828L57.4117 41.1402L58.1686 40.6719L58.0825 41.5593L58.7594 42.1324Z" fill="#2E353A"/>
<path d="M30.1188 66.554L29.2511 66.745L28.9126 67.5646L28.4633 66.8005L27.5771 66.7327L28.1679 66.0672L27.9587 65.2044L28.771 65.5618L29.528 65.0935L29.4418 65.9809L30.1188 66.554Z" fill="#2E353A"/>
<path d="M8.97325 67.5028L7.69935 65.7281L5.51465 65.7712L6.80701 64.0088L6.08698 61.9444L8.16706 62.6284L9.90252 61.3035L9.89636 63.4911L11.6872 64.7421L9.60712 65.4076L8.97325 67.5028Z" fill="#2E353A"/>
<path d="M101.266 204.228C101.266 206.286 96.2754 207.956 90.109 207.956C83.9426 207.956 78.9517 206.286 78.9517 204.228C78.9517 202.17 83.9488 200.531 90.109 200.531C96.2693 200.531 101.266 202.182 101.266 204.228Z" stroke="#2E353A" stroke-width="0.495524" stroke-linecap="round" stroke-linejoin="round"/>
<path d="M78.9517 204.228C78.9517 204.228 79.364 211.814 81.1548 216.503C82.9457 221.193 90.7121 222.801 94.9338 220.922C98.0663 219.529 99.6479 215.277 100.473 211.419" stroke="#2E353A" stroke-width="0.495524" stroke-linecap="round" stroke-linejoin="round"/>
<path d="M96.9579 217.193C97.5303 218.654 99.5919 218.672 100.878 218.524C103.278 218.395 105.18 216.435 105.235 214.026C105.352 212.245 104.872 210.476 103.881 208.997C103.044 207.901 101.746 207.26 100.367 207.247C99.1119 207.241 98.0903 208.252 98.0841 209.509C98.0841 209.651 98.0965 209.792 98.1211 209.934C98.158 210.199 98.2749 210.446 98.4534 210.649C99.0196 211.265 99.8319 210.908 100.509 211.173C101.137 211.475 101.592 212.054 101.74 212.738C102.004 213.699 102.14 214.587 101.518 215.412C101.069 215.949 100.361 216.195 99.6719 216.066C99.0565 215.986 98.5395 215.449 97.8995 215.449C97.321 215.449 96.8533 215.918 96.8472 216.491C96.8472 216.522 96.8472 216.553 96.8533 216.583C96.8533 216.793 96.8903 217.002 96.9579 217.193Z" fill="white" stroke="#2E353A" stroke-width="0.495524" stroke-linecap="round" stroke-linejoin="round"/>
<path d="M90.1646 207.783C95.7794 207.783 100.331 206.622 100.331 205.189C100.331 203.756 95.7794 202.595 90.1646 202.595C84.5498 202.595 79.998 203.756 79.998 205.189C79.998 206.622 84.5498 207.783 90.1646 207.783Z" fill="#2E353A"/>
<path d="M87.2907 198.546C87.0384 197.868 86.983 197.129 87.1307 196.42C87.4199 195.187 88.4353 194.269 89.5 193.597C90.6139 193.006 91.6785 192.322 92.6755 191.552C93.6048 190.707 94.2756 189.401 93.9063 188.193C93.6048 187.503 93.2478 186.844 92.8417 186.209C92.2693 185.013 92.4293 183.596 93.2601 182.561C94.1463 181.562 95.5925 181.285 96.7803 181.889C97.9373 182.573 98.3619 184.04 97.7588 185.241C97.3649 185.931 96.6449 186.369 96.1895 187.022C95.5679 187.971 95.5679 189.204 96.1895 190.153C96.6572 190.837 97.4203 191.33 97.6788 192.125C97.8573 192.957 97.5311 193.813 96.8418 194.306C96.1587 194.781 95.3587 195.052 94.534 195.089C93.7032 195.113 92.8786 195.218 92.0724 195.415C90.0723 196.038 88.9523 198.164 89.5738 200.167C89.7154 200.616 89.9369 201.042 90.2262 201.405C90.6877 201.991 90.2631 201.658 89.5369 201.245C88.4969 200.641 87.703 199.686 87.2907 198.546Z" fill="#2E353A"/>
<path opacity="0.7" d="M87.297 198.54C87.0447 197.862 86.9893 197.123 87.137 196.414C87.4263 195.181 88.4417 194.263 89.5063 193.591C90.6141 193 91.6787 192.316 92.6757 191.546C93.6111 190.701 94.2758 189.395 93.9065 188.187C93.6111 187.497 93.2542 186.831 92.8419 186.203C92.2634 185.007 92.4295 183.584 93.2665 182.555C94.1465 181.55 95.5989 181.273 96.7866 181.883C97.9436 182.567 98.3682 184.034 97.7651 185.235C97.3651 185.925 96.6451 186.363 96.1958 187.016C95.562 187.965 95.562 189.198 96.1958 190.147C96.6636 190.831 97.4267 191.324 97.679 192.119C97.8574 192.944 97.5313 193.801 96.8482 194.294C96.1651 194.768 95.365 195.046 94.5342 195.083C93.7034 195.107 92.8788 195.212 92.0726 195.403C90.0664 196.032 88.9525 198.17 89.5802 200.179C89.7217 200.623 89.9371 201.036 90.2264 201.399C90.6941 201.985 90.2633 201.652 89.5371 201.233C88.4971 200.629 87.7093 199.674 87.297 198.54Z" fill="white"/>
<path d="M154.124 140.472V28.0947" stroke="#2E353A" stroke-width="0.520102" stroke-linecap="round" stroke-linejoin="round"/>
<path d="M67.5981 128.147V16.4724" stroke="#2E353A" stroke-width="0.520102" stroke-linecap="round" stroke-linejoin="round"/>
<path d="M2.69727 78.9897H194.336" stroke="#2E353A" stroke-width="0.505732" stroke-linecap="round" stroke-linejoin="round"/>
<path d="M90.8351 56.1826L88.2319 57.9451" stroke="#2E353A" stroke-width="0.260051" stroke-linecap="round" stroke-linejoin="round"/>
<path d="M40.7291 110.837L0.321289 138.309" stroke="#2E353A" stroke-width="0.520102" stroke-linecap="round" stroke-linejoin="round"/>
<path d="M36.3536 106.998L26.5747 113.641" stroke="#2E353A" stroke-width="0.520102" stroke-linecap="round" stroke-linejoin="round"/>
<path d="M194.993 52.5901C206.804 52.5901 216.378 43.0026 216.378 31.1758C216.378 19.349 206.804 9.76147 194.993 9.76147C183.182 9.76147 173.607 19.349 173.607 31.1758C173.607 43.0026 183.182 52.5901 194.993 52.5901Z" fill="#2E353A"/>
<path d="M194.98 48.1471C204.344 48.1471 211.934 40.5461 211.934 31.1698C211.934 21.7934 204.344 14.1924 194.98 14.1924C185.616 14.1924 178.025 21.7934 178.025 31.1698C178.025 40.5461 185.616 48.1471 194.98 48.1471Z" fill="white"/>
<path d="M196.407 31.1697C196.414 31.9646 195.774 32.6055 194.98 32.6117C194.186 32.6178 193.546 31.9769 193.54 31.182C193.533 30.387 194.173 29.7462 194.967 29.74C194.974 29.74 194.973 29.74 194.98 29.74C195.774 29.74 196.407 30.3809 196.407 31.1697Z" fill="#2E353A"/>
<path d="M195.189 31.5887V17.6309" stroke="#2E353A" stroke-width="0.563163" stroke-linecap="round" stroke-linejoin="round"/>
<path d="M194.974 30.9538L191.737 20.1204" stroke="#2E353A" stroke-width="0.563163" stroke-linecap="round" stroke-linejoin="round"/>
<path d="M79.9726 181.655L60.6426 105.433C59.7995 102.123 61.4365 98.6786 64.5381 97.2489C81.6834 89.4042 110.694 80.9926 133.402 81.3377C137.052 81.3931 140.061 84.2217 140.35 87.8698L145.335 150.849C145.581 153.955 143.772 156.864 140.88 158.01L79.9726 181.655Z" fill="#2E353A"/>
<path opacity="0.5" d="M79.9726 181.655L60.6426 105.433C59.7995 102.123 61.4365 98.6786 64.5381 97.2489C81.6834 89.4042 110.694 80.9926 133.402 81.3377C137.052 81.3931 140.061 84.2217 140.35 87.8698L145.335 150.849C145.581 153.955 143.772 156.864 140.88 158.01L79.9726 181.655Z" fill="black"/>
<path d="M129.034 205.658L163.693 190.948C164.635 190.56 165.09 189.481 164.703 188.539C164.567 188.212 164.346 187.928 164.056 187.725L150.407 177.865C149.896 177.502 149.244 177.415 148.659 177.631L113.23 191.071C112.27 191.423 111.777 192.482 112.128 193.444C112.251 193.777 112.467 194.066 112.75 194.282L127.187 205.417C127.717 205.824 128.424 205.916 129.034 205.658Z" fill="#2E353A"/>
<path d="M144.653 181.846C144.653 181.846 155.73 183.436 157.022 189.494C158.315 195.551 133.686 195.773 131.526 191.225C129.366 186.678 140.979 181.846 144.653 181.846Z" fill="white"/>
<path d="M153.287 187.393C153.287 187.393 151.502 178.895 146.444 177.397C141.385 175.9 129.612 177.607 129.612 177.607L105.119 163.199L89.3892 174.045L96.3679 176.879L96.3125 176.966C96.3125 176.966 97.4572 177.403 99.3096 178.075L103.396 179.739L103.58 179.591C109.962 181.803 119.04 184.693 124.351 185.279C124.351 185.279 127.618 188.674 130.966 189.321C130.966 189.321 133.108 189.821 134.32 189.463C135.711 188.939 137.25 188.964 138.628 189.531C140.339 190.246 146.105 192.945 147.502 192.199C148.899 191.454 146.758 189.032 142.837 186.819C142.837 186.819 150.678 189.173 152.321 189.173C153.964 189.173 154.604 188.89 154.53 188.557L153.287 187.393Z" fill="white"/>
<path d="M140.917 185.772C140.917 185.772 152.53 190.085 154.044 189.007C155.558 187.928 149.2 184.385 142.283 182.006" stroke="#2E353A" stroke-width="0.495524" stroke-linecap="round" stroke-linejoin="round"/>
<path d="M145.681 179.813C148.112 180.626 150.284 182.062 151.982 183.979" stroke="#2E353A" stroke-width="0.495524" stroke-linecap="round" stroke-linejoin="round"/>
<path d="M153.034 187.115C153.034 187.115 151.366 180.182 147.692 177.804C144.018 175.425 129.335 177.643 129.335 177.643L102.718 161.67" stroke="#2E353A" stroke-width="0.495524" stroke-linecap="round" stroke-linejoin="round"/>
<path d="M89.8691 174.451C92.5277 175.53 95.9002 176.824 100.153 178.34C115.273 183.75 124.351 185.266 124.351 185.266C124.351 185.266 129.68 190.874 134.942 189.161C138.486 188.003 145.096 193.271 147.471 192.187C149.847 191.102 143.914 186.967 136.566 183.72" stroke="#2E353A" stroke-width="0.495524" stroke-linecap="round" stroke-linejoin="round"/>
<path d="M164.604 148.871L180.34 130.84C180.34 130.84 176.1 122.934 170.826 114.121C165.552 105.309 159.293 95.6713 156.628 92.0355C149.207 88.4058 159.705 133.077 159.705 133.077L164.604 148.871Z" fill="#00B533"/>
<path d="M180.666 131.66C173.958 117.043 156.628 91.8137 156.628 91.8137" stroke="#2E353A" stroke-width="0.495524" stroke-linecap="round" stroke-linejoin="round"/>
<path d="M101.051 143.116L114.67 168.591L158.142 151.651L159.804 131.438C162.265 114.306 156.604 91.7706 156.604 91.7706L128.295 85.676C128.295 85.676 87.6778 99.6092 87.0624 102.247C86.447 104.884 101.051 143.116 101.051 143.116Z" fill="#00B533"/>
<path d="M101.051 143.116L114.67 168.591L158.142 151.651L159.804 131.438C162.265 114.306 156.604 91.7706 156.604 91.7706L128.295 85.676C128.295 85.676 87.6778 99.6092 87.0624 102.247C86.447 104.884 101.051 143.116 101.051 143.116Z" stroke="#2E353A" stroke-width="0.495524" stroke-miterlimit="10"/>
<path opacity="0.2" d="M92.5576 109.703C93.5976 111.921 98.7117 123.439 100.558 126.341C103.02 105.432 102.164 103.134 104.041 102.037L112.78 96.9344L108.214 94.1429L108.004 93.1938C108.004 93.1938 90.0652 100.022 87.1851 102.351C87.1851 102.351 89.3144 102.813 92.5576 109.703Z" fill="black"/>
<path d="M79.6097 163.199C88.6377 164.709 97.8873 162.484 105.248 157.037C105.248 157.037 104.921 137.409 103.02 132.436C100.558 126.046 89.5239 101.088 87.1546 102.351C85.4745 103.245 82.0098 130.31 80.3851 148.2C79.7266 155.619 79.382 161.51 79.6097 163.199Z" fill="#00B533"/>
<path d="M79.6097 163.199C88.6377 164.709 97.8873 162.484 105.248 157.037C105.248 157.037 104.921 137.409 103.02 132.436C100.558 126.046 89.5239 101.088 87.1546 102.351C85.4745 103.245 82.0098 130.31 80.3851 148.2C79.7266 155.619 79.382 161.51 79.6097 163.199Z" stroke="#2E353A" stroke-width="0.495524" stroke-miterlimit="10"/>
<path d="M105.487 127.364C107.284 132.639 107.654 138.303 106.546 143.769" stroke="#2E353A" stroke-width="0.495524" stroke-linecap="round" stroke-linejoin="round"/>
<path d="M91.3516 148.089C95.3763 147.645 99.4073 148.816 102.57 151.349" stroke="#2E353A" stroke-width="0.495524" stroke-linecap="round" stroke-linejoin="round"/>
<path d="M96.2998 145.112C99.9369 146.832 102.977 149.599 105.032 153.062" stroke="#2E353A" stroke-width="0.495524" stroke-linecap="round" stroke-linejoin="round"/>
<path d="M157.625 112.827C158.751 118.01 159.588 123.248 160.142 128.523" stroke="#2E353A" stroke-width="0.495524" stroke-linecap="round" stroke-linejoin="round"/>
<path d="M90.1827 174.901C90.1827 174.901 106.319 168.233 108.03 165.657C109.74 163.082 105.796 154.017 103.851 152.501C101.906 150.985 77.3452 155.674 78.0037 160.654C78.6622 165.633 80.5269 165.097 79.7823 169.281C79.2961 172.023 82.6008 178.149 90.1827 174.901Z" fill="white"/>
<path d="M90.417 174.901C90.417 174.901 106.559 168.233 108.264 165.657C109.969 163.082 106.036 154.017 104.091 152.501C102.147 150.985 77.5796 155.674 78.2442 160.654C78.9088 165.633 80.7674 165.097 80.0289 169.281C79.5366 172.023 82.8352 178.149 90.417 174.901Z" stroke="#2E353A" stroke-width="0.495524" stroke-miterlimit="10"/>
<path d="M166.573 152.667C166.419 152.538 166.271 152.408 166.13 152.267C162.031 148.267 164.628 143.22 167.976 139.72C171.053 136.491 176.543 131.573 181.17 131.019C183.257 130.766 184.186 131.925 185.398 133.391C186.094 134.229 186.955 134.926 187.626 135.788C189.725 138.592 189.608 142.475 187.355 145.149C185.435 147.275 182.795 148.058 180.26 149.136C177.183 150.436 174.315 152.587 171.188 153.653C169.588 154.152 167.841 153.776 166.573 152.667Z" fill="white"/>
<path d="M166.573 152.667C166.419 152.538 166.271 152.408 166.13 152.267C162.031 148.267 164.628 143.22 167.976 139.72C171.053 136.491 176.543 131.573 181.17 131.019C183.257 130.766 184.186 131.925 185.398 133.391C186.094 134.229 186.955 134.926 187.626 135.788C189.725 138.592 189.608 142.475 187.355 145.149C185.435 147.275 182.795 148.058 180.26 149.136C177.183 150.436 174.315 152.587 171.188 153.653C169.588 154.152 167.841 153.776 166.573 152.667Z" stroke="#2E353A" stroke-width="0.495524" stroke-miterlimit="10"/>
<path d="M105.137 37.7634C104.817 34.7315 105.74 31.6934 107.697 29.3579C109.66 27.047 112.214 25.3215 115.082 24.354" stroke="#2E353A" stroke-width="0.495524" stroke-linecap="round" stroke-linejoin="round"/>
<path d="M133.15 78.3736C132.763 82.9892 132.615 93.8658 132.886 98.4938L115.494 90.3717C116.11 86.1875 116.337 78.5831 115.297 74.4851L133.144 78.3736" fill="white"/>
<path d="M133.15 78.3736C132.763 82.9892 132.615 93.8658 132.886 98.4938L115.494 90.3717C116.11 86.1875 116.337 78.5831 115.297 74.4851L133.144 78.3736" stroke="#2E353A" stroke-width="0.495524" stroke-miterlimit="10"/>
<path d="M116.11 77.1409C116.11 77.1409 121.255 86.7049 126.658 86.8836C131.938 87.05 133.12 79.1745 133.12 79.1745C133.12 79.1745 130.929 83.3402 128.547 83.2478C126.166 83.1554 116.11 77.1409 116.11 77.1409Z" fill="#2E353A"/>
<path d="M138.633 37.7818C138.633 37.7818 116.159 32.9628 109.802 38.8479C103.444 44.7329 105.032 51.2897 105.032 51.2897L105.611 53.1816C105.451 53.1816 105.291 53.1939 105.131 53.2309C103.438 53.6314 101.721 55.6958 102.287 58.6476C102.854 61.5994 106.46 68.0822 109.118 67.392C109.42 67.3181 109.709 67.1948 109.98 67.0408C110.866 69.7091 111.648 71.9214 112.072 72.8211C113.765 76.3953 126.645 83.8333 129.667 82.8042C132.689 81.775 140.615 66.3629 141.003 62.6408C141.391 58.9187 138.633 37.7818 138.633 37.7818Z" fill="white"/>
<path d="M126.38 57.9819C126.38 59.0603 125.987 59.9415 125.5 59.9415C125.014 59.9415 124.614 59.0665 124.614 57.9819C124.614 56.8973 125.008 56.0284 125.494 56.0222C125.98 56.0161 126.38 56.9096 126.38 57.9819Z" fill="#2E353A"/>
<path d="M136.142 57.4828C136.142 58.5612 135.748 59.4425 135.262 59.4425C134.776 59.4425 134.382 58.5612 134.376 57.4828C134.369 56.4044 134.769 55.5232 135.262 55.5232C135.754 55.5232 136.142 56.3983 136.142 57.4828Z" fill="#2E353A"/>
<path d="M133.187 71.3606C131.667 71.1758 130.128 71.2805 128.645 71.6626" stroke="#2E353A" stroke-width="0.495524" stroke-linecap="round" stroke-linejoin="round"/>
<path d="M122.584 61.3777C123.366 62.6472 125.169 62.6472 126.24 61.7721C126.689 61.3408 127.076 60.8478 127.378 60.2993" stroke="#2E353A" stroke-width="0.247762" stroke-linecap="round" stroke-linejoin="round"/>
<path d="M133.513 60.3669C134.049 61.1989 134.941 61.7412 135.932 61.8213C136.523 61.8644 137.119 61.7412 137.643 61.4577" stroke="#2E353A" stroke-width="0.247762" stroke-linecap="round" stroke-linejoin="round"/>
<path d="M121.993 54.2229C124.036 53.81 125.938 52.8856 127.532 51.5422" stroke="#2E353A" stroke-width="0.991049" stroke-linecap="round" stroke-linejoin="round"/>
<path d="M134.141 49.4966C134.953 50.4764 135.969 51.2775 137.12 51.8321" stroke="#2E353A" stroke-width="0.991049" stroke-linecap="round" stroke-linejoin="round"/>
<path d="M130.756 56.4846C130.934 57.7602 131.113 59.0358 131.297 60.3115C131.347 60.8661 131.476 61.4084 131.691 61.9198C132.147 62.838 133.07 63.4235 134.091 63.4543C134.387 63.4173 134.688 63.4604 134.959 63.5775C135.205 63.7501 135.334 64.0397 135.31 64.3355C135.242 64.8347 135.002 65.2907 134.633 65.6296C134.011 66.3136 133.285 66.899 132.485 67.3612" stroke="#2E353A" stroke-width="0.495524" stroke-linecap="round" stroke-linejoin="round"/>
<path d="M105.119 57.113C107.162 58.82 108.165 61.4698 107.777 64.1012" stroke="#2E353A" stroke-width="0.495524" stroke-linecap="round" stroke-linejoin="round"/>
<path d="M104.756 60.3361C104.885 60.0465 105.15 59.8431 105.457 59.7877C105.759 59.726 106.073 59.726 106.374 59.7877C106.59 59.8185 106.799 59.8924 106.99 59.991C107.23 60.1451 107.408 60.3793 107.494 60.6504" stroke="#2E353A" stroke-width="0.495524" stroke-linecap="round" stroke-linejoin="round"/>
<path d="M110.867 62.8135C110.867 62.8135 112.208 66.6588 108.885 67.5154C106.233 68.2056 102.626 61.7289 102.054 58.771C101.703 57.2674 102.085 55.6836 103.07 54.5004C103.55 53.9335 104.196 53.5391 104.916 53.3604C106.879 52.8921 108.836 55.2769 110.073 57.2365C110.448 57.8589 110.854 58.4629 111.304 59.036" stroke="#2E353A" stroke-width="0.495524" stroke-linecap="round" stroke-linejoin="round"/>
<path d="M109.753 67.1579C110.639 69.8385 111.414 72.0447 111.839 72.9444C113.531 76.5247 126.412 83.9566 129.434 82.9275C132.455 81.8983 140.382 66.4862 140.776 62.7641C141.169 59.042 138.425 37.9051 138.425 37.9051C138.425 37.9051 115.95 33.0861 109.593 38.9711C103.236 44.8562 104.799 51.413 104.799 51.413" stroke="#2E353A" stroke-width="0.495524" stroke-miterlimit="10"/>
<path d="M143.84 27.6262C143.84 27.6262 147.311 34.8609 142.88 39.7846C138.449 44.7084 128.32 40.6535 128.32 40.6535" stroke="#2E353A" stroke-width="0.495524" stroke-linecap="round" stroke-linejoin="round"/>
<path d="M139.625 24.3292C138.222 24.9023 140.622 27.3673 137.631 28.1253C134.64 28.8832 110.898 17.8464 104.922 37.073C104.922 37.073 94.2818 44.6405 103.076 54.5003C103.556 53.9333 104.202 53.5389 104.922 53.3602C106.83 52.9104 108.725 55.1412 109.969 57.0577C110.522 58.6599 111.39 60.0957 112.713 59.6089C115.126 58.7338 114.313 55.7081 113.329 53.4958C113.015 52.7933 112.676 52.1771 112.424 51.7334C110.91 49.0959 108.67 46.1872 109.692 42.9889C111.735 39.1498 117.944 38.5459 123.846 40.0556C133.619 42.5514 145.053 38.9772 144.875 31.9275C144.696 24.8777 141.028 23.7561 139.625 24.3292Z" fill="#2E353A"/>
<path opacity="0.5" d="M144.104 27.4967C144.092 27.4659 144.073 27.4412 144.049 27.4166C142.855 24.4032 140.646 23.9102 139.624 24.3354C138.221 24.9085 140.621 27.3734 137.63 28.1314C134.639 28.8894 112.017 18.3764 105.383 35.7666C105.58 33.4865 106.466 31.3174 107.924 29.5488C109.844 27.2748 112.349 25.574 115.168 24.6189C115.315 24.5511 115.377 24.3724 115.309 24.2245C115.248 24.0951 115.106 24.0273 114.971 24.0642C112.06 25.0564 109.475 26.8188 107.494 29.1729C105.74 31.2804 104.78 33.9425 104.786 36.6848C100.478 37.6092 97.0992 40.9553 96.1269 45.2628C96.09 45.4231 96.1884 45.5771 96.3484 45.6141H96.41C96.5454 45.6141 96.6685 45.5217 96.6992 45.3861C97.5977 41.4114 100.669 38.2809 104.626 37.3134C102.927 38.6814 95.2222 45.6634 103.093 54.4941C103.573 53.9272 104.22 53.5328 104.94 53.3541C106.847 52.9042 108.743 55.135 109.986 57.0515C110.54 58.6537 111.408 60.0896 112.731 59.6027C115.143 58.7277 114.331 55.7019 113.346 53.4896C113.032 52.7871 112.694 52.1709 112.441 51.7272C110.927 49.0897 108.687 46.181 109.709 42.9828C111.752 39.1436 117.962 38.5397 123.863 40.0495C125.254 40.4007 126.67 40.6349 128.097 40.752C128.128 40.8259 128.184 40.8814 128.257 40.9184C130.83 41.8982 133.556 42.4405 136.307 42.5206C138.818 42.5206 141.39 41.9043 143.144 39.9694C147.606 34.9717 144.141 27.5706 144.104 27.4967ZM142.658 39.5873C139.366 43.2477 132.682 41.7318 129.802 40.8198C137.316 40.9369 144.246 37.868 144.806 32.7347C145.07 35.2182 144.289 37.7016 142.658 39.5873Z" fill="black"/>
<path d="M126.116 96.9102C126.363 96.6637 133.249 95.4004 133.249 95.4004C133.249 95.4004 132.074 103.553 132.634 106.493L129.784 106.998C129.784 106.998 127.015 101.871 124.83 100.275C122.646 98.6788 126.116 96.9102 126.116 96.9102Z" fill="#2E353A"/>
<path d="M130.202 105.642L130.245 140.244L138.036 146.141L141.347 137.797L131.765 104.89L130.202 105.642Z" fill="#2E353A"/>
<path d="M129.95 91.259L133.759 86.1751C133.95 85.8916 134.332 85.8177 134.615 86.0025C134.658 86.0272 134.695 86.0642 134.726 86.1011L139.593 90.9756C139.809 91.1728 139.852 91.4994 139.698 91.7459L133.852 102.185C133.722 102.499 133.359 102.647 133.046 102.512C132.849 102.425 132.707 102.247 132.676 102.037L129.845 91.8137C129.796 91.6226 129.839 91.4193 129.95 91.259Z" fill="white"/>
<path d="M129.95 91.259L133.759 86.1751C133.95 85.8916 134.332 85.8177 134.615 86.0025C134.658 86.0272 134.695 86.0642 134.726 86.1011L139.593 90.9756C139.809 91.1728 139.852 91.4994 139.698 91.7459L133.852 102.185C133.722 102.499 133.359 102.647 133.046 102.512C132.849 102.425 132.707 102.247 132.676 102.037L129.845 91.8137C129.796 91.6226 129.839 91.4193 129.95 91.259Z" stroke="#2E353A" stroke-width="0.495524" stroke-linecap="round" stroke-linejoin="round"/>
<path d="M114.392 85.38L129.162 91.2712C129.482 91.3821 129.654 91.7334 129.544 92.0538C129.538 92.0662 129.538 92.0723 129.531 92.0846L125.74 102.82C125.642 103.146 125.304 103.331 124.977 103.239C124.928 103.226 124.879 103.202 124.83 103.171L108.214 94.1429C107.906 93.995 107.777 93.6314 107.924 93.3233C107.949 93.2801 107.974 93.237 108.004 93.1939L113.648 85.5956C113.814 85.3615 114.128 85.269 114.392 85.38Z" fill="white"/>
<path d="M114.392 85.38L129.162 91.2712C129.482 91.3821 129.654 91.7334 129.544 92.0538C129.538 92.0662 129.538 92.0723 129.531 92.0846L125.74 102.82C125.642 103.146 125.304 103.331 124.977 103.239C124.928 103.226 124.879 103.202 124.83 103.171L108.214 94.1429C107.906 93.995 107.777 93.6314 107.924 93.3233C107.949 93.2801 107.974 93.237 108.004 93.1939L113.648 85.5956C113.814 85.3615 114.128 85.269 114.392 85.38Z" stroke="#2E353A" stroke-width="0.495524" stroke-linecap="round" stroke-linejoin="round"/>
<path d="M163.988 147.503L159.619 132.954" stroke="#2E353A" stroke-width="0.495524" stroke-miterlimit="10"/>
<path d="M172.967 152.495L142.812 165.177C141.877 165.584 141.446 166.668 141.852 167.605C141.994 167.931 142.221 168.209 142.511 168.406L165.792 183.904L180.937 168.763L172.967 152.495Z" fill="white" stroke="#2E353A" stroke-width="0.495524" stroke-miterlimit="10"/>
<path d="M160.419 165.824L156.794 167.247L158.739 168.622L162.37 167.198L160.419 165.824ZM160.419 165.824L156.794 167.247L158.739 168.622L162.37 167.198L160.419 165.824ZM160.419 165.824L156.794 167.247L158.739 168.622L162.37 167.198L160.419 165.824ZM162.881 167.568L159.25 168.985L161.361 170.477L164.998 169.053L162.881 167.568ZM162.881 167.568L159.25 168.985L161.361 170.477L164.998 169.053L162.881 167.568ZM162.881 167.568L159.25 168.985L161.361 170.477L164.998 169.053L162.881 167.568ZM162.881 167.568L159.25 168.985L161.361 170.477L164.998 169.053L162.881 167.568ZM162.881 167.568L159.25 168.985L161.361 170.477L164.998 169.053L162.881 167.568ZM162.881 167.568L159.25 168.985L161.361 170.477L164.998 169.053L162.881 167.568ZM162.881 167.568L159.25 168.985L161.361 170.477L164.998 169.053L162.881 167.568ZM154.745 170.754L156.893 172.227L160.764 170.711L158.653 169.226L154.745 170.754ZM162.881 167.586L159.25 169.004L161.361 170.495L164.998 169.072L162.881 167.586ZM162.881 167.586L159.25 169.004L161.361 170.495L164.998 169.072L162.881 167.586ZM162.881 167.586L159.25 169.004L161.361 170.495L164.998 169.072L162.881 167.586ZM162.881 167.586L159.25 169.004L161.361 170.495L164.998 169.072L162.881 167.586ZM162.881 167.586L159.25 169.004L161.361 170.495L164.998 169.072L162.881 167.586ZM162.881 167.586L159.25 169.004L161.361 170.495L164.998 169.072L162.881 167.586ZM165.515 169.435L161.884 170.859L164.302 172.559L167.933 171.136L165.515 169.435ZM166.13 169.201L168.555 170.908L168.727 170.834L169.404 167.925L166.13 169.201ZM165.613 168.837L164.998 169.072L165.515 169.435L166.13 169.201L165.613 168.837ZM165.539 169.454L161.909 170.877L164.327 172.578L167.958 171.154L165.539 169.454ZM165.539 169.454L161.909 170.877L164.327 172.578L167.958 171.154L165.539 169.454ZM165.539 169.454L161.909 170.877L164.327 172.578L167.958 171.154L165.539 169.454ZM169.084 167.494L169.453 167.753L169.558 167.315L169.084 167.494ZM165.613 168.856L164.998 169.09L165.515 169.454L166.13 169.219L165.613 168.856ZM166.973 166.009L163.496 167.352L165.607 168.837L169.078 167.476L166.973 166.009ZM165.613 168.856L164.998 169.09L165.515 169.454L166.13 169.219L165.613 168.856ZM165.539 169.472L161.909 170.896L164.327 172.596L167.958 171.173L165.539 169.472ZM165.613 168.856L164.998 169.09L165.515 169.454L166.13 169.219L165.613 168.856ZM165.539 169.472L161.909 170.896L164.327 172.596L167.958 171.173L165.539 169.472ZM165.539 169.472L161.909 170.896L164.327 172.596L167.958 171.173L165.539 169.472ZM166.155 169.238L168.58 170.945L167.964 171.173L168.487 171.537L164.85 172.966L164.333 172.596L163.718 172.831L164.241 173.194L160.419 174.649L162.265 175.93L166.038 174.451L166.567 174.821L162.819 176.3L165.281 177.995L166.776 179.018L167.183 177.249L167.583 175.542L167.712 174.994L167.866 174.316L168.013 173.7L168.506 171.58V171.481L168.616 171.025L168.653 170.852L169.33 167.944L166.155 169.238ZM165.539 169.472L161.909 170.896L164.327 172.596L167.958 171.173L165.539 169.472ZM165.613 168.856L164.998 169.09L165.515 169.454L166.13 169.219L165.613 168.856ZM165.539 169.472L161.909 170.896L164.327 172.596L167.958 171.173L165.539 169.472ZM165.613 168.856L164.998 169.09L165.515 169.454L166.13 169.219L165.613 168.856ZM165.539 169.472L161.909 170.896L164.327 172.596L167.958 171.173L165.539 169.472ZM165.613 168.856L164.998 169.09L165.515 169.454L166.13 169.219L165.613 168.856ZM165.539 169.472L161.909 170.896L164.327 172.596L167.958 171.173L165.539 169.472ZM165.613 168.856L164.998 169.09L165.515 169.454L166.13 169.219L165.613 168.856ZM167.564 165.775L169.577 167.192L170.143 164.764L167.564 165.775ZM164.487 164.265L161.01 165.627L160.493 165.257L163.964 163.901L164.487 164.265L165.102 164.031L164.579 163.667L168.272 162.231L166.426 160.919L162.764 162.367L162.149 162.595L158.647 163.975L158.031 164.209L154.413 165.639L153.797 165.873L149.81 167.445L151.656 168.708L155.613 167.155L156.136 167.525L152.185 169.072L154.167 170.427L158.087 168.899L158.604 169.263L159.219 169.028L158.702 168.665L162.333 167.241L162.85 167.611L163.466 167.377L162.942 167.007L166.413 165.645L164.487 164.265ZM156.794 167.278L156.265 166.915L159.902 165.491L160.419 165.855L156.794 167.278ZM168.826 161.997L168.21 162.231L168.733 162.595L169.349 162.361L168.826 161.997ZM169.343 162.361L170.5 163.174L170.813 161.788L169.343 162.361ZM166.961 160.685L168.807 161.997L170.943 161.159L171.472 158.897L166.961 160.685ZM165.595 168.85L164.979 169.084L165.496 169.447L166.112 169.213L165.595 168.85ZM166.432 165.633L164.487 164.265L161.01 165.627L160.395 165.855L162.345 167.229L162.862 167.599L163.478 167.365L162.955 166.995L166.432 165.633ZM166.955 166.003L163.496 167.352L165.607 168.837L169.078 167.476L166.955 166.003ZM170.364 163.729L168.758 162.595L165.066 164.031L167.01 165.405L166.426 165.633L166.943 166.003L167.558 165.775L167.041 165.405L170.284 164.135L170.364 163.729ZM165.595 168.85L169.066 167.488L166.955 166.003L163.496 167.352L165.595 168.85ZM166.432 165.633L164.487 164.265L161.01 165.627L160.395 165.855L162.345 167.229L162.862 167.599L163.478 167.365L162.955 166.995L166.432 165.633ZM165.521 169.447L161.89 170.871L164.309 172.572L167.94 171.148L165.521 169.447ZM165.521 169.447L161.89 170.871L164.309 172.572L167.94 171.148L165.521 169.447ZM162.887 167.599L159.256 169.016L161.367 170.507L165.004 169.084L162.887 167.599ZM161.305 171.099L157.422 172.603L159.884 174.285L163.699 172.794L161.305 171.099ZM161.367 170.483L160.752 170.711L161.281 171.074L161.865 170.846L161.367 170.483ZM165.521 169.423L161.89 170.846L164.309 172.547L167.94 171.124L165.521 169.423ZM166.136 169.189L168.561 170.896L168.733 170.822L169.41 167.913L166.136 169.189ZM165.619 168.825L165.004 169.059L165.521 169.423L166.136 169.189L165.619 168.825ZM160.419 165.824L156.794 167.247L158.739 168.622L162.37 167.198L160.419 165.824ZM160.419 165.824L156.794 167.247L158.739 168.622L162.37 167.198L160.419 165.824ZM160.419 165.824L156.794 167.247L158.739 168.622L162.37 167.198L160.419 165.824Z" fill="#2E353A"/>
<path d="M165.816 183.904L174.106 147.62C174.42 146.252 175.374 145.112 176.666 144.57L221.197 125.768C221.806 125.516 222.502 125.799 222.76 126.409C222.865 126.662 222.883 126.945 222.803 127.21L212.114 163.322L165.816 183.904Z" fill="#00B533" stroke="#2E353A" stroke-width="0.495524" stroke-miterlimit="10"/>
<path d="M199.263 150.467C200.537 151.201 200.808 153.117 199.879 154.744C198.949 156.371 197.146 157.092 195.872 156.358C194.598 155.625 194.328 153.709 195.257 152.082C196.186 150.455 197.989 149.728 199.263 150.467Z" fill="#2E353A"/>
</svg>
