<svg width="52" height="48" viewBox="0 0 52 48" fill="none" xmlns="http://www.w3.org/2000/svg">
<path d="M27.7064 11.6571C27.5183 11.3954 27.2158 11.2402 26.8935 11.2402H24.3625C24.0402 11.2402 23.7377 11.3954 23.5496 11.6571L12.9692 26.3767C11.9339 27.817 11.9399 29.7481 12.984 31.182L19.0815 39.5553H18.7819C18.229 39.5553 17.7808 40.0035 17.7808 40.5564C17.7808 41.1093 18.229 41.5575 18.7819 41.5575H19.3447L17.4678 46.6532C17.3547 46.9603 17.3989 47.3034 17.5861 47.5717C17.7733 47.8401 18.0799 48.0002 18.4072 48.0002H32.8488C33.1762 48.0002 33.4828 47.8402 33.67 47.5717C33.8572 47.3033 33.9014 46.9603 33.7882 46.6532L31.9114 41.5575H32.4742C33.0271 41.5575 33.4753 41.1093 33.4753 40.5564C33.4753 40.0035 33.0271 39.5553 32.4742 39.5553H32.1746L38.272 31.182C39.3162 29.7481 39.3222 27.817 38.2869 26.3767L27.7064 11.6571ZM19.8427 45.998L21.4782 41.5575H29.7776L31.4131 45.998H19.8427ZM36.6533 30.0034L29.6976 39.5553H21.5581L14.6024 30.0034C14.0684 29.2699 14.0653 28.2821 14.5948 27.5452L24.8756 13.2424H26.3801L36.6608 27.5452C37.1906 28.282 37.1875 29.2699 36.6533 30.0034Z" fill="#4E6575"/>
<path d="M22.7664 4.28232C23.3135 4.20273 23.6925 3.69468 23.613 3.14759C23.5871 2.9694 23.5156 2.80903 23.4122 2.67648C23.263 2.31119 22.9042 2.05371 22.4852 2.05371H5.20528C4.65238 2.05371 4.2042 2.50189 4.2042 3.05479C4.2042 3.60769 4.65238 4.05587 5.20528 4.05587H16.5593C13.7691 5.34036 11.2541 7.21558 9.20089 9.57933C5.79962 13.495 3.90027 18.4977 3.8359 23.6939C2.18322 24.1371 0.962402 25.6528 0.962402 27.4491C0.962402 29.5921 2.69968 31.3356 4.83528 31.3356C6.97089 31.3356 8.70816 29.5921 8.70816 27.4491C8.70816 25.6541 7.48925 24.1393 5.83836 23.6948C5.97121 13.9931 13.2039 5.67342 22.7664 4.28232ZM6.7059 27.4491C6.7059 28.4881 5.86669 29.3334 4.83518 29.3334C3.80367 29.3334 2.96446 28.4881 2.96446 27.4491C2.96446 26.4101 3.80367 25.5648 4.83518 25.5648C5.86669 25.5648 6.7059 26.4101 6.7059 27.4491Z" fill="#4E6575"/>
<path d="M47.4203 23.6939C47.3561 18.5169 45.4691 13.5284 42.09 9.61928C40.0313 7.23761 37.5031 5.34797 34.6964 4.05587H46.0509C46.6038 4.05587 47.052 3.60769 47.052 3.05479C47.052 2.50189 46.6038 2.05371 46.0509 2.05371H28.8295C28.3494 2.05371 27.9482 2.39178 27.8509 2.84286C27.8007 2.93887 27.7652 3.04478 27.7481 3.1579C27.6657 3.70459 28.0421 4.21464 28.5888 4.29693C38.0949 5.72948 45.285 14.0424 45.4178 23.6948C43.7669 24.1393 42.548 25.654 42.548 27.4491C42.548 29.5921 44.2853 31.3356 46.4209 31.3356C48.5565 31.3356 50.2938 29.5921 50.2938 27.4491C50.2938 25.6528 49.0729 24.1371 47.4203 23.6939ZM46.4209 29.3334C45.3894 29.3334 44.5502 28.4881 44.5502 27.4491C44.5502 26.4101 45.3894 25.5648 46.4209 25.5648C47.4524 25.5648 48.2916 26.4101 48.2916 27.4491C48.2916 28.4881 47.4524 29.3334 46.4209 29.3334Z" fill="#4E6575"/>
<path d="M6.0791 6.1084H-0.000259399V0.000106812H6.0791V6.1084Z" fill="#07CD86"/>
<path d="M51.2559 6.1084H45.1765V0.000106812H51.2559V6.1084Z" fill="#07CD86"/>
<path d="M28.6675 6.1084H22.5881V0.000106812H28.6675V6.1084Z" fill="#07CD86"/>
<path d="M25.6277 31.4632C27.6015 31.4632 29.2016 29.8555 29.2016 27.8722C29.2016 25.889 27.6015 24.2812 25.6277 24.2812C23.6538 24.2812 22.0537 25.889 22.0537 27.8722C22.0537 29.8555 23.6538 31.4632 25.6277 31.4632Z" fill="#07CD86"/>
</svg>
