<svg width="65" height="48" viewBox="0 0 65 48" fill="none" xmlns="http://www.w3.org/2000/svg">
<path d="M50.5325 27.1583H49.269V17.0508H50.5325C53.3236 17.0508 55.5862 19.3134 55.5862 22.1046C55.5862 24.8956 53.3235 27.1583 50.5325 27.1583Z" fill="#FCDC8B"/>
<path d="M19.4139 13.8919H17.6831V30.3164H19.4139C28.0721 30.3164 36.4358 33.459 42.9518 39.1604V5.04785C36.436 10.7493 28.0721 13.8919 19.4139 13.8919Z" fill="#FCDC8B"/>
<path d="M63.1665 20.8467H60.6396C59.9448 20.8467 59.3813 21.41 59.3813 22.105C59.3813 22.7999 59.9448 23.3633 60.6396 23.3633H63.1665C63.8614 23.3633 64.4248 22.7999 64.4248 22.105C64.4248 21.41 63.8614 20.8467 63.1665 20.8467Z" fill="#4E6575"/>
<path d="M61.5294 16.678L63.3163 14.8912C63.8076 14.3998 63.8076 13.6031 63.3163 13.1117C62.825 12.6203 62.0285 12.6203 61.5368 13.1116L59.7499 14.8984C59.2585 15.3897 59.2585 16.1865 59.7499 16.6778C60.2412 17.1693 61.0377 17.1693 61.5294 16.678Z" fill="#4E6575"/>
<path d="M61.5288 27.5326C61.0376 27.0412 60.2407 27.0412 59.7494 27.5326C59.258 28.0241 59.258 28.8207 59.7495 29.3121L61.5364 31.0988C62.0276 31.5902 62.8245 31.5902 63.3159 31.0988C63.8072 30.6074 63.8072 29.8107 63.3157 29.3194L61.5288 27.5326Z" fill="#4E6575"/>
<path d="M46.1102 0C43.6748 0 41.6934 1.98143 41.6934 4.41686V39.7929C41.6934 42.2283 43.6748 44.2098 46.1102 44.2098C48.5457 44.2098 50.5271 42.2283 50.5271 39.7929C50.5271 38.0747 50.5271 6.1947 50.5271 4.41686C50.5271 1.98143 48.5458 0 46.1102 0ZM48.0105 39.7929C48.0105 40.8407 47.1581 41.6932 46.1102 41.6932C45.0624 41.6932 44.2099 40.8407 44.2099 39.7929V4.41686C44.2099 3.36908 45.0624 2.51659 46.1102 2.51659C47.158 2.51659 48.0105 3.36908 48.0105 4.41686V39.7929Z" fill="#4E6575"/>
<path d="M16.7378 31.576H17.6829C18.3778 31.576 18.9412 31.0126 18.9412 30.3177V13.8931C18.9412 13.1981 18.3778 12.6348 17.6829 12.6348H9.47067C4.2485 12.6348 0 16.8834 0 22.1054C0 26.2754 2.71011 29.8219 6.46058 31.0827L9.4791 44.1623C10.0005 46.4222 11.9844 48.0005 14.3038 48.0005C17.4856 48.0005 19.8452 45.0411 19.1286 41.9355L16.7378 31.576ZM2.51659 22.1054C2.51659 18.2709 5.63615 15.1514 9.47067 15.1514H16.4246V29.0594H9.47067C5.63615 29.0594 2.51659 25.9398 2.51659 22.1054ZM14.3038 45.484C13.1634 45.484 12.1877 44.7079 11.9314 43.5966L9.15534 31.5681C9.6447 31.5842 8.90293 31.5712 14.155 31.5761L16.6763 42.5016C17.0282 44.0259 15.8712 45.484 14.3038 45.484Z" fill="#4E6575"/>
</svg>
