<svg width="67" height="48" viewBox="0 0 67 48" fill="none" xmlns="http://www.w3.org/2000/svg">
<path d="M57.3405 6.48633H9.08105V37.6215H23.4811L27.3729 40.2161H37.7513L41.6432 37.6215H57.3405V6.48633Z" fill="#C3E0A0"/>
<path d="M65.1243 36.3243H63.827V1.2973C63.827 0.58093 63.2462 0 62.5297 0H3.89189C3.17539 0 2.59459 0.58093 2.59459 1.2973V36.3243H1.2973C0.5808 36.3243 0 36.9053 0 37.6216C0 43.3443 4.65574 48 10.3784 48H56.0432C61.7659 48 66.4216 43.3443 66.4216 37.6216C66.4216 36.9053 65.8408 36.3243 65.1243 36.3243ZM5.18919 2.59459H61.2324V36.3243H41.6432C41.3872 36.3243 41.1368 36.4001 40.9236 36.5423L37.3585 38.9189H27.7658L24.2007 36.5423C23.9875 36.4001 23.7372 36.3243 23.4811 36.3243H5.18919V2.59459ZM56.0432 45.4054H10.3784C6.52826 45.4054 3.32212 42.5956 2.70266 38.9189H3.89189H23.0883L26.6534 41.2956C26.8665 41.4378 27.1169 41.5135 27.373 41.5135H37.7514C38.0074 41.5135 38.2578 41.4378 38.471 41.2956L42.0361 38.9189H63.719C63.0995 42.5956 59.8934 45.4054 56.0432 45.4054Z" fill="#4E6575"/>
<path d="M23.7496 26.3257L19.4777 22.0539L23.7496 17.782C24.2562 17.2754 24.2562 16.454 23.7496 15.9472C23.243 15.4408 22.4216 15.4408 21.9148 15.9472L16.7256 21.1364C16.2191 21.643 16.2191 22.4645 16.7256 22.9712L21.9148 28.1604C22.4216 28.667 23.2429 28.6668 23.7496 28.1604C24.2563 27.6538 24.2563 26.8323 23.7496 26.3257Z" fill="#4E6575"/>
<path d="M42.672 28.1604C43.1788 28.667 44.0001 28.6668 44.5068 28.1604L49.696 22.9712C50.2026 22.4646 50.2026 21.6431 49.696 21.1364L44.5068 15.9472C44.0002 15.4408 43.1788 15.4408 42.672 15.9472C42.1654 16.4538 42.1654 17.2753 42.672 17.782L46.9439 22.0539L42.672 26.3257C42.1653 26.8323 42.1653 27.6538 42.672 28.1604Z" fill="#4E6575"/>
<path d="M29.3977 27.5579L38.5709 18.3845C39.0775 17.8779 39.0775 17.0565 38.5709 16.5498C38.0644 16.0433 37.2428 16.0433 36.7362 16.5498L27.5631 25.7231C27.0565 26.2297 27.0565 27.0511 27.5631 27.5579C28.0698 28.0645 28.891 28.0643 29.3977 27.5579Z" fill="#4E6575"/>
</svg>
